<svg width="667" height="667" viewBox="0 0 667 667" fill="none" xmlns="http://www.w3.org/2000/svg">
<g clip-path="url(#clip0_1_76)">
<path d="M666.667 666.667H0V6.10352e-05H666.667V666.667Z" fill="#121313"/>
<path d="M349.888 213.523C349.888 207.939 348.906 202.586 347.137 197.603H220.371C168.886 197.603 127 239.489 127 290.974V531.933C127 540.725 134.13 547.854 142.921 547.854C151.712 547.854 158.842 540.725 158.842 531.933V290.974C158.842 257.046 186.444 229.442 220.371 229.442H349.888V213.523Z" fill="white"/>
<path d="M412.986 202.273C413.362 205.974 413.572 209.723 413.572 213.523V237.103C432.536 247.597 445.41 267.807 445.41 290.974V531.933C445.41 540.725 452.539 547.854 461.331 547.854C470.124 547.854 477.252 540.725 477.252 531.933V290.974C477.252 249.65 450.259 214.533 412.986 202.273Z" fill="white"/>
<path d="M507.217 291.12C507.592 294.821 514.196 243.859 514.196 247.659L512.737 249.848C552.284 249.848 507.217 267.952 507.217 291.12L507.217 532.079C507.217 540.87 514.346 548 523.138 548C531.931 548 539.058 540.87 539.058 532.079V291.12C539.058 249.796 544.489 303.38 507.217 291.12Z" fill="white"/>
<path d="M302.128 118C260.495 118 225.018 144.783 211.969 182.014C214.744 181.802 217.544 181.682 220.371 181.682H247.014C258.043 162.667 278.608 149.84 302.128 149.84C337.241 149.84 365.809 178.409 365.809 213.523V257.054C365.809 265.845 372.939 272.975 381.73 272.975C390.522 272.975 397.651 265.845 397.651 257.054V213.523C397.651 160.851 354.8 118 302.128 118Z" fill="#FF6600"/>
<path d="M381.73 356.807C372.939 356.807 365.809 363.935 365.809 372.728V452.331C365.809 487.444 337.24 516.012 302.128 516.012C267.013 516.012 238.446 487.444 238.446 452.331V245.363H220.371C215.571 245.363 210.951 246.132 206.604 247.513V452.331C206.604 505.003 249.456 547.854 302.128 547.854C354.8 547.854 397.651 505.003 397.651 452.331V372.728C397.651 363.935 390.522 356.807 381.73 356.807Z" fill="#FF6600"/>
<path d="M190.684 356.807H142.921C134.13 356.807 127 363.935 127 372.728C127 381.52 134.13 388.649 142.921 388.649H190.684V356.807Z" fill="white"/>
<path d="M397.651 356.807H272.833C264.042 356.807 256.912 363.935 256.912 372.728C256.912 381.52 264.042 388.649 272.833 388.649H397.651V356.807Z" fill="#FF6600"/>
<path d="M461.331 356.807H413.572V388.649H461.331C470.124 388.649 477.252 381.52 477.252 372.728C477.252 363.935 470.124 356.807 461.331 356.807Z" fill="white"/>
<path d="M501.9 247.659H539.843V414.029H501.9V247.659Z" fill="#121313"/>
<path d="M506.9 453.432H539.006V374.625C539.006 365.76 531.819 358.572 522.953 358.572C514.087 358.572 506.9 365.76 506.9 374.625V453.432Z" fill="white"/>
<path d="M537.547 329.385C537.547 337.445 531.013 343.978 522.953 343.978C514.893 343.978 508.359 337.445 508.359 329.385C508.359 321.325 514.893 314.791 522.953 314.791C531.013 314.791 537.547 321.325 537.547 329.385Z" fill="#9AF50A"/>
</g>
<defs>
<clipPath id="clip0_1_76">
<rect width="666.667" height="666.667" fill="white"/>
</clipPath>
</defs>
</svg>
