<svg width="592" height="446" viewBox="0 0 592 446" fill="none" xmlns="http://www.w3.org/2000/svg">
<path d="M570.55 220.049C564.676 280.974 528.682 343.132 467.359 361.248C415.202 377.222 359.391 367.379 306.56 379.669C227.617 398.708 124.841 450.603 58.54 377.649C10.145 316.312 38.705 212.259 75.247 149.679C194.101 -42.0507 591.502 -80.6786 570.55 220.049Z" fill="#F2D9AF"/>
<path d="M160.876 437.018C165.75 420.163 167.465 405.151 166.867 391.814C163.612 318.601 90.928 295.821 90.928 295.821C90.928 295.821 79.091 328.532 88.785 364.237C96.049 390.986 115.4 419.415 160.876 437.018Z" fill="#F2E9DA"/>
<path d="M98.262 308.982L160.502 434.62C160.78 435.182 159.86 435.513 159.583 434.953L97.343 309.315C97.064 308.754 97.985 308.423 98.262 308.982Z" fill="#FFA727"/>
<path d="M123.789 362.355L131.876 338.848C132.754 336.273 133.632 333.699 134.511 331.124C134.714 330.528 135.603 330.936 135.402 331.527L126.082 358.85C125.204 361.425 125.559 360.183 124.68 362.758C124.476 363.354 123.587 362.945 123.789 362.355Z" fill="#FFA727"/>
<path d="M142.044 399.206L150.131 375.699C151.009 373.124 151.887 370.55 152.766 367.975C152.969 367.379 153.858 367.787 153.657 368.378L144.337 395.701C143.459 398.276 143.814 397.034 142.935 399.609C142.732 400.205 141.843 399.796 142.044 399.206Z" fill="#FFA727"/>
<path d="M110.645 389.685L134.245 397.494C136.825 398.355 139.406 399.217 141.986 400.078C142.584 400.277 142.797 399.323 142.205 399.125L114.822 389.985C112.242 389.124 113.444 389.594 110.864 388.732C110.267 388.533 110.053 389.488 110.645 389.685Z" fill="#FFA727"/>
<path d="M91.939 351.926L115.539 359.735C118.119 360.596 120.7 361.458 123.28 362.319C123.878 362.518 124.091 361.564 123.499 361.366L96.115 352.225C93.535 351.364 94.737 351.834 92.157 350.972C91.561 350.774 91.348 351.729 91.939 351.926Z" fill="#FFA727"/>
<path d="M161.532 437.113C155.003 420.827 147.117 407.939 138.439 397.794C90.823 342.084 19.51 368.853 19.51 368.853C19.51 368.853 30.308 401.921 59.919 424.102C82.105 440.718 114.853 451.22 161.532 437.113Z" fill="#FFA727"/>
<path d="M33.39 374.715L159.761 435.453C160.326 435.725 159.804 436.552 159.242 436.281L32.871 375.544C32.305 375.272 32.828 374.445 33.39 374.715Z" fill="#F2E9DA"/>
<path d="M86.354 401.08L78.264 377.575C77.372 375.005 76.48 372.435 75.588 369.865C75.381 369.27 76.333 369.045 76.538 369.635L86.004 396.908C86.896 399.478 86.412 398.281 87.304 400.851C87.51 401.444 86.558 401.669 86.354 401.08Z" fill="#F2E9DA"/>
<path d="M123.42 418.895L115.33 395.39C114.438 392.82 113.546 390.25 112.654 387.68C112.447 387.085 113.399 386.86 113.604 387.45L123.07 414.723C123.962 417.293 123.478 416.096 124.37 418.666C124.576 419.259 123.624 419.484 123.42 418.895Z" fill="#F2E9DA"/>
<path d="M92.811 430.711L116.219 422.345C118.783 421.436 121.347 420.527 123.911 419.618C124.505 419.408 124.086 418.524 123.498 418.732L96.288 428.377C93.724 429.286 94.961 428.916 92.397 429.825C91.803 430.036 92.223 430.92 92.811 430.711Z" fill="#F2E9DA"/>
<path d="M54.831 412.457L78.239 404.091C80.803 403.182 83.367 402.273 85.931 401.364C86.525 401.154 86.106 400.27 85.518 400.478L58.308 410.123C55.744 411.032 56.981 410.662 54.417 411.571C53.824 411.782 54.243 412.666 54.831 412.457Z" fill="#F2E9DA"/>
<path d="M321.992 444.638H151.757C141.934 444.638 133.883 436.842 133.568 427.023L122.412 79.0764C122.083 68.8024 130.322 60.2954 140.601 60.2954H310.835C320.658 60.2954 328.709 68.0914 329.024 77.9104L340.18 425.857C340.51 436.13 332.271 444.638 321.992 444.638Z" fill="#FFBD29"/>
<path d="M164.08 445.138C153.926 445.138 145.717 437.188 145.392 427.038L134.236 79.0924C134.072 73.9874 135.939 69.1544 139.492 65.4854C143.046 61.8164 147.816 59.7954 152.924 59.7954C153.2 59.7954 153.424 60.0194 153.424 60.2954C153.424 60.5714 153.2 60.7954 152.924 60.7954C148.089 60.7954 143.574 62.7084 140.211 66.1814C136.848 69.6544 135.081 74.2284 135.235 79.0604L146.391 427.007C146.699 436.612 154.468 444.138 164.079 444.138C164.355 444.138 164.579 444.362 164.579 444.638C164.579 444.914 164.356 445.138 164.08 445.138Z" fill="#25292B"/>
<path d="M339.71 409.574H158.84L148.464 87.2192H329.333L339.71 409.574Z" fill="#F2E9DA"/>
<path d="M288.328 435.012H212.366C207.392 435.012 203.345 430.965 203.345 425.991C203.345 421.017 207.392 416.97 212.366 416.97H288.328C293.303 416.97 297.349 421.017 297.349 425.991C297.35 430.965 293.303 435.012 288.328 435.012ZM212.366 417.97C207.943 417.97 204.345 421.568 204.345 425.991C204.345 430.414 207.943 434.012 212.366 434.012H288.328C292.751 434.012 296.349 430.413 296.349 425.991C296.349 421.569 292.75 417.97 288.328 417.97H212.366Z" fill="#25292B"/>
<path d="M294.615 80.5554H190.683C189.17 80.5554 187.939 79.3254 187.939 77.8124C187.939 76.2994 189.17 75.0684 190.683 75.0684H294.615C296.128 75.0684 297.359 76.2994 297.359 77.8124C297.359 79.3254 296.128 80.5554 294.615 80.5554ZM190.683 76.0684C189.722 76.0684 188.939 76.8504 188.939 77.8124C188.939 78.7744 189.721 79.5554 190.683 79.5554H294.615C295.576 79.5554 296.359 78.7734 296.359 77.8124C296.359 76.8514 295.577 76.0684 294.615 76.0684H190.683Z" fill="#25292B"/>
<path d="M132.604 237.504C132.335 237.504 132.113 237.29 132.105 237.02L128.107 112.314C128.098 112.038 128.315 111.807 128.59 111.798C128.851 111.769 129.097 112.005 129.106 112.281L133.104 236.988C133.113 237.263 132.896 237.495 132.621 237.504C132.616 237.504 132.61 237.504 132.604 237.504Z" fill="#25292B"/>
<path d="M351.922 246.985H181.484C174.884 246.985 169.484 241.585 169.484 234.985V197.072C169.484 190.472 174.884 185.072 181.484 185.072H351.922C358.522 185.072 363.922 190.472 363.922 197.072V234.985C363.922 241.585 358.522 246.985 351.922 246.985Z" fill="#FFA727"/>
<mask id="mask0_5_1575" style="mask-type:luminance" maskUnits="userSpaceOnUse" x="182" y="193" width="45" height="45">
<path d="M204.891 237.433C197.511 237.433 190.98 233.8 186.989 228.224C184.409 224.62 182.891 220.204 182.891 215.433C182.891 209.44 185.287 204.006 189.174 200.038C193.167 195.962 198.734 193.433 204.891 193.433C205.572 193.433 206.247 193.464 206.913 193.525C208.18 193.64 209.417 193.863 210.613 194.185C211.995 194.556 213.324 195.059 214.585 195.679C215 195.883 215.407 196.099 215.807 196.328C218.306 197.759 220.496 199.665 222.256 201.925C222.667 202.452 223.055 202.999 223.417 203.563C223.48 203.662 223.543 203.761 223.605 203.861C225.688 207.223 226.891 211.187 226.891 215.433C226.891 227.584 217.041 237.433 204.891 237.433ZM186.559 215.748C186.727 225.728 194.87 233.767 204.891 233.767C215.016 233.767 223.224 225.559 223.224 215.433C223.224 205.491 215.31 197.397 205.438 197.107C205.438 197.107 205.436 197.107 205.435 197.107C205.416 197.106 205.398 197.106 205.379 197.106C205.376 197.105 205.374 197.105 205.372 197.105C205.367 197.105 205.361 197.105 205.356 197.105C205.353 197.105 205.349 197.105 205.347 197.104C205.337 197.104 205.328 197.104 205.319 197.104C205.316 197.104 205.313 197.104 205.31 197.104C205.305 197.104 205.301 197.104 205.295 197.103C205.292 197.103 205.288 197.103 205.284 197.103C205.279 197.103 205.275 197.103 205.27 197.103C205.265 197.103 205.259 197.103 205.254 197.103C205.248 197.103 205.242 197.102 205.236 197.102C205.232 197.102 205.227 197.102 205.223 197.102C205.219 197.102 205.214 197.102 205.21 197.102C205.205 197.101 205.2 197.101 205.195 197.101C205.19 197.101 205.187 197.101 205.182 197.101C205.175 197.101 205.168 197.101 205.161 197.101C205.158 197.101 205.154 197.101 205.151 197.101C205.145 197.101 205.139 197.101 205.133 197.101C205.131 197.1 205.127 197.1 205.125 197.1C205.117 197.1 205.108 197.1 205.1 197.1C205.097 197.1 205.094 197.1 205.092 197.1C205.086 197.1 205.079 197.1 205.073 197.1C205.07 197.1 205.067 197.1 205.064 197.1C205.057 197.1 205.05 197.1 205.043 197.1C205.042 197.1 205.039 197.1 205.038 197.1C205.029 197.1 205.021 197.1 205.012 197.099C205.01 197.099 205.007 197.099 205.005 197.099C204.998 197.099 204.99 197.099 204.984 197.099C204.982 197.099 204.979 197.099 204.978 197.099C204.969 197.099 204.96 197.099 204.951 197.099C204.949 197.099 204.948 197.099 204.946 197.099C204.939 197.099 204.931 197.099 204.924 197.099C204.921 197.099 204.92 197.099 204.917 197.099C204.909 197.099 204.899 197.099 204.891 197.099C194.765 197.099 186.556 205.308 186.556 215.433C186.556 215.443 186.557 215.452 186.557 215.462C186.557 215.465 186.557 215.469 186.557 215.472C186.557 215.478 186.557 215.485 186.557 215.491C186.557 215.496 186.557 215.498 186.557 215.503C186.557 215.508 186.557 215.514 186.557 215.521C186.557 215.525 186.557 215.53 186.557 215.535C186.557 215.539 186.557 215.544 186.557 215.549C186.557 215.555 186.557 215.56 186.557 215.565C186.557 215.57 186.557 215.574 186.557 215.578C186.557 215.584 186.557 215.59 186.557 215.597C186.557 215.6 186.557 215.603 186.557 215.607C186.557 215.612 186.557 215.62 186.557 215.626C186.557 215.629 186.557 215.632 186.557 215.635C186.558 215.642 186.558 215.649 186.558 215.656C186.558 215.658 186.558 215.661 186.558 215.664C186.558 215.671 186.558 215.679 186.558 215.686C186.558 215.688 186.558 215.69 186.558 215.692C186.559 215.7 186.559 215.708 186.559 215.716C186.559 215.717 186.559 215.719 186.559 215.72C186.559 215.729 186.559 215.738 186.559 215.747C186.559 215.747 186.559 215.747 186.559 215.748Z" fill="white"/>
</mask>
<g mask="url(#mask0_5_1575)">
<path d="M204.891 237.433C197.511 237.433 190.98 233.8 186.989 228.224C184.409 224.62 182.891 220.204 182.891 215.433C182.891 209.44 185.287 204.006 189.174 200.038C193.167 195.962 198.734 193.433 204.891 193.433C205.572 193.433 206.247 193.464 206.913 193.525C208.18 193.64 209.417 193.863 210.613 194.185C211.995 194.556 213.324 195.059 214.585 195.679C215 195.883 215.407 196.099 215.807 196.328C218.306 197.759 220.496 199.665 222.256 201.925C222.667 202.452 223.055 202.999 223.417 203.563C223.48 203.662 223.543 203.761 223.605 203.861C225.688 207.223 226.891 211.187 226.891 215.433C226.891 227.584 217.041 237.433 204.891 237.433ZM186.559 215.748C186.727 225.728 194.87 233.767 204.891 233.767C215.016 233.767 223.224 225.559 223.224 215.433C223.224 205.491 215.31 197.397 205.438 197.107C205.438 197.107 205.436 197.107 205.435 197.107C205.416 197.106 205.398 197.106 205.379 197.106C205.376 197.105 205.374 197.105 205.372 197.105C205.367 197.105 205.361 197.105 205.356 197.105C205.353 197.105 205.349 197.105 205.347 197.104C205.337 197.104 205.328 197.104 205.319 197.104C205.316 197.104 205.313 197.104 205.31 197.104C205.305 197.104 205.301 197.104 205.295 197.103C205.292 197.103 205.288 197.103 205.284 197.103C205.279 197.103 205.275 197.103 205.27 197.103C205.265 197.103 205.259 197.103 205.254 197.103C205.248 197.103 205.242 197.102 205.236 197.102C205.232 197.102 205.227 197.102 205.223 197.102C205.219 197.102 205.214 197.102 205.21 197.102C205.205 197.101 205.2 197.101 205.195 197.101C205.19 197.101 205.187 197.101 205.182 197.101C205.175 197.101 205.168 197.101 205.161 197.101C205.158 197.101 205.154 197.101 205.151 197.101C205.145 197.101 205.139 197.101 205.133 197.101C205.131 197.1 205.127 197.1 205.125 197.1C205.117 197.1 205.108 197.1 205.1 197.1C205.097 197.1 205.094 197.1 205.092 197.1C205.086 197.1 205.079 197.1 205.073 197.1C205.07 197.1 205.067 197.1 205.064 197.1C205.057 197.1 205.05 197.1 205.043 197.1C205.042 197.1 205.039 197.1 205.038 197.1C205.029 197.1 205.021 197.1 205.012 197.099C205.01 197.099 205.007 197.099 205.005 197.099C204.998 197.099 204.99 197.099 204.984 197.099C204.982 197.099 204.979 197.099 204.978 197.099C204.969 197.099 204.96 197.099 204.951 197.099C204.949 197.099 204.948 197.099 204.946 197.099C204.939 197.099 204.931 197.099 204.924 197.099C204.921 197.099 204.92 197.099 204.917 197.099C204.909 197.099 204.899 197.099 204.891 197.099C194.765 197.099 186.556 205.308 186.556 215.433C186.556 215.443 186.557 215.452 186.557 215.462C186.557 215.465 186.557 215.469 186.557 215.472C186.557 215.478 186.557 215.485 186.557 215.491C186.557 215.496 186.557 215.498 186.557 215.503C186.557 215.508 186.557 215.514 186.557 215.521C186.557 215.525 186.557 215.53 186.557 215.535C186.557 215.539 186.557 215.544 186.557 215.549C186.557 215.555 186.557 215.56 186.557 215.565C186.557 215.57 186.557 215.574 186.557 215.578C186.557 215.584 186.557 215.59 186.557 215.597C186.557 215.6 186.557 215.603 186.557 215.607C186.557 215.612 186.557 215.62 186.557 215.626C186.557 215.629 186.557 215.632 186.557 215.635C186.558 215.642 186.558 215.649 186.558 215.656C186.558 215.658 186.558 215.661 186.558 215.664C186.558 215.671 186.558 215.679 186.558 215.686C186.558 215.688 186.558 215.69 186.558 215.692C186.559 215.7 186.559 215.708 186.559 215.716C186.559 215.717 186.559 215.719 186.559 215.72C186.559 215.729 186.559 215.738 186.559 215.747C186.559 215.747 186.559 215.747 186.559 215.748Z" fill="url(#paint0_linear_5_1575)"/>
</g>
<path d="M223.224 215.433C223.224 225.559 215.016 233.767 204.891 233.767C194.765 233.767 186.556 225.559 186.556 215.433C186.556 205.308 194.765 197.099 204.891 197.099C215.016 197.099 223.224 205.308 223.224 215.433Z" fill="white"/>
<mask id="mask1_5_1575" style="mask-type:luminance" maskUnits="userSpaceOnUse" x="194" y="205" width="23" height="14">
<path d="M194.841 210.256L205.114 218.109L216.844 206.889L215.32 205.296L204.953 215.212L196.18 208.505L194.841 210.256Z" fill="white"/>
</mask>
<g mask="url(#mask1_5_1575)">
<path d="M194.841 210.256L205.114 218.109L216.844 206.889L215.32 205.296L204.953 215.212L196.18 208.505L194.841 210.256Z" fill="url(#paint1_linear_5_1575)"/>
</g>
<mask id="mask2_5_1575" style="mask-type:luminance" maskUnits="userSpaceOnUse" x="203" y="226" width="3" height="6">
<path d="M205.938 231.761H203.843V226.873H205.938V231.761Z" fill="white"/>
</mask>
<g mask="url(#mask2_5_1575)">
<path d="M205.938 231.761H203.843V226.873H205.938V231.761Z" fill="url(#paint2_linear_5_1575)"/>
</g>
<mask id="mask3_5_1575" style="mask-type:luminance" maskUnits="userSpaceOnUse" x="216" y="214" width="6" height="3">
<path d="M216.331 216.48V214.385H221.218V216.48H216.331Z" fill="white"/>
</mask>
<g mask="url(#mask3_5_1575)">
<path d="M216.331 216.48V214.385H221.218V216.48H216.331Z" fill="url(#paint3_linear_5_1575)"/>
</g>
<mask id="mask4_5_1575" style="mask-type:luminance" maskUnits="userSpaceOnUse" x="189" y="214" width="5" height="3">
<path d="M193.45 216.48H189.987C190.122 215.767 190.297 215.067 190.511 214.385H193.45V216.48Z" fill="white"/>
</mask>
<g mask="url(#mask4_5_1575)">
<path d="M193.45 216.48H189.987C190.122 215.767 190.297 215.067 190.511 214.385H193.45V216.48Z" fill="url(#paint4_linear_5_1575)"/>
</g>
<path d="M191.587 228.042C188.539 224.825 186.639 220.51 186.559 215.748C186.559 215.747 186.559 215.747 186.559 215.747C186.559 215.738 186.559 215.729 186.559 215.72C186.559 215.719 186.559 215.718 186.559 215.717C186.559 215.708 186.559 215.7 186.558 215.692C186.558 215.69 186.558 215.688 186.558 215.686C186.558 215.679 186.558 215.671 186.558 215.664C186.558 215.661 186.558 215.659 186.558 215.656C186.558 215.649 186.558 215.643 186.558 215.635C186.558 215.632 186.558 215.629 186.558 215.626C186.558 215.62 186.558 215.613 186.558 215.607C186.558 215.603 186.557 215.6 186.557 215.597C186.557 215.591 186.557 215.584 186.557 215.578C186.557 215.574 186.557 215.57 186.557 215.566C186.557 215.56 186.557 215.555 186.557 215.549C186.557 215.544 186.557 215.54 186.557 215.535C186.557 215.53 186.557 215.526 186.557 215.521C186.557 215.515 186.557 215.508 186.557 215.503C186.557 215.499 186.557 215.495 186.557 215.491C186.557 215.485 186.557 215.478 186.557 215.472C186.557 215.469 186.557 215.465 186.557 215.462C186.557 215.452 186.556 215.443 186.556 215.433C186.556 205.308 194.765 197.099 204.891 197.099C204.899 197.099 204.909 197.099 204.917 197.099C204.92 197.099 204.922 197.099 204.924 197.099C204.931 197.099 204.939 197.099 204.946 197.099C204.948 197.099 204.949 197.099 204.951 197.099C204.96 197.099 204.969 197.099 204.978 197.099C204.98 197.099 204.981 197.099 204.984 197.099C204.991 197.099 204.998 197.099 205.005 197.099C205.007 197.099 205.01 197.099 205.012 197.099C205.021 197.1 205.029 197.1 205.038 197.1C205.04 197.1 205.041 197.1 205.043 197.1C205.05 197.1 205.057 197.1 205.064 197.1C205.067 197.1 205.07 197.1 205.073 197.1C205.079 197.1 205.086 197.1 205.092 197.1C205.095 197.1 205.097 197.1 205.1 197.1C205.108 197.101 205.116 197.101 205.125 197.101C205.128 197.101 205.13 197.101 205.133 197.101C205.14 197.101 205.144 197.101 205.151 197.101C205.154 197.101 205.158 197.101 205.161 197.101C205.168 197.101 205.175 197.101 205.182 197.101C205.186 197.102 205.19 197.102 205.195 197.102C205.2 197.102 205.205 197.102 205.21 197.102C205.214 197.102 205.219 197.102 205.223 197.102C205.228 197.102 205.232 197.102 205.236 197.102C205.242 197.102 205.248 197.103 205.254 197.103C205.259 197.103 205.265 197.103 205.27 197.103C205.275 197.103 205.28 197.103 205.284 197.103C205.288 197.103 205.292 197.103 205.296 197.103C205.3 197.104 205.305 197.104 205.31 197.104C205.313 197.104 205.316 197.104 205.319 197.104C205.328 197.104 205.337 197.105 205.347 197.105C205.35 197.105 205.353 197.105 205.356 197.105C205.361 197.105 205.366 197.105 205.372 197.105C205.374 197.105 205.376 197.105 205.379 197.106C205.397 197.106 205.416 197.106 205.435 197.107C205.436 197.107 205.437 197.107 205.438 197.107C212.4 197.311 218.384 201.399 221.309 207.276C217.968 203.751 213.246 201.55 208.006 201.55C207.307 201.55 206.617 201.589 205.938 201.665V199.106H203.843V202.025C197.512 203.495 192.439 208.244 190.511 214.385H188.563V216.481H189.987C189.78 217.584 189.672 218.721 189.672 219.884C189.672 222.815 190.364 225.584 191.587 228.042Z" fill="#E6E8F6"/>
<mask id="mask5_5_1575" style="mask-type:luminance" maskUnits="userSpaceOnUse" x="203" y="199" width="3" height="4">
<path d="M203.843 202.025V199.106H205.938V201.665C205.226 201.745 204.528 201.866 203.843 202.025Z" fill="white"/>
</mask>
<g mask="url(#mask5_5_1575)">
<path d="M203.843 202.025V199.106H205.938V201.665C205.226 201.745 204.528 201.866 203.843 202.025Z" fill="url(#paint5_linear_5_1575)"/>
</g>
<path d="M309.188 206.934H243.021C241.718 206.934 240.651 205.867 240.651 204.564C240.651 203.26 241.718 202.194 243.021 202.194H309.188C310.491 202.194 311.558 203.261 311.558 204.564C311.558 205.868 310.491 206.934 309.188 206.934Z" fill="#F2E9DA"/>
<path d="M350.363 218.168H243.021C241.718 218.168 240.651 217.102 240.651 215.798C240.651 214.494 241.718 213.428 243.021 213.428H350.363C351.667 213.428 352.733 214.495 352.733 215.798C352.733 217.102 351.667 218.168 350.363 218.168Z" fill="#F2E9DA"/>
<path d="M350.363 229.864H243.021C241.718 229.864 240.651 228.797 240.651 227.494C240.651 226.19 241.718 225.124 243.021 225.124H350.363C351.667 225.124 352.733 226.191 352.733 227.494C352.733 228.797 351.667 229.864 350.363 229.864Z" fill="#F2E9DA"/>
<path d="M345.761 247.484H175.323C168.43 247.484 162.823 241.877 162.823 234.984V197.072C162.823 190.179 168.43 184.572 175.323 184.572H345.761C352.654 184.572 358.261 190.179 358.261 197.072V234.984C358.261 241.877 352.653 247.484 345.761 247.484ZM175.323 185.572C168.982 185.572 163.823 190.731 163.823 197.072V234.984C163.823 241.325 168.982 246.484 175.323 246.484H345.761C352.102 246.484 357.261 241.325 357.261 234.984V197.072C357.261 190.731 352.102 185.572 345.761 185.572H175.323Z" fill="#25292B"/>
<path d="M370.724 320.997H200.286C193.686 320.997 188.286 315.597 188.286 308.997V271.084C188.286 264.484 193.686 259.084 200.286 259.084H370.724C377.324 259.084 382.724 264.484 382.724 271.084V308.997C382.724 315.597 377.324 320.997 370.724 320.997Z" fill="#FFBD29"/>
<path d="M327.989 280.659H261.822C260.519 280.659 259.452 279.593 259.452 278.289C259.452 276.986 260.519 275.919 261.822 275.919H327.989C329.293 275.919 330.359 276.986 330.359 278.289C330.359 279.592 329.293 280.659 327.989 280.659Z" fill="#F2E9DA"/>
<path d="M369.164 291.893H261.822C260.519 291.893 259.452 290.827 259.452 289.523C259.452 288.22 260.519 287.153 261.822 287.153H369.164C370.468 287.153 371.534 288.22 371.534 289.523C371.535 290.827 370.468 291.893 369.164 291.893Z" fill="#F2E9DA"/>
<path d="M369.164 303.589H261.822C260.519 303.589 259.452 302.523 259.452 301.219C259.452 299.916 260.519 298.849 261.822 298.849H369.164C370.468 298.849 371.534 299.916 371.534 301.219C371.535 302.522 370.468 303.589 369.164 303.589Z" fill="#F2E9DA"/>
<path d="M219.497 285.919C215.225 285.919 211.754 282.499 211.754 278.282C211.754 274.058 215.225 270.633 219.497 270.633C223.775 270.633 227.239 274.058 227.239 278.282C227.239 282.499 223.775 285.919 219.497 285.919ZM219.497 267.919C213.702 267.919 209 272.56 209 278.288C209 284.016 219.497 305.919 219.497 305.919C219.497 305.919 230 284.016 230 278.288C230 272.56 225.304 267.919 219.497 267.919Z" fill="#FDFDFD"/>
<path d="M364.563 321.496H194.125C187.232 321.496 181.625 315.889 181.625 308.996V271.084C181.625 264.191 187.232 258.584 194.125 258.584H364.563C371.456 258.584 377.063 264.191 377.063 271.084V308.996C377.063 315.889 371.455 321.496 364.563 321.496ZM194.125 259.584C187.784 259.584 182.625 264.743 182.625 271.084V308.996C182.625 315.337 187.784 320.496 194.125 320.496H364.563C370.904 320.496 376.063 315.337 376.063 308.996V271.084C376.063 264.743 370.904 259.584 364.563 259.584H194.125Z" fill="#25292B"/>
<path d="M396.777 391.201H226.339C219.739 391.201 214.339 385.801 214.339 379.201V341.288C214.339 334.688 219.739 329.288 226.339 329.288H396.777C403.377 329.288 408.777 334.688 408.777 341.288V379.201C408.777 385.801 403.377 391.201 396.777 391.201Z" fill="#FFA727"/>
<path d="M354.042 351.151H287.875C286.572 351.151 285.505 350.084 285.505 348.781C285.505 347.478 286.571 346.411 287.875 346.411H354.042C355.346 346.411 356.412 347.477 356.412 348.781C356.412 350.084 355.346 351.151 354.042 351.151Z" fill="#F2E9DA"/>
<path d="M395.217 362.385H287.875C286.572 362.385 285.505 361.318 285.505 360.015C285.505 358.711 286.571 357.645 287.875 357.645H395.217C396.52 357.645 397.587 358.711 397.587 360.015C397.587 361.319 396.521 362.385 395.217 362.385Z" fill="#F2E9DA"/>
<path d="M395.217 374.08H287.875C286.572 374.08 285.505 373.013 285.505 371.71C285.505 370.406 286.571 369.34 287.875 369.34H395.217C396.52 369.34 397.587 370.406 397.587 371.71C397.587 373.013 396.521 374.08 395.217 374.08Z" fill="#F2E9DA"/>
<path d="M269.068 357.4C269.068 368.996 259.664 378.4 248.066 378.4C236.468 378.4 227.065 368.996 227.065 357.4C227.065 345.8 236.468 336.4 248.066 336.4C259.664 336.4 269.068 345.8 269.068 357.4Z" fill="white"/>
<path d="M242.011 345.834L244.51 350.909C244.51 350.909 244.867 352.84 242.653 354.196C242.653 354.196 244.299 360.202 251.23 362.128L253.519 359.639C253.519 359.639 253.874 358.937 255.018 359.639C256.16 360.345 259.519 362.128 259.519 362.128C259.519 362.128 259.878 364.845 257.373 366.491C254.875 368.135 252.629 367.776 250.156 366.632C250.156 366.632 241.447 363.991 237.291 353.481C234.86 347.334 239.58 345.834 239.58 345.834H242.011Z" fill="#FFA727"/>
<path d="M269.069 357.4C269.069 368.996 259.665 378.4 248.067 378.4C236.469 378.4 227.066 368.996 227.066 357.4C227.066 345.8 236.469 336.4 248.067 336.4C259.665 336.4 269.069 345.8 269.069 357.4Z" fill="white"/>
<path d="M242.011 345.834L244.51 350.909C244.51 350.909 244.867 352.84 242.653 354.196C242.653 354.196 244.299 360.202 251.231 362.128L253.52 359.639C253.52 359.639 253.874 358.937 255.018 359.639C256.16 360.345 259.52 362.128 259.52 362.128C259.52 362.128 259.879 364.845 257.373 366.491C254.875 368.135 252.63 367.776 250.156 366.632C250.156 366.632 241.448 363.991 237.291 353.481C234.861 347.334 239.58 345.834 239.58 345.834H242.011Z" fill="#FFA727"/>
<path d="M390.615 391.701H220.178C213.285 391.701 207.678 386.094 207.678 379.201V341.289C207.678 334.396 213.285 328.789 220.178 328.789H390.616C397.509 328.789 403.116 334.396 403.116 341.289V379.201C403.115 386.094 397.508 391.701 390.615 391.701ZM220.178 329.789C213.837 329.789 208.678 334.948 208.678 341.289V379.201C208.678 385.542 213.837 390.701 220.178 390.701H390.616C396.957 390.701 402.116 385.542 402.116 379.201V341.289C402.116 334.948 396.957 329.789 390.616 329.789H220.178Z" fill="#25292B"/>
<path d="M234.632 162.833C276.709 162.833 310.819 128.723 310.819 86.6465C310.819 44.5695 276.709 10.4595 234.632 10.4595C192.555 10.4595 158.445 44.5695 158.445 86.6465C158.445 128.723 192.555 162.833 234.632 162.833Z" fill="#FFA727"/>
<path d="M234.632 166.908C190.376 166.908 154.37 130.903 154.37 86.6463C154.37 42.3893 190.375 6.38428 234.632 6.38428C278.889 6.38428 314.894 42.3893 314.894 86.6463C314.894 130.903 278.888 166.908 234.632 166.908ZM234.632 7.38428C190.927 7.38428 155.37 42.9413 155.37 86.6463C155.37 130.351 190.927 165.908 234.632 165.908C278.337 165.908 313.894 130.351 313.894 86.6463C313.894 42.9413 278.337 7.38428 234.632 7.38428Z" fill="#25292B"/>
<mask id="mask6_5_1575" style="mask-type:luminance" maskUnits="userSpaceOnUse" x="158" y="10" width="176" height="153">
<path d="M333.303 56.7985V94.4955H310.417C306.491 132.889 274.057 162.836 234.635 162.836C192.552 162.836 158.443 128.727 158.443 86.6445C158.443 44.5685 192.552 10.4595 234.635 10.4595C266.12 10.4595 293.14 29.5565 304.744 56.7985H333.303Z" fill="white"/>
</mask>
<g mask="url(#mask6_5_1575)">
<path d="M309.91 180.037C305.997 180.037 302.597 177.134 302.077 173.15C295.251 120.822 272.706 114.115 272.479 114.054C272.606 114.088 272.673 114.099 272.673 114.099L276.01 98.6367C276.981 98.8467 285.766 100.991 295.135 111.601C306.708 124.708 314.321 144.727 317.761 171.104C318.326 175.436 315.273 179.405 310.941 179.97C310.596 180.015 310.251 180.037 309.91 180.037Z" fill="#25292B"/>
</g>
<mask id="mask7_5_1575" style="mask-type:luminance" maskUnits="userSpaceOnUse" x="158" y="10" width="176" height="153">
<path d="M333.303 56.7985V94.4955H310.417C306.491 132.889 274.057 162.836 234.635 162.836C192.552 162.836 158.443 128.727 158.443 86.6445C158.443 44.5685 192.552 10.4595 234.635 10.4595C266.12 10.4595 293.14 29.5565 304.744 56.7985H333.303Z" fill="white"/>
</mask>
<g mask="url(#mask7_5_1575)">
<path d="M255.945 148.542H219.177V175.525H255.945V148.542Z" fill="#25292B"/>
</g>
<mask id="mask8_5_1575" style="mask-type:luminance" maskUnits="userSpaceOnUse" x="158" y="10" width="176" height="153">
<path d="M333.303 56.7985V94.4955H310.417C306.491 132.889 274.057 162.836 234.635 162.836C192.552 162.836 158.443 128.727 158.443 86.6445C158.443 44.5685 192.552 10.4595 234.635 10.4595C266.12 10.4595 293.14 29.5565 304.744 56.7985H333.303Z" fill="white"/>
</mask>
<g mask="url(#mask8_5_1575)">
<path d="M282.801 57.8987C282.801 60.4367 282.614 62.9387 282.24 65.3687C280.78 74.9957 272.541 82.1287 262.806 82.1287H206.444C196.953 82.1287 188.67 75.3697 187.125 66.0017C186.686 63.3627 186.464 60.6597 186.464 57.8987C186.464 30.9727 208.034 16.3047 234.637 16.3047C237.923 16.3047 241.13 16.5277 244.228 16.9737C266.228 20.1157 282.801 34.2937 282.801 57.8987Z" fill="#F2E9DA"/>
</g>
<mask id="mask9_5_1575" style="mask-type:luminance" maskUnits="userSpaceOnUse" x="158" y="10" width="176" height="153">
<path d="M333.303 56.7985V94.4955H310.417C306.491 132.889 274.057 162.836 234.635 162.836C192.552 162.836 158.443 128.727 158.443 86.6445C158.443 44.5685 192.552 10.4595 234.635 10.4595C266.12 10.4595 293.14 29.5565 304.744 56.7985H333.303Z" fill="white"/>
</mask>
<g mask="url(#mask9_5_1575)">
<path d="M282.801 57.8986C282.801 60.4366 282.614 62.9386 282.24 65.3686C280.78 74.9956 272.541 82.1286 262.806 82.1286H225.634C216.143 82.1286 207.86 75.3696 206.315 66.0016C205.876 63.3626 205.654 60.6596 205.654 57.8986C205.654 34.3016 222.22 20.1156 244.228 16.9736C266.228 20.1156 282.801 34.2936 282.801 57.8986Z" fill="#25292B"/>
</g>
<mask id="mask10_5_1575" style="mask-type:luminance" maskUnits="userSpaceOnUse" x="158" y="10" width="176" height="153">
<path d="M333.303 56.7985V94.4955H310.417C306.491 132.889 274.057 162.836 234.635 162.836C192.552 162.836 158.443 128.727 158.443 86.6445C158.443 44.5685 192.552 10.4595 234.635 10.4595C266.12 10.4595 293.14 29.5565 304.744 56.7985H333.303Z" fill="white"/>
</mask>
<g mask="url(#mask10_5_1575)">
<path d="M192.374 73.7704C187.028 73.7704 182.68 69.4214 182.68 64.0764V53.2824C182.68 47.9364 187.029 43.5884 192.374 43.5884C197.719 43.5884 202.068 47.9374 202.068 53.2824V64.0754C202.068 69.4214 197.72 73.7704 192.374 73.7704ZM192.374 44.5884C187.58 44.5884 183.68 48.4884 183.68 53.2824V64.0754C183.68 68.8694 187.58 72.7694 192.374 72.7694C197.168 72.7694 201.068 68.8694 201.068 64.0754V53.2824C201.068 48.4884 197.168 44.5884 192.374 44.5884Z" fill="#25292B"/>
</g>
<mask id="mask11_5_1575" style="mask-type:luminance" maskUnits="userSpaceOnUse" x="158" y="10" width="176" height="153">
<path d="M333.303 56.7985V94.4955H310.417C306.491 132.889 274.057 162.836 234.635 162.836C192.552 162.836 158.443 128.727 158.443 86.6445C158.443 44.5685 192.552 10.4595 234.635 10.4595C266.12 10.4595 293.14 29.5565 304.744 56.7985H333.303Z" fill="white"/>
</mask>
<g mask="url(#mask11_5_1575)">
<path d="M238.498 62.0116C242.951 62.0116 246.56 58.1935 246.56 53.4836C246.56 48.7737 242.951 44.9556 238.498 44.9556C234.045 44.9556 230.436 48.7737 230.436 53.4836C230.436 58.1935 234.045 62.0116 238.498 62.0116Z" fill="#FFBD29"/>
</g>
<mask id="mask12_5_1575" style="mask-type:luminance" maskUnits="userSpaceOnUse" x="158" y="10" width="176" height="153">
<path d="M333.303 56.7985V94.4955H310.417C306.491 132.889 274.057 162.836 234.635 162.836C192.552 162.836 158.443 128.727 158.443 86.6445C158.443 44.5685 192.552 10.4595 234.635 10.4595C266.12 10.4595 293.14 29.5565 304.744 56.7985H333.303Z" fill="white"/>
</mask>
<g mask="url(#mask12_5_1575)">
<path d="M270.745 62.0116C275.197 62.0116 278.807 58.1935 278.807 53.4836C278.807 48.7737 275.197 44.9556 270.745 44.9556C266.292 44.9556 262.683 48.7737 262.683 53.4836C262.683 58.1935 266.292 62.0116 270.745 62.0116Z" fill="#FFBD29"/>
</g>
<mask id="mask13_5_1575" style="mask-type:luminance" maskUnits="userSpaceOnUse" x="158" y="10" width="176" height="153">
<path d="M333.303 56.7985V94.4955H310.417C306.491 132.889 274.057 162.836 234.635 162.836C192.552 162.836 158.443 128.727 158.443 86.6445C158.443 44.5685 192.552 10.4595 234.635 10.4595C266.12 10.4595 293.14 29.5565 304.744 56.7985H333.303Z" fill="white"/>
</mask>
<g mask="url(#mask13_5_1575)">
<path d="M247.759 90.4775H226.173C225.897 90.4775 225.673 90.2535 225.673 89.9775V83.3145C225.673 83.0385 225.897 82.8145 226.173 82.8145H247.759C248.035 82.8145 248.259 83.0385 248.259 83.3145V89.9775C248.259 90.2535 248.035 90.4775 247.759 90.4775ZM226.672 89.4775H247.258V83.8145H226.672V89.4775Z" fill="#25292B"/>
</g>
<mask id="mask14_5_1575" style="mask-type:luminance" maskUnits="userSpaceOnUse" x="158" y="10" width="176" height="153">
<path d="M333.303 56.7985V94.4955H310.417C306.491 132.889 274.057 162.836 234.635 162.836C192.552 162.836 158.443 128.727 158.443 86.6445C158.443 44.5685 192.552 10.4595 234.635 10.4595C266.12 10.4595 293.14 29.5565 304.744 56.7985H333.303Z" fill="white"/>
</mask>
<g mask="url(#mask14_5_1575)">
<path d="M188.213 116.362C188.213 113.824 188.4 111.322 188.774 108.892C190.234 99.2653 198.473 92.1323 208.208 92.1323H264.57C274.061 92.1323 282.344 98.8913 283.889 108.259C284.328 110.898 284.55 113.601 284.55 116.362C284.55 143.288 262.98 157.956 236.377 157.956C233.091 157.956 229.884 157.733 226.786 157.287C204.786 154.145 188.213 139.967 188.213 116.362Z" fill="#F2E9DA"/>
</g>
<mask id="mask15_5_1575" style="mask-type:luminance" maskUnits="userSpaceOnUse" x="158" y="10" width="176" height="153">
<path d="M333.303 56.7985V94.4955H310.417C306.491 132.889 274.057 162.836 234.635 162.836C192.552 162.836 158.443 128.727 158.443 86.6445C158.443 44.5685 192.552 10.4595 234.635 10.4595C266.12 10.4595 293.14 29.5565 304.744 56.7985H333.303Z" fill="white"/>
</mask>
<g mask="url(#mask15_5_1575)">
<path d="M279.738 111.075C279.738 114.914 278.171 118.409 275.633 120.94C273.102 123.471 269.615 125.045 265.768 125.045H227.352C219.666 125.045 213.382 118.754 213.382 111.075C213.382 107.236 214.957 103.741 217.487 101.21C220.018 98.6795 223.512 97.1055 227.352 97.1055H265.768C273.454 97.1055 279.738 103.389 279.738 111.075Z" fill="#FFBD29"/>
</g>
<mask id="mask16_5_1575" style="mask-type:luminance" maskUnits="userSpaceOnUse" x="158" y="10" width="176" height="153">
<path d="M333.303 56.7985V94.4955H310.417C306.491 132.889 274.057 162.836 234.635 162.836C192.552 162.836 158.443 128.727 158.443 86.6445C158.443 44.5685 192.552 10.4595 234.635 10.4595C266.12 10.4595 293.14 29.5565 304.744 56.7985H333.303Z" fill="white"/>
</mask>
<g mask="url(#mask16_5_1575)">
<path d="M217.335 152.913C217.23 152.913 217.124 152.88 217.033 152.811C212.429 149.318 210.08 144.224 208.921 140.564C207.4 135.768 206.977 130.741 206.746 126.022C206.231 115.517 206.625 104.896 207.916 94.4533C207.95 94.1803 208.2 93.9853 208.474 94.0183C208.748 94.0523 208.943 94.3013 208.909 94.5763C207.625 104.962 207.234 115.525 207.746 125.973C207.974 130.624 208.389 135.575 209.875 140.262C210.991 143.783 213.244 148.679 217.639 152.013C217.859 152.18 217.902 152.493 217.735 152.714C217.635 152.844 217.486 152.913 217.335 152.913Z" fill="#25292B"/>
</g>
<mask id="mask17_5_1575" style="mask-type:luminance" maskUnits="userSpaceOnUse" x="158" y="10" width="176" height="153">
<path d="M333.303 56.7985V94.4955H310.417C306.491 132.889 274.057 162.836 234.635 162.836C192.552 162.836 158.443 128.727 158.443 86.6445C158.443 44.5685 192.552 10.4595 234.635 10.4595C266.12 10.4595 293.14 29.5565 304.744 56.7985H333.303Z" fill="white"/>
</mask>
<g mask="url(#mask17_5_1575)">
<path d="M194.48 128.871C189.151 128.871 184.816 124.536 184.816 119.208V105.428C184.816 100.1 189.151 95.7646 194.48 95.7646C199.808 95.7646 204.143 100.1 204.143 105.428V119.208C204.144 124.536 199.809 128.871 194.48 128.871ZM194.48 96.7636C189.703 96.7636 185.816 100.65 185.816 105.427V119.207C185.816 123.984 189.702 127.87 194.48 127.87C199.257 127.87 203.143 123.984 203.143 119.207V105.427C203.144 100.65 199.257 96.7636 194.48 96.7636Z" fill="#25292B"/>
</g>
<mask id="mask18_5_1575" style="mask-type:luminance" maskUnits="userSpaceOnUse" x="158" y="10" width="176" height="153">
<path d="M333.303 56.7985V94.4955H310.417C306.491 132.889 274.057 162.836 234.635 162.836C192.552 162.836 158.443 128.727 158.443 86.6445C158.443 44.5685 192.552 10.4595 234.635 10.4595C266.12 10.4595 293.14 29.5565 304.744 56.7985H333.303Z" fill="white"/>
</mask>
<g mask="url(#mask18_5_1575)">
<path d="M256.329 60.3125H249.726C249.726 60.3125 249.022 66.5755 255.989 66.5755C262.956 66.5755 262.155 60.3125 262.155 60.3125H256.329Z" fill="#F2E9DA"/>
</g>
<mask id="mask19_5_1575" style="mask-type:luminance" maskUnits="userSpaceOnUse" x="158" y="10" width="176" height="153">
<path d="M333.303 56.7985V94.4955H310.417C306.491 132.889 274.057 162.836 234.635 162.836C192.552 162.836 158.443 128.727 158.443 86.6445C158.443 44.5685 192.552 10.4595 234.635 10.4595C266.12 10.4595 293.14 29.5565 304.744 56.7985H333.303Z" fill="white"/>
</mask>
<g mask="url(#mask19_5_1575)">
<path d="M164.031 182.567C167.944 182.567 171.344 179.664 171.864 175.68C176.794 137.882 189.927 123.887 196.925 119.006C199.579 117.155 200.844 113.886 200.122 110.732C198.881 105.315 192.566 102.775 187.981 105.915C185.189 107.828 182.032 110.477 178.806 114.131C167.267 127.199 159.665 147.139 156.21 173.4C155.69 177.349 158.068 181.222 161.908 182.279C162.623 182.476 163.335 182.566 164.031 182.567Z" fill="#25292B"/>
</g>
<mask id="mask20_5_1575" style="mask-type:luminance" maskUnits="userSpaceOnUse" x="158" y="10" width="176" height="153">
<path d="M333.303 56.7985V94.4955H310.417C306.491 132.889 274.057 162.836 234.635 162.836C192.552 162.836 158.443 128.727 158.443 86.6445C158.443 44.5685 192.552 10.4595 234.635 10.4595C266.12 10.4595 293.14 29.5565 304.744 56.7985H333.303Z" fill="white"/>
</mask>
<g mask="url(#mask20_5_1575)">
<path d="M192.71 60.6233C192.434 60.6233 192.21 60.3993 192.21 60.1233V31.8623C192.21 31.5863 192.434 31.3623 192.71 31.3623C192.986 31.3623 193.21 31.5863 193.21 31.8623V60.1233C193.21 60.3993 192.987 60.6233 192.71 60.6233Z" fill="#25292B"/>
</g>
<mask id="mask21_5_1575" style="mask-type:luminance" maskUnits="userSpaceOnUse" x="158" y="10" width="176" height="153">
<path d="M333.303 56.7985V94.4955H310.417C306.491 132.889 274.057 162.836 234.635 162.836C192.552 162.836 158.443 128.727 158.443 86.6445C158.443 44.5685 192.552 10.4595 234.635 10.4595C266.12 10.4595 293.14 29.5565 304.744 56.7985H333.303Z" fill="white"/>
</mask>
<g mask="url(#mask21_5_1575)">
<path d="M192.716 65.9464C195.078 65.9464 196.992 63.1285 196.992 59.6524C196.992 56.1763 195.078 53.3584 192.716 53.3584C190.354 53.3584 188.44 56.1763 188.44 59.6524C188.44 63.1285 190.354 65.9464 192.716 65.9464Z" fill="#FFBD29"/>
</g>
<mask id="mask22_5_1575" style="mask-type:luminance" maskUnits="userSpaceOnUse" x="158" y="10" width="176" height="153">
<path d="M333.303 56.7985V94.4955H310.417C306.491 132.889 274.057 162.836 234.635 162.836C192.552 162.836 158.443 128.727 158.443 86.6445C158.443 44.5685 192.552 10.4595 234.635 10.4595C266.12 10.4595 293.14 29.5565 304.744 56.7985H333.303Z" fill="white"/>
</mask>
<g mask="url(#mask22_5_1575)">
<path d="M192.41 36.9235C195.059 36.9235 197.206 34.7763 197.206 32.1275C197.206 29.4788 195.059 27.3315 192.41 27.3315C189.761 27.3315 187.614 29.4788 187.614 32.1275C187.614 34.7763 189.761 36.9235 192.41 36.9235Z" fill="#25292B"/>
</g>
<mask id="mask23_5_1575" style="mask-type:luminance" maskUnits="userSpaceOnUse" x="158" y="10" width="176" height="153">
<path d="M333.303 56.7985V94.4955H310.417C306.491 132.889 274.057 162.836 234.635 162.836C192.552 162.836 158.443 128.727 158.443 86.6445C158.443 44.5685 192.552 10.4595 234.635 10.4595C266.12 10.4595 293.14 29.5565 304.744 56.7985H333.303Z" fill="white"/>
</mask>
<g mask="url(#mask23_5_1575)">
<path d="M245.884 123.947C244.96 123.947 244.205 123.191 244.205 122.268V100.557C244.205 99.6334 244.961 98.8784 245.884 98.8784C246.808 98.8784 247.563 99.6344 247.563 100.557V122.268C247.563 123.191 246.807 123.947 245.884 123.947Z" fill="#F2E9DA"/>
<path d="M240.738 117.933C239.814 117.933 239.059 117.177 239.059 116.254V106.572C239.059 105.648 239.815 104.893 240.738 104.893C241.662 104.893 242.417 105.649 242.417 106.572V116.254C242.418 117.177 241.662 117.933 240.738 117.933Z" fill="#F2E9DA"/>
<path d="M231.121 119.165C230.197 119.165 229.442 118.409 229.442 117.486V105.34C229.442 104.416 230.198 103.661 231.121 103.661C232.045 103.661 232.8 104.417 232.8 105.34V117.485C232.8 118.409 232.044 119.165 231.121 119.165Z" fill="#F2E9DA"/>
<path d="M235.766 115.661C234.842 115.661 234.087 114.905 234.087 113.982V108.844C234.087 107.92 234.843 107.165 235.766 107.165C236.69 107.165 237.445 107.921 237.445 108.844V113.982C237.446 114.905 236.69 115.661 235.766 115.661Z" fill="#F2E9DA"/>
<path d="M226.333 115.661C225.409 115.661 224.654 114.905 224.654 113.982V108.844C224.654 107.92 225.41 107.165 226.333 107.165C227.257 107.165 228.012 107.921 228.012 108.844V113.982C228.013 114.905 227.257 115.661 226.333 115.661Z" fill="#F2E9DA"/>
<path d="M251.008 104.892C251.932 104.892 252.687 105.648 252.687 106.571V116.253C252.687 117.177 251.931 117.932 251.008 117.932C250.084 117.932 249.329 117.176 249.329 116.253V106.571C249.329 105.648 250.085 104.892 251.008 104.892Z" fill="#F2E9DA"/>
<path d="M260.626 103.661C261.55 103.661 262.305 104.417 262.305 105.34V117.485C262.305 118.409 261.549 119.164 260.626 119.164C259.702 119.164 258.947 118.408 258.947 117.485V105.34C258.947 104.416 259.702 103.661 260.626 103.661Z" fill="#F2E9DA"/>
<path d="M255.98 107.164C256.904 107.164 257.659 107.92 257.659 108.843V113.981C257.659 114.905 256.903 115.66 255.98 115.66C255.056 115.66 254.301 114.904 254.301 113.981V108.843C254.301 107.92 255.057 107.164 255.98 107.164Z" fill="#F2E9DA"/>
<path d="M265.414 107.164C266.338 107.164 267.093 107.92 267.093 108.843V113.981C267.093 114.905 266.337 115.66 265.414 115.66C264.49 115.66 263.735 114.904 263.735 113.981V108.843C263.734 107.92 264.49 107.164 265.414 107.164Z" fill="#F2E9DA"/>
</g>
<path d="M549.316 363.763L525.597 386.788L524.341 398.027C524.341 398.027 505.306 415.557 517.594 428.215L566.138 381.091L549.316 363.763Z" fill="#FFBD29"/>
<path d="M538.537 357.124L522.73 379.605L528.297 384.168L547.085 365.929L538.537 357.124Z" fill="#F2E9DA"/>
<path d="M516.714 426.466C516.583 426.466 516.453 426.415 516.356 426.315C516.164 426.117 516.168 425.8 516.366 425.608L563.19 380.154C563.389 379.961 563.706 379.967 563.897 380.164C564.089 380.362 564.085 380.679 563.887 380.871L517.063 426.325C516.965 426.419 516.84 426.466 516.714 426.466Z" fill="#25292B"/>
<path d="M524.341 398.526C524.195 398.526 524.051 398.463 523.952 398.34C523.778 398.125 523.811 397.811 524.026 397.637C524.413 397.324 533.576 389.977 540.488 390.875C540.761 390.911 540.954 391.162 540.919 391.437C540.883 391.71 540.628 391.9 540.357 391.868C533.876 391.015 524.747 398.341 524.655 398.415C524.563 398.49 524.451 398.526 524.341 398.526Z" fill="#25292B"/>
<path d="M525.827 391.704C525.056 391.704 524.28 391.676 523.509 391.595C521.581 391.392 519.925 390.871 518.587 390.048C517.724 389.517 517.138 388.932 516.795 388.261C516.332 387.36 516.367 386.302 516.885 385.569C517.45 384.768 518.549 384.376 519.89 384.493C521.599 384.639 523.38 385.405 525.041 386.709C526.127 387.562 527.076 388.558 527.974 389.571C527.975 387.663 528.189 386.004 528.622 384.53C529.096 382.919 530.098 380.66 532.179 379.043C532.768 378.585 533.289 378.312 533.821 378.182C534.55 378.001 535.28 378.118 535.819 378.502C536.715 379.136 537.015 380.395 536.641 381.953C536.184 383.857 535.19 385.7 533.685 387.429C532.749 388.503 531.616 389.536 530.172 390.625C532.182 390.609 534.16 390.242 536 389.441C537.2 388.917 538.118 388.312 538.806 387.591C539.614 386.743 540.09 385.727 540.146 384.728C540.207 383.651 539.735 382.596 538.945 382.04C538.718 381.881 538.665 381.569 538.823 381.344C538.982 381.117 539.296 381.064 539.519 381.222C540.586 381.972 541.224 383.37 541.144 384.784C541.076 386.02 540.501 387.263 539.53 388.282C538.748 389.1 537.725 389.779 536.401 390.357C534.014 391.398 531.387 391.81 528.802 391.549C528.732 391.593 528.648 391.62 528.559 391.624C527.66 391.664 526.746 391.704 525.827 391.704ZM519.44 385.473C518.896 385.473 518.1 385.58 517.701 386.146C517.4 386.572 517.394 387.239 517.684 387.805C517.942 388.309 518.409 388.764 519.111 389.197C520.32 389.941 521.836 390.414 523.614 390.601C524.927 390.74 526.277 390.717 527.603 390.664C526.622 389.538 525.595 388.415 524.423 387.495C522.915 386.311 521.318 385.618 519.803 385.488C519.708 385.481 519.583 385.473 519.44 385.473ZM534.485 379.099C534.345 379.099 534.202 379.117 534.058 379.152C533.668 379.248 533.266 379.464 532.791 379.832C531.331 380.967 530.191 382.734 529.58 384.811C529.116 386.389 528.923 388.134 528.981 390.259C530.654 389.05 531.918 387.933 532.929 386.772C534.326 385.166 535.247 383.465 535.666 381.719C535.768 381.297 536.035 379.881 535.238 379.317C535.039 379.174 534.772 379.099 534.485 379.099Z" fill="#25292B"/>
<path d="M450.139 420.322H417.082L408.352 427.511C408.352 427.511 382.484 426.83 382.484 444.472H450.139V420.322Z" fill="#FFBD29"/>
<path d="M447.028 408.05L420.028 413.171L420.844 420.322H447.028V408.05Z" fill="#F2E9DA"/>
<path d="M448.677 442.745H383.419C383.143 442.745 382.919 442.521 382.919 442.245C382.919 441.969 383.143 441.745 383.419 441.745H448.677C448.953 441.745 449.177 441.969 449.177 442.245C449.177 442.521 448.953 442.745 448.677 442.745Z" fill="#25292B"/>
<path d="M424.526 434.439C424.379 434.439 424.233 434.374 424.134 434.25C420.077 429.129 408.423 428.021 408.306 428.01C408.031 427.985 407.828 427.742 407.853 427.467C407.878 427.192 408.123 426.991 408.396 427.014C408.892 427.059 420.595 428.171 424.917 433.629C425.089 433.846 425.053 434.16 424.836 434.331C424.745 434.403 424.636 434.439 424.526 434.439Z" fill="#25292B"/>
<path d="M425.767 431.104C424.712 431.104 423.59 430.875 422.347 430.408C419.877 429.481 417.681 427.918 415.994 425.887C415.963 425.849 415.937 425.808 415.919 425.764C415.918 425.763 415.918 425.761 415.917 425.76L415.833 425.853C414.599 424.755 413.321 423.621 412.235 422.319C410.993 420.83 410.167 419.302 409.78 417.78C409.531 416.801 409.518 415.973 409.738 415.252C410.036 414.28 410.798 413.546 411.679 413.381C412.641 413.195 413.7 413.682 414.584 414.7C415.709 415.998 416.454 417.789 416.736 419.88C416.922 421.244 416.909 422.62 416.847 423.975C418.18 422.598 419.464 421.579 420.823 420.811C422.285 419.985 424.58 419.061 427.197 419.351C427.937 419.433 428.503 419.6 428.975 419.876C429.622 420.255 430.065 420.846 430.186 421.496C430.387 422.576 429.726 423.687 428.372 424.546C426.716 425.596 424.719 426.226 422.437 426.416C421.014 426.534 419.483 426.487 417.691 426.263C419.111 427.67 420.82 428.769 422.697 429.474C423.921 429.933 424.995 430.134 425.999 430.101C427.169 430.056 428.219 429.658 428.954 428.98C429.748 428.249 430.143 427.163 429.964 426.213C429.912 425.942 430.091 425.681 430.362 425.629C430.627 425.58 430.894 425.755 430.946 426.027C431.189 427.307 430.674 428.755 429.632 429.715C428.722 430.554 427.444 431.046 426.037 431.101C425.948 431.102 425.857 431.104 425.767 431.104ZM417.093 425.171C419.132 425.469 420.818 425.547 422.355 425.418C424.475 425.24 426.32 424.662 427.838 423.7C428.203 423.468 429.383 422.637 429.205 421.678C429.138 421.319 428.863 420.967 428.472 420.738C428.124 420.534 427.685 420.409 427.089 420.343C425.251 420.134 423.202 420.614 421.317 421.68C419.885 422.487 418.531 423.606 417.093 425.171ZM412.092 414.341C412.017 414.341 411.941 414.347 411.863 414.362C411.351 414.459 410.882 414.932 410.695 415.543C410.529 416.085 410.547 416.736 410.749 417.533C411.1 418.909 411.857 420.304 413.003 421.678C413.849 422.691 414.832 423.615 415.82 424.501C415.901 423.009 415.947 421.486 415.747 420.014C415.49 418.116 414.827 416.505 413.829 415.356C413.551 415.033 412.86 414.341 412.092 414.341Z" fill="#25292B"/>
<path d="M541.631 357.727L522.278 382.58C517.207 378.335 472.31 340.215 458.152 308.762C452.878 297.049 449.255 280.223 446.772 263.44C444.326 246.879 442.995 230.354 442.293 218.826C445.035 219.042 447.937 219.159 450.98 219.134C459.661 219.091 469.507 217.97 480.234 215.012C481.466 214.673 482.711 214.31 483.968 213.921C484.59 213.73 485.219 213.527 485.847 213.323C488.028 212.608 490.24 211.82 492.489 210.945C493.493 214.001 494.337 217.223 494.849 220.47C497.19 235.393 496.352 291.565 496.352 291.565C504.065 308.688 525.303 344.055 541.631 357.727Z" fill="#25292B"/>
<path d="M450.139 407.46L415.319 414.063C401.197 339.586 402.966 276.008 406.669 236.914V236.896C407.655 227.001 409.288 218.258 411.117 210.834C411.16 210.859 411.394 210.988 411.813 211.198C413.199 211.882 416.625 213.447 421.757 215.012C426.957 216.595 433.907 218.173 442.293 218.826C442.995 230.354 445.6 254.871 448.047 271.432C446.333 304.438 439.048 348.953 450.139 407.46Z" fill="#25292B"/>
<path d="M448.045 271.932C447.799 271.932 447.584 271.749 447.551 271.498L441.842 228.942L419.523 223.711C419.254 223.648 419.087 223.379 419.151 223.11C419.214 222.842 419.481 222.674 419.752 222.737L442.743 228.125L442.788 228.467L448.542 271.364C448.579 271.637 448.387 271.889 448.113 271.926C448.09 271.931 448.067 271.932 448.045 271.932Z" fill="#F6EFE0"/>
<path d="M529.769 369.235C529.624 369.235 529.48 369.172 529.381 369.051C527.518 366.766 483.703 312.9 479.612 296.197C475.538 279.561 471.895 222.191 471.859 221.614C471.841 221.339 472.051 221.101 472.327 221.084C472.622 221.077 472.841 221.277 472.857 221.552C472.893 222.129 476.53 279.41 480.583 295.96C484.621 312.445 529.701 367.862 530.156 368.42C530.33 368.635 530.299 368.949 530.085 369.124C529.992 369.198 529.88 369.235 529.769 369.235Z" fill="#F6EFE0"/>
<path d="M456.035 198.004C456.275 206.772 456.663 213.629 457.089 218.921C454.994 219.057 452.955 219.124 450.977 219.131C447.933 219.156 445.031 219.039 442.29 218.823C434.059 218.182 427.207 216.648 422.038 215.095C425.784 182.157 438.248 109.737 438.544 108.025C438.544 108.019 438.544 108.019 438.544 108.013L438.55 108.001L463.38 107.995C463.38 107.995 455.259 169.613 456.035 198.004Z" fill="#F2E9DA"/>
<path d="M483.089 191.11C483.089 191.11 488.85 199.945 492.485 210.943C492.485 210.943 496.034 219.138 500.088 232.6C500.088 232.6 491.924 247.405 485.018 248.397C478.105 249.383 459.159 234.774 459.159 234.774C459.159 234.774 458.038 230.769 457.089 218.921C456.664 213.628 456.276 206.771 456.035 198.004C455.259 169.613 463.379 107.994 463.379 107.994H470.933C482.227 107.994 492.14 115.523 495.171 126.41L505.602 165.472C509.194 178.368 499.656 190.752 486.933 191.306C485.683 191.356 484.395 191.295 483.089 191.11Z" fill="#FFBD29"/>
<path d="M484.592 231.773C484.47 231.773 484.348 231.729 484.252 231.64C475.607 223.627 469.224 213.432 465.791 202.156C465.711 201.892 465.859 201.613 466.124 201.532C466.392 201.451 466.668 201.601 466.748 201.865C470.129 212.972 476.417 223.014 484.932 230.906C485.134 231.094 485.147 231.411 484.959 231.613C484.86 231.719 484.726 231.773 484.592 231.773Z" fill="#25292B"/>
<path d="M438.549 108.001L438.543 108.013C438.543 108.019 438.543 108.019 438.543 108.025C438.247 109.738 425.783 182.157 422.037 215.095C421.322 221.349 420.928 226.179 420.983 228.835C420.983 228.835 413.109 244.121 405.543 242.193C401.353 241.127 406.634 222.834 412.179 206.716C412.179 206.704 412.185 206.698 412.185 206.691C413.257 202.729 414.372 199.211 415.426 196.161C418.445 187.492 421.045 182.606 421.292 182.156C421.298 182.137 421.304 182.125 421.304 182.125L419.468 168.318H393.905L411.36 123.951C415.143 114.327 424.434 108 434.773 108H438.549V108.001Z" fill="#FFBD29"/>
<path d="M515.863 84.6376C514.594 91.2486 509.123 96.4176 502.869 98.4446C495.734 100.762 487.743 99.4986 481.132 96.1706C478.353 94.7716 475.778 92.9916 473.492 90.8966C471.49 89.3506 469.641 87.5946 468.002 85.6476C465.704 82.9116 463.819 79.8316 462.414 76.5476C460.88 72.9496 459.783 68.9876 459.869 65.0506C459.949 61.5946 461.089 58.0516 463.59 55.5686C465.987 53.1906 469.579 52.0566 472.863 53.0916C476.011 54.0836 477.681 56.9606 479.351 59.5856C480.244 60.9906 481.206 62.3586 482.518 63.4116C483.861 64.4896 485.457 65.2296 487.108 65.7156C493.953 67.7426 501.513 65.7466 508.13 68.7716C514.076 71.4896 517.076 78.3346 515.863 84.6376Z" fill="#25292B"/>
<path d="M470.959 72.4494C470.959 84.6834 461.041 94.6014 448.807 94.6014C436.573 94.6014 423.07 77.0164 423.07 64.7824C423.07 52.5484 436.572 50.2974 448.807 50.2974C461.041 50.2974 470.959 60.2144 470.959 72.4494Z" fill="#25292B"/>
<path d="M470.72 83.2782C469.42 87.3692 466.678 89.8092 462.858 89.0702L463.382 107.997L459.309 111.416C452.803 116.881 442.957 115.261 438.546 108.003L439.778 101.306L436.771 98.8972C431.75 94.8682 428.829 88.7932 428.829 82.3542V72.0342C438.675 74.4552 445.335 71.7752 449.247 69.0092C452.211 66.9202 453.597 64.7822 453.597 64.7822L455.322 67.7952L459.413 74.9422V74.9912L459.431 74.9722C460.768 73.6602 462.481 72.8402 464.274 72.6802C465.204 72.5942 466.153 72.6922 467.084 72.9882C471.139 74.2762 472.113 78.8972 470.72 83.2782Z" fill="#F2E9DA"/>
<path d="M444.125 103.438C442.555 103.438 440.984 102.913 439.672 101.862L439.464 101.693C439.249 101.519 439.217 101.204 439.392 100.989C439.567 100.775 439.882 100.744 440.095 100.917L440.3 101.084C442.553 102.888 445.698 102.888 447.947 101.082L451.94 97.8816C452.155 97.7106 452.469 97.7436 452.643 97.9596C452.815 98.1746 452.781 98.4896 452.565 98.6626L448.573 101.862C447.265 102.912 445.695 103.438 444.125 103.438Z" fill="#25292B"/>
<path d="M464.235 87.5134C463.986 87.5134 463.77 87.3264 463.74 87.0734C463.707 86.7994 463.902 86.5504 464.177 86.5174C465.656 86.3394 466.984 85.1014 467.264 83.6394C467.407 82.8944 467.289 82.1334 466.943 81.5514C466.578 80.9374 465.946 80.5194 465.296 80.4614C464.626 80.3954 463.954 80.7384 463.654 81.2854C463.54 81.4934 463.294 81.5914 463.07 81.5234C462.843 81.4544 462.696 81.2354 462.717 81.0004C462.86 79.4214 463.105 77.7654 463.925 76.3534C464.334 75.6494 464.829 75.1184 465.397 74.7744C466.116 74.3394 466.941 74.2204 467.66 74.4484C468.498 74.7144 469.118 75.4724 469.168 76.2924C469.185 76.5674 468.975 76.8054 468.699 76.8214C468.427 76.8364 468.186 76.6284 468.17 76.3524C468.145 75.9424 467.804 75.5414 467.357 75.4004C466.921 75.2614 466.38 75.3464 465.915 75.6294C465.493 75.8854 465.114 76.2974 464.791 76.8554C464.286 77.7244 464.025 78.7324 463.869 79.7604C464.325 79.5264 464.854 79.4154 465.386 79.4654C466.35 79.5524 467.276 80.1554 467.803 81.0404C468.274 81.8294 468.436 82.8454 468.247 83.8284C467.882 85.7304 466.221 87.2794 464.297 87.5114C464.275 87.5124 464.256 87.5134 464.235 87.5134Z" fill="#25292B"/>
<path d="M432.875 81.8683C434.03 81.8683 434.967 80.8318 434.967 79.5533C434.967 78.2747 434.03 77.2383 432.875 77.2383C431.72 77.2383 430.783 78.2747 430.783 79.5533C430.783 80.8318 431.72 81.8683 432.875 81.8683Z" fill="#25292B"/>
<path d="M445.595 81.8683C446.75 81.8683 447.687 80.8318 447.687 79.5533C447.687 78.2747 446.75 77.2383 445.595 77.2383C444.44 77.2383 443.503 78.2747 443.503 79.5533C443.503 80.8318 444.44 81.8683 445.595 81.8683Z" fill="#25292B"/>
<path d="M434.61 74.1444C433.02 73.6394 431.231 73.9214 429.937 75.0044C429.68 75.2194 429.569 75.6164 429.795 75.9014C429.999 76.1584 430.417 76.2734 430.692 76.0434C430.819 75.9374 430.951 75.8364 431.09 75.7464C431.158 75.7024 431.227 75.6604 431.297 75.6194C431.305 75.6154 431.313 75.6104 431.321 75.6064C431.358 75.5874 431.395 75.5694 431.432 75.5514C431.581 75.4804 431.735 75.4174 431.892 75.3634C431.97 75.3364 432.05 75.3124 432.129 75.2894C432.143 75.2854 432.157 75.2814 432.167 75.2784C432.211 75.2684 432.255 75.2584 432.3 75.2494C432.463 75.2174 432.627 75.1944 432.792 75.1814C432.875 75.1744 432.957 75.1704 433.04 75.1684C433.081 75.1674 433.123 75.1674 433.164 75.1674C433.166 75.1674 433.166 75.1674 433.166 75.1674C433.171 75.1674 433.168 75.1674 433.178 75.1684C433.343 75.1784 433.508 75.1944 433.671 75.2214C433.753 75.2354 433.834 75.2514 433.914 75.2704C433.954 75.2794 433.994 75.2904 434.035 75.3004C434.046 75.3034 434.051 75.3044 434.056 75.3054C434.064 75.3084 434.068 75.3094 434.079 75.3124C434.398 75.4134 434.79 75.3414 434.929 74.9934C435.046 74.7034 434.952 74.2534 434.61 74.1444Z" fill="#25292B"/>
<path d="M443.55 74.9946C443.689 75.3426 444.082 75.4156 444.4 75.3136C444.41 75.3106 444.415 75.3086 444.423 75.3066C444.428 75.3056 444.433 75.3046 444.444 75.3016C444.484 75.2916 444.524 75.2806 444.565 75.2716C444.646 75.2526 444.727 75.2366 444.808 75.2226C444.972 75.1946 445.136 75.1796 445.301 75.1696C445.311 75.1686 445.308 75.1686 445.313 75.1686C445.315 75.1686 445.313 75.1686 445.315 75.1686C445.356 75.1686 445.398 75.1686 445.439 75.1696C445.522 75.1716 445.605 75.1756 445.687 75.1826C445.852 75.1956 446.017 75.2186 446.179 75.2506C446.223 75.2596 446.268 75.2686 446.312 75.2796C446.322 75.2826 446.336 75.2856 446.35 75.2906C446.43 75.3136 446.509 75.3376 446.587 75.3646C446.744 75.4186 446.897 75.4806 447.047 75.5526C447.084 75.5706 447.121 75.5886 447.158 75.6076C447.166 75.6116 447.174 75.6166 447.182 75.6206C447.252 75.6616 447.321 75.7036 447.389 75.7476C447.528 75.8386 447.66 75.9386 447.787 76.0446C448.062 76.2746 448.48 76.1596 448.684 75.9026C448.91 75.6186 448.799 75.2216 448.542 75.0056C447.248 73.9216 445.459 73.6396 443.869 74.1456C443.527 74.2536 443.433 74.7036 443.55 74.9946Z" fill="#25292B"/>
<path d="M434.977 89.5182C434.847 89.5182 434.721 89.4682 434.627 89.3752C434.507 89.2572 434.454 89.0872 434.485 88.9222L436.539 78.3912C436.592 78.1192 436.855 77.9432 437.126 77.9962C437.397 78.0492 437.574 78.3112 437.522 78.5822L435.613 88.3692L440.674 87.2792C440.947 87.2222 441.21 87.3922 441.269 87.6622C441.327 87.9322 441.155 88.1982 440.885 88.2562L435.083 89.5062C435.047 89.5142 435.012 89.5182 434.977 89.5182Z" fill="#25292B"/>
<path d="M441.933 92.5012C441.727 92.5012 441.535 92.3732 441.462 92.1682C441.369 91.9082 441.505 91.6222 441.766 91.5292C443.809 90.8032 445.316 88.7842 445.432 86.6192C445.446 86.3442 445.694 86.1322 445.957 86.1462C446.233 86.1612 446.444 86.3962 446.43 86.6722C446.293 89.2292 444.513 91.6132 442.1 92.4712C442.045 92.4912 441.988 92.5012 441.933 92.5012Z" fill="#25292B"/>
<path d="M450.074 115.162C441.601 115.162 438.131 108.293 438.096 108.224C437.975 107.976 438.076 107.678 438.325 107.556C438.574 107.435 438.872 107.536 438.994 107.783C439.123 108.044 442.239 114.163 450.074 114.163C457.976 114.163 462.931 107.759 462.98 107.694C463.148 107.473 463.462 107.432 463.68 107.598C463.9 107.765 463.944 108.078 463.777 108.298C463.565 108.577 458.484 115.162 450.074 115.162Z" fill="#25292B"/>
<path d="M436.107 190.717L437.459 208.508L423.533 198.888C414.119 202.982 403.262 203.909 392.65 200.748C368.748 193.627 355.143 168.478 362.264 144.576C369.385 120.674 394.534 107.069 418.436 114.19C442.338 121.311 455.943 146.46 448.822 170.362C446.41 178.46 441.923 185.383 436.107 190.717Z" fill="#FFA727"/>
<path d="M437.459 209.007C437.359 209.007 437.26 208.977 437.175 208.919L423.477 199.456C421.307 200.384 419.052 201.148 416.772 201.728C416.501 201.798 416.232 201.634 416.165 201.367C416.097 201.099 416.259 200.827 416.526 200.759C418.843 200.169 421.134 199.384 423.335 198.428C423.492 198.359 423.676 198.376 423.818 198.475L436.881 207.5L435.609 190.754C435.598 190.601 435.657 190.451 435.77 190.347C441.691 184.916 446.039 177.955 448.344 170.217C454.601 149.213 444.384 126.362 424.579 117.062C424.329 116.945 424.222 116.647 424.34 116.397C424.457 116.147 424.753 116.039 425.005 116.157C445.253 125.665 455.699 149.029 449.303 170.503C446.969 178.336 442.587 185.391 436.624 190.92L437.958 208.469C437.972 208.661 437.875 208.845 437.708 208.941C437.631 208.985 437.545 209.007 437.459 209.007Z" fill="#25292B"/>
<path d="M359.332 143.542C359.282 143.542 359.232 143.535 359.183 143.519C358.919 143.436 358.773 143.156 358.855 142.892C362.546 131.134 370.79 120.864 381.472 114.717C381.708 114.58 382.016 114.661 382.155 114.901C382.293 115.14 382.21 115.446 381.97 115.584C371.503 121.607 363.426 131.67 359.809 143.192C359.742 143.405 359.545 143.542 359.332 143.542Z" fill="#25292B"/>
<path d="M356.388 142.672C356.355 142.672 356.321 142.669 356.286 142.662C356.015 142.607 355.842 142.343 355.896 142.072C356.647 138.403 358.136 134.811 360.202 131.685C360.353 131.454 360.664 131.391 360.894 131.544C361.124 131.696 361.188 132.006 361.036 132.237C359.04 135.257 357.601 138.727 356.877 142.272C356.828 142.509 356.62 142.672 356.388 142.672Z" fill="#25292B"/>
<path d="M373.211 162.063C369.757 162.063 366.946 159.252 366.946 155.798C366.946 152.343 369.757 149.533 373.211 149.533C376.666 149.533 379.477 152.344 379.477 155.798C379.477 159.252 376.666 162.063 373.211 162.063ZM373.211 150.533C370.308 150.533 367.946 152.895 367.946 155.798C367.946 158.701 370.307 161.063 373.211 161.063C376.115 161.063 378.477 158.701 378.477 155.798C378.477 152.895 376.114 150.533 373.211 150.533Z" fill="#25292B"/>
<path d="M394.733 162.063C391.279 162.063 388.468 159.252 388.468 155.798C388.468 152.343 391.279 149.533 394.733 149.533C398.188 149.533 400.999 152.344 400.999 155.798C400.999 159.252 398.188 162.063 394.733 162.063ZM394.733 150.533C391.83 150.533 389.468 152.895 389.468 155.798C389.468 158.701 391.829 161.063 394.733 161.063C397.637 161.063 399.999 158.701 399.999 155.798C399.999 152.895 397.637 150.533 394.733 150.533Z" fill="#25292B"/>
<path d="M415.22 162.063C411.766 162.063 408.955 159.252 408.955 155.798C408.955 152.343 411.766 149.533 415.22 149.533C418.674 149.533 421.485 152.344 421.485 155.798C421.484 159.252 418.674 162.063 415.22 162.063ZM415.22 150.533C412.317 150.533 409.955 152.895 409.955 155.798C409.955 158.701 412.316 161.063 415.22 161.063C418.124 161.063 420.485 158.701 420.485 155.798C420.484 152.895 418.123 150.533 415.22 150.533Z" fill="#25292B"/>
<path d="M360.05 146.292C360.766 146.383 361.382 146.758 361.792 147.291C362.202 147.825 362.414 148.511 362.322 149.228L361.54 155.361C361.357 156.793 360.037 157.815 358.604 157.633C357.892 157.542 357.276 157.168 356.866 156.634C356.453 156.1 356.244 155.414 356.336 154.697L357.118 148.564C357.301 147.131 358.622 146.11 360.05 146.292Z" fill="#F2E9DA"/>
<path d="M368.055 168.448C368.243 169.031 368.178 169.639 367.917 170.146C367.655 170.653 367.204 171.064 366.621 171.252L361.63 172.866C360.464 173.243 359.203 172.598 358.826 171.432C358.639 170.852 358.704 170.244 358.965 169.737C359.226 169.227 359.678 168.819 360.26 168.631L365.251 167.017C366.417 166.64 367.679 167.285 368.055 168.448Z" fill="#F2E9DA"/>
<path d="M367.32 163.559C367.541 164.242 367.464 164.959 367.156 165.557C366.849 166.158 366.316 166.639 365.629 166.861L359.747 168.763C358.373 169.207 356.886 168.447 356.443 167.076C356.221 166.389 356.299 165.676 356.606 165.075C356.915 164.477 357.447 163.997 358.134 163.775L364.016 161.873C365.39 161.428 366.876 162.185 367.32 163.559Z" fill="#F2E9DA"/>
<path d="M365.706 158.567C365.928 159.254 365.85 159.967 365.543 160.568C365.236 161.169 364.703 161.65 364.016 161.872L358.134 163.774C356.76 164.218 355.273 163.458 354.829 162.084C354.607 161.397 354.685 160.684 354.993 160.086C355.302 159.488 355.833 159.004 356.52 158.782L362.402 156.88C363.776 156.436 365.263 157.197 365.706 158.567Z" fill="#F2E9DA"/>
<path d="M364.028 153.599C364.25 154.286 364.129 155.013 363.75 155.633C363.371 156.254 362.743 156.769 361.95 157.025L356.908 158.655C355.321 159.168 353.66 158.464 353.217 157.094C352.995 156.407 353.116 155.68 353.494 155.056C353.872 154.432 354.501 153.92 355.294 153.664L360.336 152.034C361.923 151.521 363.584 152.225 364.028 153.599Z" fill="#F2E9DA"/>
<path d="M356.519 153.77C356.303 153.77 356.105 153.63 356.04 153.413C355.962 153.148 356.112 152.87 356.377 152.791L361.739 151.194C362.007 151.114 362.281 151.266 362.361 151.53C362.439 151.795 362.289 152.073 362.024 152.152L356.662 153.749C356.613 153.763 356.565 153.77 356.519 153.77Z" fill="#25292B"/>
<path d="M356.52 159.282C356.309 159.282 356.113 159.147 356.044 158.936C355.959 158.673 356.103 158.392 356.366 158.307L362.249 156.405C362.511 156.32 362.793 156.465 362.878 156.727C362.963 156.99 362.819 157.271 362.556 157.356L356.673 159.258C356.622 159.274 356.57 159.282 356.52 159.282Z" fill="#25292B"/>
<path d="M358.134 164.274C357.923 164.274 357.727 164.138 357.658 163.927C357.573 163.664 357.717 163.384 357.979 163.299L363.861 161.397C364.129 161.313 364.406 161.456 364.491 161.718C364.576 161.981 364.432 162.262 364.17 162.347L358.288 164.25C358.236 164.266 358.185 164.274 358.134 164.274Z" fill="#25292B"/>
<path d="M359.329 169.357C359.118 169.357 358.923 169.223 358.853 169.012C358.768 168.75 358.911 168.468 359.173 168.382L365.967 166.167C366.235 166.082 366.512 166.225 366.598 166.488C366.683 166.75 366.54 167.032 366.278 167.118L359.484 169.333C359.433 169.349 359.38 169.357 359.329 169.357Z" fill="#25292B"/>
<path d="M475.431 162.258L442.265 157.119L436.639 184.475L472.474 189.595L475.431 162.258Z" fill="#FFBD29"/>
<path d="M441.476 160.944L437.459 180.494C436.831 180.574 436.19 180.599 435.537 180.556L411.274 179.003C409.808 178.911 408.686 177.635 408.779 176.169C408.822 175.436 409.167 174.789 409.685 174.339C409.858 174.185 410.049 174.049 410.264 173.951L408.063 173.767C406.597 173.675 405.475 172.399 405.568 170.933C405.617 170.206 405.962 169.559 406.474 169.103C406.985 168.653 407.307 168.412 408.04 168.456C406.58 168.364 405.452 167.094 405.551 165.628C405.594 164.895 405.939 164.248 406.451 163.792C406.962 163.342 407.646 163.083 408.386 163.133C406.92 163.041 405.798 161.765 405.891 160.299C405.934 159.566 406.279 158.919 406.797 158.469C407.302 158.013 407.992 157.754 408.725 157.804L427.751 159.018L422.526 154.853C421.047 153.676 420.807 151.507 421.984 150.035C422.711 149.123 423.808 148.68 424.892 148.753C425.57 148.796 426.235 149.036 426.802 149.486L432.797 154.267L432.84 154.304L441.476 160.944Z" fill="#F2E9DA"/>
<path d="M483.09 191.611C483.067 191.611 483.042 191.61 483.019 191.606L436.57 184.97C436.433 184.95 436.31 184.875 436.231 184.762C436.152 184.649 436.123 184.509 436.151 184.374L441.776 157.018C441.83 156.756 442.091 156.587 442.341 156.625L474.752 161.646L467.751 135.152C467.681 134.885 467.84 134.611 468.106 134.541C468.377 134.472 468.647 134.63 468.717 134.896L475.913 162.129C475.956 162.292 475.914 162.466 475.801 162.591C475.69 162.716 475.519 162.776 475.354 162.751L442.658 157.685L437.236 184.054L483.159 190.615C483.432 190.654 483.623 190.907 483.584 191.181C483.548 191.431 483.334 191.611 483.09 191.611Z" fill="#25292B"/>
<path d="M420.622 164.375C420.612 164.375 420.601 164.375 420.59 164.374L408.092 163.577C407.817 163.559 407.608 163.322 407.625 163.046C407.643 162.772 407.828 162.568 408.156 162.579L420.654 163.376C420.929 163.394 421.138 163.631 421.121 163.907C421.104 164.171 420.884 164.375 420.622 164.375Z" fill="#25292B"/>
<path d="M420.276 169.791C420.266 169.791 420.255 169.791 420.244 169.79L407.746 168.993C407.471 168.975 407.262 168.738 407.279 168.462C407.297 168.188 407.489 167.984 407.81 167.995L420.308 168.792C420.583 168.81 420.792 169.047 420.775 169.323C420.759 169.587 420.538 169.791 420.276 169.791Z" fill="#25292B"/>
<path d="M420.529 175.066C420.519 175.066 420.508 175.066 420.497 175.065L410.195 174.408C409.92 174.39 409.711 174.153 409.728 173.877C409.746 173.603 409.932 173.4 410.259 173.41L420.561 174.067C420.836 174.085 421.045 174.322 421.028 174.598C421.012 174.863 420.791 175.066 420.529 175.066Z" fill="#25292B"/>
<path d="M519.502 300.059C519.323 300.059 519.158 299.963 519.069 299.809L514.352 291.643C514.262 291.489 514.262 291.297 514.352 291.143L519.069 282.979C519.158 282.825 519.323 282.729 519.502 282.729C519.681 282.729 519.846 282.824 519.935 282.978L524.663 291.142C524.753 291.297 524.753 291.49 524.663 291.645L519.935 299.81C519.846 299.964 519.681 300.059 519.502 300.059ZM515.362 291.393L519.503 298.56L523.651 291.393L519.503 284.228L515.362 291.393Z" fill="#25292B"/>
<path d="M506.386 290.276C504.816 290.276 503.537 288.998 503.537 287.427C503.537 285.856 504.815 284.579 506.386 284.579C507.957 284.579 509.234 285.856 509.234 287.427C509.234 288.998 507.956 290.276 506.386 290.276ZM506.386 285.58C505.366 285.58 504.537 286.409 504.537 287.428C504.537 288.448 505.366 289.277 506.386 289.277C507.405 289.277 508.234 288.448 508.234 287.428C508.233 286.409 507.404 285.58 506.386 285.58Z" fill="#25292B"/>
<path d="M514.785 279.8C513.413 279.8 512.297 278.684 512.297 277.312C512.297 275.941 513.413 274.825 514.785 274.825C516.157 274.825 517.273 275.941 517.273 277.312C517.273 278.684 516.157 279.8 514.785 279.8ZM514.785 275.824C513.965 275.824 513.297 276.491 513.297 277.311C513.297 278.131 513.965 278.799 514.785 278.799C515.605 278.799 516.273 278.131 516.273 277.311C516.273 276.491 515.605 275.824 514.785 275.824Z" fill="#25292B"/>
<path d="M504.037 280.945C503.021 280.945 502.195 280.119 502.195 279.103C502.195 278.087 503.021 277.26 504.037 277.26C505.053 277.26 505.879 278.087 505.879 279.103C505.879 280.119 505.053 280.945 504.037 280.945ZM504.037 278.261C503.573 278.261 503.195 278.639 503.195 279.104C503.195 279.568 503.573 279.946 504.037 279.946C504.501 279.946 504.879 279.568 504.879 279.104C504.879 278.639 504.501 278.261 504.037 278.261Z" fill="#25292B"/>
<path d="M417.662 50.7967C417.483 50.7967 417.318 50.7017 417.229 50.5467L413.621 44.2997C413.531 44.1447 413.531 43.9547 413.621 43.7997L417.229 37.5527C417.318 37.3977 417.483 37.3027 417.662 37.3027C417.841 37.3027 418.006 37.3977 418.095 37.5527L421.712 43.7997C421.802 43.9547 421.802 44.1457 421.712 44.3007L418.095 50.5477C418.006 50.7017 417.841 50.7967 417.662 50.7967ZM414.631 44.0497L417.663 49.2987L420.701 44.0497L417.663 38.8007L414.631 44.0497Z" fill="#25292B"/>
<path d="M409.124 41.4187C407.554 41.4187 406.275 40.1407 406.275 38.5707C406.275 36.9997 407.553 35.7217 409.124 35.7217C410.695 35.7217 411.972 36.9997 411.972 38.5707C411.972 40.1407 410.694 41.4187 409.124 41.4187ZM409.124 36.7217C408.104 36.7217 407.275 37.5507 407.275 38.5707C407.275 39.5897 408.104 40.4187 409.124 40.4187C410.143 40.4187 410.972 39.5897 410.972 38.5707C410.972 37.5507 410.143 36.7217 409.124 36.7217Z" fill="#25292B"/>
<path d="M417.523 34.3735C416.151 34.3735 415.035 33.2575 415.035 31.8855C415.035 30.5135 416.151 29.3975 417.523 29.3975C418.895 29.3975 420.011 30.5135 420.011 31.8855C420.012 33.2575 418.896 34.3735 417.523 34.3735ZM417.523 30.3975C416.703 30.3975 416.035 31.0645 416.035 31.8855C416.035 32.7065 416.703 33.3735 417.523 33.3735C418.343 33.3735 419.011 32.7065 419.011 31.8855C419.012 31.0655 418.344 30.3975 417.523 30.3975Z" fill="#25292B"/>
<path d="M409.124 31.7397C408.108 31.7397 407.282 30.9137 407.282 29.8977C407.282 28.8817 408.108 28.0557 409.124 28.0557C410.14 28.0557 410.966 28.8827 410.966 29.8977C410.966 30.9127 410.14 31.7397 409.124 31.7397ZM409.124 29.0557C408.66 29.0557 408.282 29.4337 408.282 29.8977C408.282 30.3617 408.66 30.7397 409.124 30.7397C409.588 30.7397 409.966 30.3627 409.966 29.8977C409.966 29.4327 409.588 29.0557 409.124 29.0557Z" fill="#25292B"/>
<path d="M93.241 277.654C93.062 277.654 92.897 277.558 92.808 277.404L88.091 269.239C88.002 269.085 88.002 268.893 88.091 268.739L92.808 260.575C92.897 260.421 93.062 260.325 93.241 260.325C93.419 260.325 93.584 260.42 93.674 260.574L98.401 268.738C98.491 268.893 98.491 269.085 98.401 269.24L93.674 277.405C93.584 277.56 93.419 277.654 93.241 277.654ZM89.102 268.989L93.242 276.155L97.391 268.989L93.242 261.824L89.102 268.989Z" fill="#25292B"/>
<path d="M112.833 272.432C111.262 272.432 109.984 271.155 109.984 269.584C109.984 268.013 111.262 266.735 112.833 266.735C114.403 266.735 115.681 268.013 115.681 269.584C115.681 271.155 114.403 272.432 112.833 272.432ZM112.833 267.735C111.813 267.735 110.984 268.564 110.984 269.584C110.984 270.603 111.813 271.432 112.833 271.432C113.852 271.432 114.681 270.603 114.681 269.584C114.681 268.565 113.852 267.735 112.833 267.735Z" fill="#25292B"/>
<path d="M88.781 257.396C87.409 257.396 86.293 256.28 86.293 254.909C86.293 253.537 87.409 252.421 88.781 252.421C90.153 252.421 91.269 253.537 91.269 254.909C91.27 256.279 90.153 257.396 88.781 257.396ZM88.781 253.42C87.961 253.42 87.293 254.088 87.293 254.908C87.293 255.728 87.96 256.395 88.781 256.395C89.602 256.395 90.269 255.728 90.269 254.908C90.269 254.088 89.602 253.42 88.781 253.42Z" fill="#25292B"/>
<path d="M102.967 266.776C101.951 266.776 101.125 265.95 101.125 264.934C101.125 263.918 101.951 263.092 102.967 263.092C103.983 263.092 104.809 263.918 104.809 264.934C104.809 265.95 103.983 266.776 102.967 266.776ZM102.967 264.093C102.503 264.093 102.125 264.471 102.125 264.935C102.125 265.399 102.502 265.777 102.967 265.777C103.432 265.777 103.809 265.399 103.809 264.935C103.809 264.471 103.432 264.093 102.967 264.093Z" fill="#25292B"/>
<path d="M103.534 257.396C103.355 257.396 103.19 257.3 103.101 257.146L100.139 252.019C100.05 251.865 100.05 251.673 100.139 251.519L103.101 246.391C103.19 246.237 103.355 246.141 103.534 246.141C103.712 246.141 103.877 246.236 103.967 246.39L106.936 251.518C107.026 251.673 107.026 251.865 106.936 252.02L103.967 257.147C103.877 257.301 103.712 257.396 103.534 257.396ZM101.149 251.769L103.534 255.897L105.925 251.769L103.534 247.64L101.149 251.769Z" fill="#25292B"/>
<path d="M77.891 276.594C76.875 276.594 76.049 275.768 76.049 274.752C76.049 273.736 76.875 272.91 77.891 272.91C78.907 272.91 79.733 273.736 79.733 274.752C79.733 275.768 78.907 276.594 77.891 276.594ZM77.891 273.91C77.427 273.91 77.049 274.288 77.049 274.752C77.049 275.216 77.426 275.594 77.891 275.594C78.356 275.594 78.733 275.216 78.733 274.752C78.733 274.288 78.355 273.91 77.891 273.91Z" fill="#25292B"/>
<path d="M402.063 108.501C401.787 108.501 401.563 108.277 401.563 108.001V55.1564C401.563 48.9514 396.515 43.9044 390.31 43.9044C384.014 43.9044 378.966 48.9524 378.966 55.1564V96.0244C378.966 102.903 373.369 108.501 366.489 108.501C359.609 108.501 354.012 102.904 354.012 96.0244V14.7354C354.012 8.53042 348.964 3.48242 342.76 3.48242C336.555 3.48242 331.507 8.53042 331.507 14.7354V36.2194C331.507 42.9754 326.01 48.4714 319.254 48.4714H307.337C307.061 48.4714 306.837 48.2474 306.837 47.9714C306.837 47.6954 307.061 47.4714 307.337 47.4714H319.254C325.459 47.4714 330.507 42.4234 330.507 36.2194V14.7354C330.507 7.97942 336.004 2.48242 342.76 2.48242C349.516 2.48242 355.012 7.97942 355.012 14.7354V96.0244C355.012 102.352 360.16 107.501 366.489 107.501C372.818 107.501 377.966 102.353 377.966 96.0244V55.1564C377.966 48.4004 383.463 42.9044 390.219 42.9044C397.066 42.9044 402.563 48.4014 402.563 55.1564V108C402.563 108.277 402.34 108.501 402.063 108.501Z" fill="#25292B"/>
<path d="M590.873 445.139H67.523C67.247 445.139 67.023 444.915 67.023 444.639C67.023 444.363 67.247 444.139 67.523 444.139H590.873C591.149 444.139 591.373 444.363 591.373 444.639C591.373 444.915 591.149 445.139 590.873 445.139Z" fill="#25292B"/>
<path d="M170 422.253C170 434.25 160.275 443.975 148.278 443.975H21.722C9.7259 443.975 0 434.25 0 422.253V364.642C0 352.644 9.7259 342.92 21.722 342.92H148.278C160.275 342.92 170 352.644 170 364.642V422.253Z" fill="#F2D9AF"/>
<path d="M73.7333 367.329V357.962H76.3275V360.521L75.84 359.773C76.165 359.134 76.6234 358.653 77.2154 358.328C77.819 357.991 78.5038 357.823 79.2699 357.823C80.1288 357.823 80.8774 358.043 81.5158 358.484C82.1658 358.914 82.5953 359.575 82.8042 360.469L81.8466 360.208C82.16 359.477 82.6591 358.896 83.3439 358.467C84.0404 358.037 84.8354 357.823 85.7292 357.823C86.472 357.823 87.1278 357.974 87.6966 358.275C88.2769 358.566 88.7296 359.018 89.0546 359.633C89.3912 360.237 89.5595 361.015 89.5595 361.966V367.329H86.8435V362.384C86.8435 361.63 86.6868 361.073 86.3734 360.713C86.06 360.353 85.6189 360.173 85.0502 360.173C84.6555 360.173 84.3015 360.266 83.9881 360.452C83.6747 360.626 83.431 360.893 83.2569 361.253C83.0828 361.612 82.9957 362.071 82.9957 362.628V367.329H80.2797V362.384C80.2797 361.63 80.123 361.073 79.8096 360.713C79.5078 360.353 79.0725 360.173 78.5038 360.173C78.1091 360.173 77.7551 360.266 77.4417 360.452C77.1283 360.626 76.8846 360.893 76.7105 361.253C76.5364 361.612 76.4493 362.071 76.4493 362.628V367.329H73.7333Z" fill="#FFA727"/>
<path d="M68.7332 367.329V365.501L68.5591 365.1V361.827C68.5591 361.247 68.3791 360.794 68.0193 360.469C67.6711 360.144 67.1314 359.982 66.4001 359.982C65.901 359.982 65.4077 360.063 64.9202 360.225C64.4444 360.376 64.0381 360.585 63.7015 360.852L62.7265 358.954C63.2372 358.595 63.8524 358.316 64.572 358.119C65.2917 357.921 66.0229 357.823 66.7658 357.823C68.1934 357.823 69.3019 358.159 70.0912 358.833C70.8805 359.506 71.2751 360.556 71.2751 361.984V367.329H68.7332ZM65.8778 367.468C65.1466 367.468 64.5198 367.346 63.9975 367.103C63.4752 366.847 63.0747 366.505 62.7962 366.075C62.5176 365.646 62.3783 365.164 62.3783 364.63C62.3783 364.073 62.5118 363.586 62.7787 363.168C63.0573 362.75 63.4926 362.425 64.0845 362.193C64.6765 361.949 65.4484 361.827 66.4001 361.827H68.8899V363.412H66.6961C66.0577 363.412 65.6167 363.516 65.3729 363.725C65.1408 363.934 65.0247 364.195 65.0247 364.508C65.0247 364.857 65.1582 365.135 65.4252 365.344C65.7037 365.541 66.081 365.64 66.5568 365.64C67.0095 365.64 67.4158 365.536 67.7756 365.327C68.1354 365.106 68.3966 364.787 68.5591 364.369L68.9769 365.623C68.7796 366.226 68.4198 366.685 67.8975 366.998C67.3751 367.312 66.7019 367.468 65.8778 367.468Z" fill="#FFA727"/>
<path d="M56.2023 367.538C55.355 367.538 54.5135 367.428 53.6777 367.207C52.8536 366.975 52.1456 366.65 51.5536 366.232L52.6679 364.073C53.1322 364.41 53.6661 364.677 54.2697 364.874C54.8849 365.071 55.5059 365.17 56.1326 365.17C56.8407 365.17 57.3978 365.031 57.8041 364.752C58.2103 364.474 58.4134 364.085 58.4134 363.586C58.4134 363.272 58.3322 362.994 58.1697 362.75C58.0072 362.506 57.717 362.321 57.2992 362.193C56.8929 362.065 56.3184 362.001 55.5755 362.001H52.459L53.0858 355.142H60.5201V357.405H54.0956L55.5581 356.117L55.1228 361.009L53.6603 359.721H56.2371C57.4442 359.721 58.4134 359.889 59.1447 360.225C59.8875 360.55 60.4273 360.997 60.7639 361.566C61.1005 362.135 61.2688 362.779 61.2688 363.499C61.2688 364.218 61.0889 364.886 60.729 365.501C60.3692 366.104 59.8121 366.598 59.0576 366.981C58.3148 367.352 57.363 367.538 56.2023 367.538Z" fill="#FFA727"/>
<path d="M45.465 367.538C44.4668 367.538 43.5731 367.294 42.7838 366.807C41.9945 366.308 41.3735 365.588 40.9208 364.648C40.4682 363.708 40.2418 362.57 40.2418 361.235C40.2418 359.9 40.4682 358.763 40.9208 357.823C41.3735 356.883 41.9945 356.169 42.7838 355.681C43.5731 355.182 44.4668 354.933 45.465 354.933C46.4748 354.933 47.3686 355.182 48.1462 355.681C48.9355 356.169 49.5565 356.883 50.0092 357.823C50.4618 358.763 50.6882 359.9 50.6882 361.235C50.6882 362.57 50.4618 363.708 50.0092 364.648C49.5565 365.588 48.9355 366.308 48.1462 366.807C47.3686 367.294 46.4748 367.538 45.465 367.538ZM45.465 365.153C45.9409 365.153 46.3529 365.019 46.7012 364.752C47.061 364.485 47.3395 364.062 47.5369 363.481C47.7458 362.901 47.8503 362.152 47.8503 361.235C47.8503 360.318 47.7458 359.57 47.5369 358.989C47.3395 358.409 47.061 357.985 46.7012 357.718C46.3529 357.451 45.9409 357.318 45.465 357.318C45.0007 357.318 44.5887 357.451 44.2289 357.718C43.8806 357.985 43.6021 358.409 43.3931 358.989C43.1958 359.57 43.0972 360.318 43.0972 361.235C43.0972 362.152 43.1958 362.901 43.3931 363.481C43.6021 364.062 43.8806 364.485 44.2289 364.752C44.5887 365.019 45.0007 365.153 45.465 365.153Z" fill="#FFA727"/>
<path d="M37.2869 361.218C36.8226 361.218 36.4222 361.061 36.0856 360.747C35.7606 360.422 35.5981 360.01 35.5981 359.511C35.5981 359.012 35.7606 358.612 36.0856 358.31C36.4222 357.997 36.8226 357.84 37.2869 357.84C37.7628 357.84 38.1632 357.997 38.4882 358.31C38.8132 358.612 38.9757 359.012 38.9757 359.511C38.9757 360.01 38.8132 360.422 38.4882 360.747C38.1632 361.061 37.7628 361.218 37.2869 361.218ZM37.2869 367.468C36.8226 367.468 36.4222 367.311 36.0856 366.998C35.7606 366.673 35.5981 366.261 35.5981 365.762C35.5981 365.263 35.7606 364.862 36.0856 364.56C36.4222 364.247 36.8226 364.09 37.2869 364.09C37.7628 364.09 38.1632 364.247 38.4882 364.56C38.8132 364.862 38.9757 365.263 38.9757 365.762C38.9757 366.261 38.8132 366.673 38.4882 366.998C38.1632 367.311 37.7628 367.468 37.2869 367.468Z" fill="#FFA727"/>
<path d="M29.0916 367.538C28.0934 367.538 27.1996 367.294 26.4103 366.807C25.621 366.308 25.0001 365.588 24.5474 364.648C24.0947 363.708 23.8684 362.57 23.8684 361.235C23.8684 359.9 24.0947 358.763 24.5474 357.823C25.0001 356.883 25.621 356.169 26.4103 355.681C27.1996 355.182 28.0934 354.933 29.0916 354.933C30.1014 354.933 30.9951 355.182 31.7728 355.681C32.5621 356.169 33.1831 356.883 33.6357 357.823C34.0884 358.763 34.3147 359.9 34.3147 361.235C34.3147 362.57 34.0884 363.708 33.6357 364.648C33.1831 365.588 32.5621 366.308 31.7728 366.807C30.9951 367.294 30.1014 367.538 29.0916 367.538ZM29.0916 365.153C29.5675 365.153 29.9795 365.019 30.3277 364.752C30.6875 364.485 30.9661 364.062 31.1634 363.481C31.3723 362.901 31.4768 362.152 31.4768 361.235C31.4768 360.318 31.3723 359.57 31.1634 358.989C30.9661 358.409 30.6875 357.985 30.3277 357.718C29.9795 357.451 29.5675 357.318 29.0916 357.318C28.6273 357.318 28.2152 357.451 27.8554 357.718C27.5072 357.985 27.2286 358.409 27.0197 358.989C26.8224 359.57 26.7237 360.318 26.7237 361.235C26.7237 362.152 26.8224 362.901 27.0197 363.481C27.2286 364.062 27.5072 364.485 27.8554 364.752C28.2152 365.019 28.6273 365.153 29.0916 365.153Z" fill="#FFA727"/>
<path d="M18.9307 367.329V356.186L20.1495 357.405H16.4932V355.142H21.7512V367.329H18.9307Z" fill="#FFA727"/>
<path d="M16.3704 382.48H122.161V377.129H16.3704V382.48Z" fill="#FFC461"/>
<path d="M95.0738 406.093H16.3704V400.74H95.0738V406.093Z" fill="#FFA727"/>
<path d="M101.37 406.092H134.425V400.74H101.37V406.092Z" fill="#FFC461"/>
<path d="M16.3704 394.233H60.1297V388.881H16.3704V394.233Z" fill="#FFC461"/>
<path d="M79.6488 426.555C79.6488 430.988 76.0539 434.582 71.6207 434.582H24.3985C19.9653 434.582 16.3704 430.988 16.3704 426.555C16.3704 422.121 19.9653 418.527 24.3985 418.527H71.6207C76.0539 418.527 79.6488 422.121 79.6488 426.555Z" fill="#FFA727"/>
<path d="M52.3251 429.313V423.518H50.04V422.172H56.2627V423.518H53.9777V429.313H52.3251Z" fill="#F2E9DA"/>
<path d="M44.0021 429.313V422.172H49.3984V423.498H45.6444V427.986H49.5311V429.313H44.0021ZM45.522 426.334V425.049H48.9598V426.334H45.522Z" fill="#F2E9DA"/>
<path d="M39.8432 429.435C39.2719 429.435 38.7244 429.36 38.2008 429.21C37.6771 429.054 37.2555 428.853 36.9359 428.609L37.4969 427.364C37.8029 427.582 38.1634 427.762 38.5782 427.905C38.9999 428.041 39.4249 428.109 39.8534 428.109C40.1798 428.109 40.4416 428.078 40.6388 428.017C40.8429 427.949 40.9925 427.857 41.0877 427.742C41.1829 427.626 41.2305 427.493 41.2305 427.344C41.2305 427.153 41.1557 427.004 41.0061 426.895C40.8565 426.779 40.6592 426.687 40.4144 426.619C40.1696 426.545 39.8976 426.477 39.5983 426.415C39.3059 426.347 39.0101 426.266 38.7108 426.171C38.4184 426.075 38.1498 425.953 37.905 425.803C37.6601 425.654 37.4595 425.456 37.3031 425.212C37.1535 424.967 37.0787 424.654 37.0787 424.273C37.0787 423.865 37.1875 423.494 37.4051 423.161C37.6295 422.821 37.9628 422.553 38.4048 422.355C38.8537 422.151 39.4147 422.049 40.088 422.049C40.5368 422.049 40.9789 422.104 41.4141 422.213C41.8494 422.315 42.2336 422.471 42.5668 422.682L42.0568 423.937C41.7236 423.746 41.3903 423.607 41.0571 423.518C40.7239 423.423 40.3974 423.375 40.0778 423.375C39.7581 423.375 39.4963 423.413 39.2923 423.488C39.0883 423.562 38.9421 423.661 38.8537 423.783C38.7652 423.899 38.721 424.035 38.721 424.192C38.721 424.375 38.7958 424.525 38.9455 424.64C39.0951 424.749 39.2923 424.838 39.5371 424.906C39.782 424.974 40.0506 425.042 40.343 425.11C40.6422 425.178 40.9381 425.256 41.2305 425.344C41.5297 425.433 41.8018 425.552 42.0466 425.701C42.2914 425.851 42.4886 426.048 42.6383 426.293C42.7947 426.538 42.8729 426.847 42.8729 427.221C42.8729 427.623 42.7607 427.99 42.5362 428.323C42.3118 428.656 41.9752 428.925 41.5263 429.129C41.0843 429.333 40.5232 429.435 39.8432 429.435Z" fill="#F2E9DA"/>
<path d="M141.508 434.582H94.2858C89.8526 434.582 86.2585 430.988 86.2585 426.555C86.2585 422.121 89.8526 418.527 94.2858 418.527H141.508C145.942 418.527 149.536 422.121 149.536 426.555C149.536 430.988 145.942 434.582 141.508 434.582Z" fill="#F2D9AF"/>
<path d="M127.258 429.313V422.172H128.625L131.665 427.211H130.941L133.93 422.172H135.287L135.307 429.313H133.756L133.746 424.549H134.032L131.645 428.558H130.9L128.462 424.549H128.809V429.313H127.258Z" fill="#25292B"/>
<path d="M119.757 429.313V422.172H122.807C123.8 422.172 124.572 422.403 125.123 422.866C125.674 423.321 125.949 423.954 125.949 424.763C125.949 425.293 125.823 425.752 125.572 426.14C125.32 426.521 124.963 426.813 124.501 427.017C124.038 427.221 123.487 427.323 122.848 427.323H120.675L121.41 426.599V429.313H119.757ZM124.296 429.313L122.511 426.722H124.276L126.082 429.313H124.296ZM121.41 426.783L120.675 426.007H122.756C123.266 426.007 123.647 425.899 123.899 425.681C124.15 425.457 124.276 425.151 124.276 424.763C124.276 424.369 124.15 424.062 123.899 423.845C123.647 423.627 123.266 423.518 122.756 423.518H120.675L121.41 422.733V426.783Z" fill="#25292B"/>
<path d="M111.008 429.313L114.191 422.172H115.823L119.016 429.313H117.282L114.67 423.008H115.323L112.702 429.313H111.008ZM112.6 427.782L113.038 426.528H116.711L117.16 427.782H112.6Z" fill="#25292B"/>
<path d="M105.75 429.313V422.172H107.403V427.966H110.984V429.313H105.75Z" fill="#25292B"/>
<path d="M97.0018 429.313L100.185 422.172H101.817L105.01 429.313H103.275L100.664 423.008H101.317L98.6951 429.313H97.0018ZM98.5931 427.782L99.0318 426.528H102.704L103.153 427.782H98.5931Z" fill="#25292B"/>
<mask id="mask24_5_1575" style="mask-type:luminance" maskUnits="userSpaceOnUse" x="135" y="353" width="26" height="30">
<path d="M160.399 374.74C157.567 373.727 156.735 370.842 156.224 368.529C155.692 366.124 155.935 363.665 155.459 361.263C155.173 359.817 154.152 358.582 152.792 357.704C152.146 357.121 151.388 356.735 150.575 356.513V355.845C150.575 354.639 149.598 353.661 148.39 353.661C147.183 353.661 146.206 354.639 146.206 355.845V356.545C145.265 356.802 144.4 357.267 143.708 357.984C142.637 358.769 141.802 359.777 141.414 360.912C140.632 363.203 141.063 365.81 140.63 368.172C140.189 370.573 139.31 373.694 136.381 374.74C135.726 374.975 135.877 375.769 136.381 376.038C139.021 377.448 142.027 378.589 145.115 379.065C145.109 379.145 145.103 379.224 145.103 379.305C145.103 381.12 146.575 382.593 148.39 382.593C150.207 382.593 151.679 381.12 151.679 379.305C151.679 379.224 151.673 379.145 151.667 379.065C154.755 378.589 157.761 377.448 160.399 376.038C160.904 375.769 161.055 374.975 160.399 374.74Z" fill="white"/>
</mask>
<g mask="url(#mask24_5_1575)">
<path d="M160.399 374.74C157.567 373.727 156.735 370.842 156.224 368.529C155.692 366.124 155.935 363.665 155.459 361.263C155.173 359.817 154.152 358.582 152.792 357.704C152.146 357.121 151.388 356.735 150.575 356.513V355.845C150.575 354.639 149.598 353.661 148.39 353.661C147.183 353.661 146.206 354.639 146.206 355.845V356.545C145.265 356.802 144.4 357.267 143.708 357.984C142.637 358.769 141.802 359.777 141.414 360.912C140.632 363.203 141.063 365.81 140.63 368.172C140.189 370.573 139.31 373.694 136.381 374.74C135.726 374.975 135.877 375.769 136.381 376.038C139.021 377.448 142.027 378.589 145.115 379.065C145.109 379.145 145.103 379.224 145.103 379.305C145.103 381.12 146.575 382.593 148.39 382.593C150.207 382.593 151.679 381.12 151.679 379.305C151.679 379.224 151.673 379.145 151.667 379.065C154.755 378.589 157.761 377.448 160.399 376.038C160.904 375.769 161.055 374.975 160.399 374.74Z" fill="url(#paint6_linear_5_1575)"/>
</g>
<defs>
<linearGradient id="paint0_linear_5_1575" x1="182.891" y1="215.433" x2="226.891" y2="215.433" gradientUnits="userSpaceOnUse">
<stop stop-color="#F57E53"/>
<stop offset="0.994624" stop-color="#FBCF50"/>
<stop offset="1" stop-color="#FBCF50"/>
</linearGradient>
<linearGradient id="paint1_linear_5_1575" x1="194.841" y1="211.703" x2="216.844" y2="211.703" gradientUnits="userSpaceOnUse">
<stop stop-color="#4D64B8"/>
<stop offset="1" stop-color="#8740A5"/>
</linearGradient>
<linearGradient id="paint2_linear_5_1575" x1="204.891" y1="231.761" x2="204.891" y2="226.873" gradientUnits="userSpaceOnUse">
<stop stop-color="#4D64B8"/>
<stop offset="1" stop-color="#8740A5"/>
</linearGradient>
<linearGradient id="paint3_linear_5_1575" x1="216.331" y1="215.433" x2="221.218" y2="215.433" gradientUnits="userSpaceOnUse">
<stop stop-color="#4D64B8"/>
<stop offset="1" stop-color="#8740A5"/>
</linearGradient>
<linearGradient id="paint4_linear_5_1575" x1="188.563" y1="215.433" x2="193.45" y2="215.433" gradientUnits="userSpaceOnUse">
<stop stop-color="#4D64B8"/>
<stop offset="1" stop-color="#8740A5"/>
</linearGradient>
<linearGradient id="paint5_linear_5_1575" x1="204.891" y1="203.994" x2="204.891" y2="199.106" gradientUnits="userSpaceOnUse">
<stop stop-color="#4A5EB4"/>
<stop offset="1" stop-color="#7942A5"/>
</linearGradient>
<linearGradient id="paint6_linear_5_1575" x1="135.945" y1="368.127" x2="160.837" y2="368.127" gradientUnits="userSpaceOnUse">
<stop stop-color="#F57E53"/>
<stop offset="0.994624" stop-color="#FBCF50"/>
<stop offset="1" stop-color="#FBCF50"/>
</linearGradient>
</defs>
</svg>
