<svg width="54" height="54" viewBox="0 0 54 54" fill="none" xmlns="http://www.w3.org/2000/svg">
<path fill-rule="evenodd" clip-rule="evenodd" d="M30.3999 13.2256C31.0648 12.5608 31.854 12.0334 32.7226 11.6736C33.5913 11.3138 34.5222 11.1287 35.4624 11.1287C36.4026 11.1287 37.3336 11.3138 38.2022 11.6736C39.0709 12.0334 39.8601 12.5608 40.5249 13.2256C41.1897 13.8904 41.7171 14.6797 42.0769 15.5483C42.4367 16.4169 42.6219 17.3479 42.6219 18.2881C42.6219 19.2283 42.4367 20.1593 42.0769 21.0279C41.7171 21.8965 41.1897 22.6858 40.5249 23.3506C39.1823 24.6933 37.3612 25.4476 35.4624 25.4476C33.5636 25.4476 31.7426 24.6933 30.3999 23.3506C29.0573 22.008 28.303 20.1869 28.303 18.2881C28.303 16.3893 29.0573 14.5683 30.3999 13.2256ZM37.9099 15.8406C37.2608 15.1915 36.3804 14.8268 35.4624 14.8268C34.5444 14.8268 33.6641 15.1915 33.0149 15.8406C32.3658 16.4897 32.0011 17.3701 32.0011 18.2881C32.0011 19.2061 32.3658 20.0865 33.0149 20.7356C33.6641 21.3847 34.5444 21.7494 35.4624 21.7494C36.3804 21.7494 37.2608 21.3847 37.9099 20.7356C38.5591 20.0865 38.9237 19.2061 38.9237 18.2881C38.9237 17.3701 38.5591 16.4897 37.9099 15.8406Z" fill="white"/>
<path fill-rule="evenodd" clip-rule="evenodd" d="M50.7249 0.36554C45.9831 -0.31196 41.1542 -0.0458562 36.5155 1.14856C31.8768 2.34298 27.5199 4.44217 23.6949 7.32554L10.0299 7.99554L8.81243 8.53304L1.30493 16.043L1.71243 18.9655L9.08743 23.063L7.77743 24.593L7.87493 27.103L10.5199 29.7505L6.73993 35.0455L6.93493 37.428L16.3199 46.813L18.7024 47.0105L23.9974 43.228L26.6449 45.873L29.1549 45.9705L41.0499 35.773C41.5499 35.348 42.0349 34.9055 42.5074 34.4555L42.0949 42.8255L36.8249 48.098L34.7699 44.398L31.5399 46.1955L34.7824 52.033L37.7074 52.443L45.2149 44.9355L45.7524 43.718L46.4224 30.053C49.3047 26.2285 51.4031 21.8723 52.5971 17.2346C53.7911 12.5968 54.0571 7.7689 53.3799 3.02804L53.2449 2.07054L51.6774 0.50304L50.7249 0.36554ZM10.9249 11.653L19.2949 11.2405C18.8449 11.7155 18.4049 12.198 17.9774 12.698L11.5474 20.198L5.65243 16.923L10.9249 11.653ZM13.1749 32.4005L21.3499 40.5755L17.8299 43.0905L10.6599 35.9205L13.1749 32.4005ZM28.0499 42.0505L38.6474 32.968C42.7651 29.4386 45.9392 24.9395 47.8832 19.8765C49.8272 14.8136 50.4799 9.34631 49.7824 3.96804C44.4042 3.27057 38.9369 3.92328 33.8739 5.86727C28.811 7.81125 24.3118 10.9853 20.7824 15.103L11.6999 25.7005L28.0499 42.0505Z" fill="white"/>
<path d="M3.845 52.5181L10.1575 46.2081L7.5425 43.5931L1.2325 49.9031L3.845 52.5181ZM7.075 40.6631L2.615 45.1256L0 42.5106L4.4625 38.0481L7.075 40.6631ZM11.24 53.7506L15.7025 49.2881L13.0875 46.6756L8.625 51.1356L11.24 53.7506Z" fill="white"/>
</svg>
