<svg width="47" height="47" viewBox="0 0 47 47" fill="none" xmlns="http://www.w3.org/2000/svg">
<path fill-rule="evenodd" clip-rule="evenodd" d="M38.7771 46.875H7.40156V44.4561C7.40156 43.1257 8.76387 42.0372 10.429 42.0372H15.8327V36.397H3.55C1.59746 36.397 0 34.7994 0 32.8469V8.42432C0 6.47178 1.59746 4.87422 3.55 4.87422H16.6694V7.84287H3.46094C3.19014 7.84287 2.96855 8.06445 2.96855 8.33516V30.417H43.2101V8.33525C43.2101 8.06445 42.9885 7.84297 42.7178 7.84297H41.7007V5.70879L40.1179 5.09951C40.0914 5.02405 40.0638 4.94898 40.0352 4.87432H42.6287C44.5813 4.87432 46.1788 6.47178 46.1788 8.42441V32.847C46.1788 34.7995 44.5813 36.3971 42.6287 36.3971H30.346V42.0373H35.7497C37.4148 42.0373 38.7771 43.1258 38.7771 44.4562V46.875ZM20.3156 23.7426L22.3994 20.1333H18.2317L20.3156 23.7426ZM38.8387 6.28125C38.6737 5.58883 38.3994 4.92713 38.0261 4.32109L38.5917 3.04756L37.0906 1.54648L35.817 2.11211C35.211 1.73878 34.5494 1.46447 33.857 1.29951L33.3566 0H31.2339L30.7336 1.29971C30.0412 1.46467 29.3796 1.73898 28.7736 2.1123L27.5 1.54668L25.9989 3.04775L26.5645 4.321C26.191 4.92711 25.9166 5.58895 25.7518 6.28154L24.4523 6.78164V8.90449L25.7521 9.40469C25.917 10.0971 26.1912 10.7587 26.5646 11.3646L25.9989 12.6383L27.5 14.1394L28.7732 13.5738C29.3794 13.9473 30.0412 14.2216 30.7338 14.3865L31.2339 15.6859H33.3567L33.857 14.3862C34.5494 14.2213 35.211 13.947 35.817 13.5737L37.0906 14.1394L38.5917 12.6383L38.0262 11.365C38.3996 10.7589 38.6739 10.0971 38.839 9.40459L40.1383 8.90439V6.78154L38.8387 6.28125ZM32.2953 11.545C30.2505 11.545 28.5932 9.88769 28.5932 7.84287C28.5932 5.79805 30.2505 4.14072 32.2953 4.14072C34.3401 4.14072 35.9975 5.79805 35.9975 7.84287C35.9975 9.88779 34.3401 11.545 32.2953 11.545ZM6.37393 24.5496H14.8265C15.0337 24.5496 15.2324 24.4673 15.3789 24.3208C15.5254 24.1743 15.6077 23.9756 15.6077 23.7684C15.6077 23.5612 15.5254 23.3624 15.3789 23.2159C15.2324 23.0694 15.0337 22.9871 14.8265 22.9871H6.37393C6.16673 22.9871 5.96801 23.0694 5.8215 23.2159C5.67499 23.3624 5.59268 23.5612 5.59268 23.7684C5.59268 23.9756 5.67499 24.1743 5.8215 24.3208C5.96801 24.4673 6.16673 24.5496 6.37393 24.5496Z" fill="#9AF50A"/>
<path d="M22.6671 27.7002H6.40186C6.19466 27.7002 5.99594 27.6179 5.84943 27.4714C5.70291 27.3249 5.62061 27.1261 5.62061 26.9189C5.62061 26.7117 5.70291 26.513 5.84943 26.3665C5.99594 26.22 6.19466 26.1377 6.40186 26.1377H22.6671C22.8743 26.1377 23.073 26.22 23.2195 26.3665C23.366 26.513 23.4483 26.7117 23.4483 26.9189C23.4483 27.1261 23.366 27.3249 23.2195 27.4714C23.073 27.6179 22.8743 27.7002 22.6671 27.7002Z" fill="#6AAD00"/>
<path d="M22.3996 18.571H18.2319V2.49043C18.2319 1.53398 19.012 0.753906 19.9685 0.753906H20.6631C21.6195 0.753906 22.3996 1.53398 22.3996 2.49043V18.571Z" fill="#6AAD00"/>
<path d="M39.5258 23.9275L36.2477 26.69C36.0898 26.8227 35.8857 26.8873 35.6803 26.8696C35.4748 26.8519 35.2848 26.7533 35.1521 26.5955C35.0193 26.4376 34.9547 26.2335 34.9725 26.0281C34.9902 25.8226 35.0889 25.6326 35.2467 25.4999L37.8187 23.3325L35.2467 21.1651C35.0913 21.0316 34.9949 20.8422 34.9783 20.6381C34.9617 20.4339 35.0264 20.2315 35.1582 20.0747C35.2901 19.9179 35.4784 19.8195 35.6824 19.8008C35.8864 19.7821 36.0895 19.8447 36.2477 19.9749L39.5176 22.7304C39.8917 23.0371 39.8995 23.6131 39.5258 23.9275Z" fill="#6AAD00"/>
<path d="M27.7252 23.3325L30.2972 25.4999C30.4516 25.6336 30.5473 25.8228 30.5634 26.0264C30.5795 26.2301 30.5148 26.4319 30.3833 26.5883C30.2518 26.7447 30.064 26.843 29.8606 26.862C29.6572 26.8811 29.4544 26.8193 29.2962 26.69L26.0181 23.9275C25.6443 23.6131 25.6522 23.0371 26.0263 22.7304L29.2962 19.9749C29.4543 19.8447 29.6575 19.7821 29.8614 19.8008C30.0654 19.8195 30.2538 19.9179 30.3856 20.0747C30.5175 20.2315 30.5821 20.4339 30.5656 20.6381C30.549 20.8422 30.4526 21.0316 30.2972 21.1651L27.7252 23.3325Z" fill="#6AAD00"/>
<path d="M34.5316 19.7797L32.5197 27.288C32.4944 27.3882 32.4494 27.4823 32.3873 27.565C32.3253 27.6476 32.2475 27.7171 32.1584 27.7694C32.0692 27.8217 31.9706 27.8558 31.8682 27.8697C31.7659 27.8836 31.6617 27.877 31.5619 27.8503C31.4621 27.8237 31.3685 27.7774 31.2867 27.7143C31.2049 27.6512 31.1365 27.5725 31.0853 27.4827C31.0342 27.3929 31.0014 27.2938 30.9888 27.1913C30.9763 27.0887 30.9842 26.9847 31.0122 26.8852L33.0241 19.3768C33.0495 19.2767 33.0945 19.1825 33.1565 19.0999C33.2186 19.0173 33.2964 18.9478 33.3855 18.8955C33.4746 18.8432 33.5732 18.8091 33.6756 18.7952C33.778 18.7813 33.8821 18.7879 33.982 18.8145C34.0818 18.8412 34.1753 18.8874 34.2571 18.9506C34.3389 19.0137 34.4074 19.0924 34.4585 19.1822C34.5097 19.272 34.5425 19.371 34.555 19.4736C34.5676 19.5761 34.5596 19.6802 34.5316 19.7797Z" fill="#6AAD00"/>
<path d="M14.8766 20.2901V19.4202C14.8766 17.7709 14.0557 16.3107 12.8018 15.4238C13.3256 14.7907 13.6407 13.9792 13.6407 13.0953C13.6407 11.0784 11.9998 9.4375 9.98288 9.4375C7.96595 9.4375 6.32504 11.0784 6.32504 13.0953C6.32504 13.9792 6.6402 14.7907 7.164 15.4238C5.91024 16.3108 5.08936 17.7709 5.08936 19.4202V20.2901C5.08936 20.8962 5.58068 21.3875 6.18671 21.3875H13.7792C14.3852 21.3875 14.8766 20.8963 14.8766 20.2901ZM8.51975 13.0954C8.51975 12.2886 9.17611 11.6323 9.98288 11.6323C10.7897 11.6323 11.446 12.2886 11.446 13.0954C11.446 13.8127 10.9267 14.4099 10.2446 14.5337C10.1579 14.5291 10.0707 14.5266 9.98288 14.5266C9.89509 14.5266 9.80782 14.5291 9.72113 14.5337C9.03901 14.4099 8.51975 13.8127 8.51975 13.0954ZM7.29349 19.1928C7.40081 17.9123 8.40606 16.8839 9.67577 16.7393C9.77716 16.7478 9.87936 16.7532 9.98288 16.7532C10.0864 16.7532 10.1887 16.7478 10.2901 16.7393C11.5598 16.8839 12.565 17.9123 12.6723 19.1928H7.29349Z" fill="#6AAD00"/>
</svg>
