<svg width="60" height="58" viewBox="0 0 60 58" fill="none" xmlns="http://www.w3.org/2000/svg">
<path d="M35.7883 23.2118C36.1315 23.5549 36.5813 23.7266 37.0312 23.7266C37.4811 23.7266 37.931 23.5549 38.2741 23.2118L41.7897 19.6962C42.4762 19.0097 42.4762 17.8967 41.7897 17.2103L38.2741 13.6946C37.5878 13.0083 36.4747 13.0083 35.7882 13.6946C35.1017 14.3811 35.1017 15.494 35.7882 16.1805L38.061 18.4531L35.7883 20.7258C35.1017 21.4123 35.1017 22.5253 35.7883 23.2118ZM28.6947 23.6741C28.8378 23.7098 28.9812 23.7269 29.1224 23.7269C29.91 23.7269 30.6267 23.1937 30.8263 22.395L32.5841 15.3637C32.8196 14.4219 32.2469 13.4675 31.3051 13.2321C30.3643 12.9969 29.4089 13.5692 29.1736 14.5111L27.4158 21.5423C27.1803 22.4843 27.7529 23.4387 28.6947 23.6741ZM21.7258 23.2118C22.069 23.5549 22.5189 23.7266 22.9687 23.7266C23.4186 23.7266 23.8685 23.5549 24.2116 23.2118C24.8981 22.5253 24.8981 21.4124 24.2116 20.7259L21.939 18.4531L24.2116 16.1805C24.8981 15.494 24.8981 14.3811 24.2116 13.6946C23.5253 13.0083 22.4122 13.0083 21.7257 13.6946L18.2101 17.2103C17.5236 17.8967 17.5236 19.0097 18.2101 19.6962L21.7258 23.2118ZM60 28.997C59.9994 28.684 59.9153 28.3769 59.7563 28.1073C59.5974 27.8377 59.3693 27.6154 59.0958 27.4635L52.3973 23.7421L59.1013 19.9868C59.3739 19.8341 59.6008 19.6115 59.7588 19.342C59.9168 19.0724 60.0001 18.7656 60.0001 18.4531C60.0001 18.1407 59.9168 17.8339 59.7588 17.5643C59.6008 17.2948 59.3739 17.0722 59.1013 16.9195L30.8591 1.0992C30.5966 0.952197 30.3008 0.875 30 0.875C29.6991 0.875 29.4034 0.952197 29.1409 1.0992L0.898694 16.9195C0.626096 17.0722 0.39912 17.2948 0.241138 17.5643C0.0831565 17.8339 -0.00012207 18.1407 -0.00012207 18.4531C-0.00012207 18.7656 0.0831565 19.0724 0.241138 19.342C0.39912 19.6115 0.626096 19.8341 0.898694 19.9868L7.60264 23.7421L0.904202 27.4635C0.630656 27.6155 0.402643 27.8377 0.243712 28.1073C0.0847812 28.3769 0.000693045 28.684 0.000131643 28.9969C-0.000429759 29.3099 0.082556 29.6173 0.240519 29.8874C0.398482 30.1576 0.625695 30.3807 0.898694 30.5337L7.60264 34.2889L0.904202 38.0103C0.630656 38.1623 0.402643 38.3846 0.243712 38.6542C0.0847812 38.9238 0.000693045 39.2309 0.000131643 39.5438C-0.000429759 39.8568 0.082556 40.1642 0.240519 40.4343C0.398482 40.7045 0.625695 40.9276 0.898694 41.0805L29.1409 56.9008C29.4033 57.0479 29.6991 57.1251 30 57.1251C30.3008 57.1251 30.5966 57.0479 30.8591 56.9008L59.1013 41.0805C59.3743 40.9276 59.6015 40.7045 59.7595 40.4344C59.9175 40.1642 60.0005 39.8568 60 39.5438C59.9994 39.2309 59.9153 38.9237 59.7563 38.6542C59.5974 38.3846 59.3693 38.1623 59.0958 38.0103L52.3973 34.2889L59.1013 30.5337C59.3743 30.3807 59.6015 30.1576 59.7595 29.8875C59.9175 29.6174 60.0005 29.3099 60 28.997ZM30 32.2587L5.35463 18.4531L30 4.64764L54.6453 18.4531L30 32.2587ZM54.6341 39.5532L30 53.3524L5.36588 39.5532L11.2072 36.3081L29.1409 46.354C29.4033 46.501 29.6991 46.5782 30 46.5782C30.3008 46.5782 30.5966 46.501 30.8591 46.354L48.7928 36.3081L54.6341 39.5532ZM5.36576 29.0064L11.2071 25.7612L29.1408 35.8071C29.4032 35.9541 29.699 36.0313 29.9999 36.0313C30.3007 36.0313 30.5965 35.9541 30.859 35.8071L48.7926 25.7612L54.634 29.0064L30 42.8055L5.36576 29.0064Z" fill="white"/>
</svg>
