<svg width="48" height="50" viewBox="0 0 48 50" fill="none" xmlns="http://www.w3.org/2000/svg">
<path d="M17.7424 27.623H7.57373C6.76475 27.623 6.10889 28.2789 6.10889 29.0879C6.10889 29.8969 6.76475 30.5527 7.57373 30.5527H17.7424C18.5514 30.5527 19.2072 29.8969 19.2072 29.0879C19.2072 28.2789 18.5514 27.623 17.7424 27.623ZM17.7424 33.4431H7.57373C6.76475 33.4431 6.10889 34.0989 6.10889 34.9079C6.10889 35.7169 6.76475 36.3728 7.57373 36.3728H17.7424C18.5514 36.3728 19.2072 35.7169 19.2072 34.9079C19.2072 34.0989 18.5514 33.4431 17.7424 33.4431ZM17.7424 39.3028H7.57373C6.76475 39.3028 6.10889 39.9587 6.10889 40.7677C6.10889 41.5767 6.76475 42.2325 7.57373 42.2325H17.7424C18.5514 42.2325 19.2072 41.5767 19.2072 40.7677C19.2072 39.9587 18.5514 39.3028 17.7424 39.3028ZM32.1967 20.2986V19.1373C32.1967 16.9357 31.1009 14.9865 29.4272 13.8025C30.1263 12.9575 30.547 11.8742 30.547 10.6943C30.547 8.00195 28.3565 5.81152 25.6642 5.81152C22.9718 5.81152 20.7813 8.00195 20.7813 10.6943C20.7813 11.8742 21.202 12.9575 21.9013 13.8025C20.2276 14.9866 19.1318 16.9357 19.1318 19.1373V20.2986C19.1318 21.1076 19.7877 21.7635 20.5967 21.7635H30.7318C31.5408 21.7635 32.1967 21.1077 32.1967 20.2986ZM23.711 10.6944C23.711 9.61748 24.5872 8.74131 25.6642 8.74131C26.7411 8.74131 27.6173 9.61748 27.6173 10.6944C27.6173 11.652 26.9241 12.4491 26.0136 12.6145C25.8979 12.6083 25.7813 12.6049 25.6642 12.6049C25.547 12.6049 25.4305 12.6083 25.3147 12.6145C24.4042 12.4491 23.711 11.652 23.711 10.6944ZM22.0741 18.8338C22.2174 17.1245 23.5593 15.7517 25.2542 15.5587C25.3896 15.57 25.526 15.5771 25.6642 15.5771C25.8023 15.5771 25.9389 15.5699 26.0742 15.5587C27.7691 15.7517 29.111 17.1245 29.2543 18.8338H22.0741Z" fill="#6AAD00"/>
<path d="M46.3663 27.598C44.9438 27.598 43.6394 26.7625 43.0432 25.4695C42.926 25.2154 42.7384 25.0001 42.5027 24.8492C42.2669 24.6983 41.9929 24.6181 41.713 24.6181H38.2512V1.46484C38.2512 0.655859 37.5953 0 36.7863 0H11.5C11.3076 2.60866e-06 11.1171 0.0378987 10.9394 0.111524C10.7617 0.18515 10.6002 0.293063 10.4642 0.429102L0.597949 10.2963C0.323312 10.571 0.169004 10.9436 0.168945 11.332V48.5352C0.168945 49.3441 0.824805 50 1.63379 50H36.7862C37.2877 50 37.7287 49.7469 37.9925 49.3624L40.3362 47.9799C44.9593 45.2528 47.8312 40.2244 47.8312 34.8569V29.0629C47.8312 28.2538 47.1753 27.598 46.3663 27.598ZM10.0352 5.00156V9.86602H5.17119L10.0352 5.00156ZM3.09873 12.7957H11.5C12.309 12.7957 12.9648 12.1398 12.9648 11.3309V2.92969H35.3215V24.6181H31.8597C31.5798 24.6181 31.3057 24.6982 31.07 24.8491C30.8342 25 30.6467 25.2153 30.5295 25.4695C29.9333 26.7625 28.6288 27.598 27.2063 27.598C26.3974 27.598 25.7415 28.2539 25.7415 29.0629V34.8569C25.7415 39.6746 28.0563 44.218 31.8732 47.0703H3.09873V12.7957ZM44.9015 34.8569C44.9015 39.1924 42.5818 43.2538 38.8478 45.4564L36.7863 46.6726L34.7249 45.4564C30.9908 43.2538 28.6712 39.1923 28.6712 34.8569V30.3616C30.3228 29.9822 31.7814 28.9739 32.7177 27.5479H40.8552C41.7914 28.974 43.25 29.9823 44.9017 30.3616V34.8569H44.9015Z" fill="#9AF50A"/>
<path d="M39.5195 33.2621L36.1622 36.6193L35.0299 35.4871C34.458 34.9151 33.5304 34.9151 32.9583 35.4871C32.3863 36.059 32.3863 36.9866 32.9583 37.5586L35.1263 39.7266C35.4124 40.0127 35.7873 40.1557 36.1621 40.1557C36.5369 40.1557 36.9119 40.0126 37.1978 39.7266L41.5909 35.3336C42.1629 34.7617 42.1629 33.8341 41.5909 33.2621C41.0191 32.6899 40.0916 32.6901 39.5195 33.2621Z" fill="#6AAD00"/>
</svg>
