<svg width="50" height="50" viewBox="0 0 50 50" fill="none" xmlns="http://www.w3.org/2000/svg">
<path d="M48.4375 50H14.0625C13.6481 50 13.2507 49.8354 12.9576 49.5424C12.6646 49.2493 12.5 48.8519 12.5 48.4375V21.875C12.5 21.4606 12.6646 21.0632 12.9576 20.7701C13.2507 20.4771 13.6481 20.3125 14.0625 20.3125H48.4375C48.8519 20.3125 49.2493 20.4771 49.5424 20.7701C49.8354 21.0632 50 21.4606 50 21.875V48.4375C50 48.8519 49.8354 49.2493 49.5424 49.5424C49.2493 49.8354 48.8519 50 48.4375 50ZM15.625 46.875H46.875V23.4375H15.625V46.875Z" fill="#9AF50A"/>
<path d="M14.0625 37.5H6.25C4.5924 37.5 3.00269 36.8415 1.83058 35.6694C0.65848 34.4973 0 32.9076 0 31.25V6.25C0 4.5924 0.65848 3.00269 1.83058 1.83058C3.00269 0.65848 4.5924 0 6.25 0L21.875 0C23.5326 0 25.1223 0.65848 26.2944 1.83058C27.4665 3.00269 28.125 4.5924 28.125 6.25V15.625C28.125 16.0394 27.9604 16.4368 27.6674 16.7299C27.3743 17.0229 26.9769 17.1875 26.5625 17.1875C26.1481 17.1875 25.7507 17.0229 25.4576 16.7299C25.1646 16.4368 25 16.0394 25 15.625V6.25C25 5.4212 24.6708 4.62634 24.0847 4.04029C23.4987 3.45424 22.7038 3.125 21.875 3.125H6.25C5.4212 3.125 4.62634 3.45424 4.04029 4.04029C3.45424 4.62634 3.125 5.4212 3.125 6.25V31.25C3.125 32.0788 3.45424 32.8737 4.04029 33.4597C4.62634 34.0458 5.4212 34.375 6.25 34.375H14.0625C14.4769 34.375 14.8743 34.5396 15.1674 34.8326C15.4604 35.1257 15.625 35.5231 15.625 35.9375C15.625 36.3519 15.4604 36.7493 15.1674 37.0424C14.8743 37.3354 14.4769 37.5 14.0625 37.5Z" fill="#9AF50A"/>
<path d="M10.9375 17.1875C9.6943 17.1875 8.50201 16.6936 7.62294 15.8146C6.74386 14.9355 6.25 13.7432 6.25 12.5V7.8125C6.25 7.3981 6.41462 7.00067 6.70765 6.70765C7.00067 6.41462 7.3981 6.25 7.8125 6.25C8.2269 6.25 8.62433 6.41462 8.91735 6.70765C9.21038 7.00067 9.375 7.3981 9.375 7.8125V12.5C9.375 12.9144 9.53962 13.3118 9.83265 13.6049C10.1257 13.8979 10.5231 14.0625 10.9375 14.0625C11.3519 14.0625 11.7493 13.8979 12.0424 13.6049C12.3354 13.3118 12.5 12.9144 12.5 12.5V7.8125C12.5 7.3981 12.6646 7.00067 12.9576 6.70765C13.2507 6.41462 13.6481 6.25 14.0625 6.25C14.4769 6.25 14.8743 6.41462 15.1674 6.70765C15.4604 7.00067 15.625 7.3981 15.625 7.8125V12.5C15.625 13.7432 15.1311 14.9355 14.2521 15.8146C13.373 16.6936 12.1807 17.1875 10.9375 17.1875Z" fill="#6AAD00"/>
<path d="M23.4375 37.5C22.1943 37.5 21.002 37.0061 20.1229 36.1271C19.2439 35.248 18.75 34.0557 18.75 32.8125V28.125C18.75 27.7106 18.9146 27.3132 19.2076 27.0201C19.5007 26.7271 19.8981 26.5625 20.3125 26.5625C20.7269 26.5625 21.1243 26.7271 21.4174 27.0201C21.7104 27.3132 21.875 27.7106 21.875 28.125V32.8125C21.875 33.2269 22.0396 33.6243 22.3326 33.9174C22.6257 34.2104 23.0231 34.375 23.4375 34.375C23.8519 34.375 24.2493 34.2104 24.5424 33.9174C24.8354 33.6243 25 33.2269 25 32.8125V28.125C25 27.7106 25.1646 27.3132 25.4576 27.0201C25.7507 26.7271 26.1481 26.5625 26.5625 26.5625C26.9769 26.5625 27.3743 26.7271 27.6674 27.0201C27.9604 27.3132 28.125 27.7106 28.125 28.125V32.8125C28.125 34.0557 27.6311 35.248 26.7521 36.1271C25.873 37.0061 24.6807 37.5 23.4375 37.5Z" fill="#6AAD00"/>
<path d="M20.3125 17.1875C19.8981 17.1875 19.5007 17.0229 19.2076 16.7299C18.9146 16.4368 18.75 16.0394 18.75 15.625V7.8125C18.75 7.3981 18.9146 7.00067 19.2076 6.70765C19.5007 6.41462 19.8981 6.25 20.3125 6.25C20.7269 6.25 21.1243 6.41462 21.4174 6.70765C21.7104 7.00067 21.875 7.3981 21.875 7.8125V15.625C21.875 16.0394 21.7104 16.4368 21.4174 16.7299C21.1243 17.0229 20.7269 17.1875 20.3125 17.1875Z" fill="#6AAD00"/>
<path d="M37.5 37.5002C37.2653 37.4991 37.0339 37.4452 36.8229 37.3424C36.6119 37.2396 36.4268 37.0906 36.2813 36.9065L30.0313 29.094C29.8146 28.768 29.7281 28.3725 29.7891 27.9858C29.85 27.5992 30.0538 27.2494 30.3603 27.0058C30.6667 26.7623 31.0534 26.6426 31.4439 26.6705C31.8343 26.6984 32.2001 26.8718 32.4688 27.1565L38.7188 34.969C38.9004 35.1988 39.0137 35.475 39.0459 35.7662C39.0781 36.0573 39.0277 36.3517 38.9007 36.6156C38.7736 36.8795 38.5749 37.1024 38.3272 37.2588C38.0796 37.4152 37.7929 37.4989 37.5 37.5002Z" fill="#6AAD00"/>
<path d="M31.2499 37.4998C30.957 37.4984 30.6704 37.4148 30.4227 37.2584C30.175 37.1019 29.9763 36.8791 29.8493 36.6151C29.7222 36.3512 29.6719 36.0569 29.704 35.7657C29.7362 35.4746 29.8495 35.1984 30.0312 34.9685L36.2812 27.156C36.4009 26.9758 36.5568 26.8225 36.739 26.7057C36.9211 26.5889 37.1255 26.5112 37.3392 26.4775C37.553 26.4439 37.7713 26.4549 37.9806 26.5101C38.1898 26.5652 38.3853 26.6632 38.5547 26.7978C38.724 26.9325 38.8636 27.1008 38.9645 27.2922C39.0654 27.4836 39.1255 27.6938 39.1409 27.9097C39.1563 28.1255 39.1268 28.3421 39.0541 28.5459C38.9814 28.7497 38.8672 28.9362 38.7187 29.0935L32.4687 36.906C32.3231 37.0902 32.138 37.2392 31.927 37.342C31.716 37.4448 31.4846 37.4987 31.2499 37.4998Z" fill="#6AAD00"/>
<path d="M23.4375 43.75H20.3125C19.8981 43.75 19.5007 43.5854 19.2076 43.2924C18.9146 42.9993 18.75 42.6019 18.75 42.1875C18.75 41.7731 18.9146 41.3757 19.2076 41.0826C19.5007 40.7896 19.8981 40.625 20.3125 40.625H23.4375C23.8519 40.625 24.2493 40.7896 24.5424 41.0826C24.8354 41.3757 25 41.7731 25 42.1875C25 42.6019 24.8354 42.9993 24.5424 43.2924C24.2493 43.5854 23.8519 43.75 23.4375 43.75ZM42.1875 43.75H29.6875C29.2731 43.75 28.8757 43.5854 28.5826 43.2924C28.2896 42.9993 28.125 42.6019 28.125 42.1875C28.125 41.7731 28.2896 41.3757 28.5826 41.0826C28.8757 40.7896 29.2731 40.625 29.6875 40.625H42.1875C42.6019 40.625 42.9993 40.7896 43.2924 41.0826C43.5854 41.3757 43.75 41.7731 43.75 42.1875C43.75 42.6019 43.5854 42.9993 43.2924 43.2924C42.9993 43.5854 42.6019 43.75 42.1875 43.75Z" fill="#9AF50A"/>
</svg>
