<svg width="54" height="54" viewBox="0 0 54 54" fill="none" xmlns="http://www.w3.org/2000/svg">
<path d="M47 0.125H7C3.2 0.125 0.125 3.2 0.125 7V47C0.125 50.8 3.2 53.875 7 53.875H47C50.8 53.875 53.875 50.8 53.875 47V7C53.875 3.2 50.8 0.125 47 0.125ZM3.875 7C3.875 5.275 5.275 3.875 7 3.875H47C48.725 3.875 50.125 5.275 50.125 7V10.125H3.875V7ZM50.125 47C50.125 48.725 48.725 50.125 47 50.125H7C5.275 50.125 3.875 48.725 3.875 47V13.875H50.125V47ZM10.25 33.325C9.9013 32.9722 9.70575 32.4961 9.70575 32C9.70575 31.5039 9.9013 31.0278 10.25 30.675L16.5 24.425C17.225 23.7 18.425 23.7 19.15 24.425C19.875 25.15 19.875 26.35 19.15 27.075L14.225 32L19.15 36.925C19.875 37.65 19.875 38.85 19.15 39.575C18.775 39.95 18.3 40.125 17.825 40.125C17.35 40.125 16.875 39.95 16.5 39.575L10.25 33.325ZM34.825 36.925L39.75 32L34.825 27.075C34.1 26.35 34.1 25.15 34.825 24.425C35.55 23.7 36.75 23.7 37.475 24.425L43.725 30.675C44.45 31.4 44.45 32.6 43.725 33.325L37.475 39.575C37.1 39.95 36.625 40.125 36.15 40.125C35.675 40.125 35.2 39.95 34.825 39.575C34.4763 39.2222 34.2808 38.7461 34.2808 38.25C34.2808 37.7539 34.4763 37.2778 34.825 36.925ZM22.125 41.45L28.25 21.45C28.55 20.475 29.6 19.9 30.6 20.2C31.6 20.5 32.15 21.55 31.85 22.55L25.725 42.55C25.5751 43.0247 25.2449 43.4215 24.8055 43.6553C24.366 43.889 23.8524 43.941 23.375 43.8C23.1381 43.7286 22.9177 43.611 22.7264 43.454C22.5352 43.297 22.3769 43.1037 22.2607 42.8853C22.1445 42.6668 22.0727 42.4275 22.0494 42.1812C22.0261 41.9349 22.0518 41.6864 22.125 41.45Z" fill="white"/>
</svg>
