<svg width="58" height="58" viewBox="0 0 58 58" fill="none" xmlns="http://www.w3.org/2000/svg">
<path d="M43.6531 0.875H14.3469C6.91813 0.875 0.875 6.91813 0.875 14.345V43.655C0.875 51.0819 6.91813 57.125 14.3469 57.125H43.655C51.0819 57.125 57.125 51.0819 57.125 43.655V14.345C57.125 6.91813 51.0819 0.875 43.6531 0.875ZM53.375 43.655C53.372 46.2323 52.3467 48.7032 50.5241 50.5255C48.7015 52.3477 46.2304 53.3725 43.6531 53.375H14.3469C11.7696 53.3725 9.29849 52.3477 7.47587 50.5255C5.65326 48.7032 4.62798 46.2323 4.625 43.655V14.345C4.62798 11.7677 5.65326 9.29681 7.47587 7.47455C9.29849 5.65229 11.7696 4.62748 14.3469 4.625H43.655C46.232 4.62798 48.7026 5.653 50.5248 7.47521C52.347 9.29742 53.372 11.768 53.375 14.345V43.655Z" fill="white"/>
<path d="M42.125 10.25C39.0238 10.25 36.5 12.7737 36.5 15.875C36.5 18.9762 39.0238 21.5 42.125 21.5C45.2262 21.5 47.75 18.9762 47.75 15.875C47.75 12.7737 45.2262 10.25 42.125 10.25ZM42.125 17.75C41.6422 17.7284 41.1864 17.5214 40.8524 17.1722C40.5184 16.8229 40.332 16.3583 40.332 15.875C40.332 15.3917 40.5184 14.9271 40.8524 14.5778C41.1864 14.2286 41.6422 14.0216 42.125 14C42.6078 14.0216 43.0636 14.2286 43.3976 14.5778C43.7316 14.9271 43.918 15.3917 43.918 15.875C43.918 16.3583 43.7316 16.8229 43.3976 17.1722C43.0636 17.5214 42.6078 17.7284 42.125 17.75ZM35.5625 27.125H20.5625C17.9769 27.125 15.875 25.0212 15.875 22.4375C15.875 19.8538 17.9769 17.75 20.5625 17.75H28.2238L27.6744 18.2994C26.9469 19.0269 26.9469 20.2231 27.6744 20.9506C28.4019 21.6781 29.5981 21.6781 30.3256 20.9506L34.0756 17.2006C34.2499 17.0266 34.3882 16.82 34.4825 16.5925C34.5768 16.3651 34.6254 16.1213 34.6254 15.875C34.6254 15.6287 34.5768 15.3849 34.4825 15.1575C34.3882 14.93 34.2499 14.7234 34.0756 14.5494L30.3256 10.7994C29.974 10.4478 29.4972 10.2503 29 10.2503C28.5028 10.2503 28.026 10.4478 27.6744 10.7994C27.3228 11.151 27.1253 11.6278 27.1253 12.125C27.1253 12.6222 27.3228 13.099 27.6744 13.4506L28.2238 14H20.5625C15.9106 14 12.125 17.7856 12.125 22.4375C12.125 27.0894 15.9106 30.875 20.5625 30.875H35.5625C38.1481 30.875 40.25 32.9788 40.25 35.5625C40.25 38.1462 38.1481 40.25 35.5625 40.25H21.155C20.7695 39.1564 20.0551 38.209 19.1098 37.5375C18.1644 36.8661 17.0345 36.5037 15.875 36.5C12.7737 36.5 10.25 39.0238 10.25 42.125C10.25 45.2262 12.7737 47.75 15.875 47.75C17.0345 47.7463 18.1644 47.3839 19.1098 46.7124C20.0551 46.041 20.7695 45.0936 21.155 44H35.5625C40.2144 44 44 40.2144 44 35.5625C44 30.9106 40.2144 27.125 35.5625 27.125ZM15.875 44C15.3922 43.9784 14.9364 43.7714 14.6024 43.4222C14.2684 43.0729 14.082 42.6083 14.082 42.125C14.082 41.6417 14.2684 41.1771 14.6024 40.8278C14.9364 40.4786 15.3922 40.2716 15.875 40.25C16.3578 40.2716 16.8136 40.4786 17.1476 40.8278C17.4816 41.1771 17.668 41.6417 17.668 42.125C17.668 42.6083 17.4816 43.0729 17.1476 43.4222C16.8136 43.7714 16.3578 43.9784 15.875 44Z" fill="white"/>
</svg>
