<svg width="576" height="576" viewBox="0 0 576 576" fill="none" xmlns="http://www.w3.org/2000/svg">
<g clip-path="url(#clip0_91_3773)">
<path d="M492.846 381.01C485.904 365.222 472.574 352.047 456.561 345.562C439.882 338.808 420.731 341.267 403.163 339.004C387.905 337.039 376.896 330.228 367.786 318.117C359.056 306.514 351.229 293.663 336.957 288.295C325.679 284.054 312.857 285.229 301.648 289.649C280.994 297.793 265.395 315.108 252.257 332.358C240.261 348.108 230.478 365.354 208.29 365.917C186.089 366.48 164.953 353.816 142.599 357.171C113.055 361.606 88.4506 386.201 83.2946 415.481C78.4625 442.922 90.5879 469.537 111.419 485.175H469.466C495.715 457.33 509.488 418.864 492.846 381.01Z" fill="#F7F0E3"/>
<path d="M169.176 485.175H170.161C177.002 477.657 182.36 468.534 185.766 458.407C191.279 442.017 191.047 424.816 185.112 409.972C182.112 402.47 177.781 395.479 173.592 388.718C169.344 381.861 164.952 374.77 161.97 367.172C160.738 364.031 159.827 360.657 159.279 357.216C159.033 357.184 158.785 357.157 158.538 357.127C159.089 360.691 160.025 364.185 161.3 367.435C164.305 375.094 168.715 382.213 172.98 389.097C177.152 395.832 181.467 402.796 184.443 410.239C190.315 424.924 190.542 441.949 185.083 458.178C181.635 468.43 176.165 477.638 169.176 485.175Z" fill="white"/>
<path d="M467.736 453.949C475.114 455.521 482.223 456.931 489.098 457.818C489.216 457.591 489.331 457.362 489.447 457.135C482.514 456.253 475.339 454.833 467.887 453.245C456.54 450.827 444.258 448.211 432.078 448.211C424.536 448.211 417.033 449.214 409.815 451.889C407.08 452.902 404.445 454.187 401.936 455.718C395.419 452.941 388.868 449.909 382.377 446.58C387.087 443.032 391.845 439.558 396.656 436.199C432.361 411.267 465.314 397.132 497.149 393.12C497.085 392.886 497.019 392.653 496.953 392.42C465.032 396.465 432.008 410.636 396.244 435.608C391.332 439.039 386.472 442.589 381.667 446.214C374.368 442.443 367.156 438.298 360.176 433.725C347.517 425.431 332.459 413.591 319.309 397.859C370.27 392.142 422.154 384.938 464.524 356.621C466.133 355.545 467.915 354.277 469.761 352.839C469.557 352.694 469.351 352.551 469.145 352.408C467.375 353.779 465.669 354.989 464.124 356.022C421.765 384.332 369.785 391.48 318.757 397.197C309.465 385.957 301.162 372.754 295.392 357.47C286.404 333.661 286.878 310.297 296.694 293.368C297.12 292.632 297.57 291.909 298.034 291.192C297.624 291.38 297.218 291.575 296.812 291.771C296.559 292.18 296.311 292.591 296.071 293.006C286.146 310.124 285.653 333.712 294.718 357.724C300.457 372.925 308.686 386.076 317.903 397.292C314.949 397.622 311.995 397.948 309.049 398.273C298.423 399.446 287.435 400.659 276.766 402.032C272.871 402.534 268.911 403.118 264.97 403.851C256.523 386.022 247.243 368.628 235.248 353.711C235.076 353.882 234.902 354.048 234.728 354.217C246.621 369.02 255.843 386.284 264.239 403.989C247.051 407.267 230.361 413.429 221.45 427.772C213.127 441.167 213.134 459.682 221.472 482.804C221.76 483.604 222.057 484.392 222.359 485.175H223.13C222.8 484.319 222.471 483.453 222.149 482.559C213.89 459.655 213.861 441.35 222.062 428.152C230.867 413.979 247.466 407.9 264.558 404.661C267.54 410.969 270.421 417.33 273.284 423.651L273.596 424.339C283.539 446.29 293.824 467.474 307.29 485.175H308.189C294.6 467.441 284.258 446.13 274.252 424.042L273.94 423.354C271.102 417.087 268.245 410.78 265.29 404.525C269.154 403.811 273.038 403.238 276.859 402.747C287.521 401.374 298.505 400.161 309.128 398.989C312.23 398.647 315.34 398.304 318.452 397.955C331.727 413.933 346.978 425.938 359.781 434.328C366.685 438.851 373.815 442.956 381.03 446.695C368.782 455.959 356.868 465.706 345.237 475.223C341.209 478.518 337.135 481.847 333.028 485.175H334.17C338.043 482.033 341.889 478.891 345.692 475.78C357.406 466.197 369.404 456.381 381.739 447.062C388.194 450.382 394.709 453.41 401.191 456.183C392.322 461.823 385.096 470.556 380.725 481.162C380.178 482.489 379.7 483.83 379.258 485.176H380.016C380.434 483.922 380.881 482.673 381.391 481.436C385.773 470.802 393.061 462.077 401.997 456.527C420.117 464.225 437.926 469.94 453.228 474.467L453.804 474.637C460.253 476.544 466.848 478.498 472.682 481.636C472.845 481.45 473.009 481.265 473.171 481.078C467.243 477.862 460.55 475.881 454.008 473.947L453.432 473.776C438.286 469.295 420.682 463.65 402.755 456.066C405.091 454.676 407.535 453.502 410.066 452.564C428.745 445.641 449.461 450.056 467.736 453.949Z" fill="white"/>
<path d="M113.224 407.311C116.404 420.328 114.985 434.386 109.331 445.88C105.627 453.41 100.279 460.225 93.6917 466.079C93.8227 466.283 93.9566 466.485 94.0897 466.688C100.784 460.757 106.217 453.842 109.977 446.198C115.705 434.555 117.143 420.318 113.923 407.14C111.407 396.844 106.35 388.123 99.3627 381.812C99.2069 381.996 99.0522 382.18 98.8984 382.365C105.769 388.577 110.745 397.167 113.224 407.311Z" fill="white"/>
<path d="M276.18 242.414C282.452 248.824 285.263 259.621 281.805 269.577C278.457 279.216 271.116 287.201 262.296 292.334C255.2 296.463 245.944 298.742 238.965 294.417C233.75 291.185 231.046 284.844 230.895 278.711C230.745 272.577 232.808 266.6 235.357 261.019C238.951 253.153 243.787 245.525 250.992 240.741C260.923 234.147 270.151 236.253 276.18 242.414Z" fill="#F7F0E3"/>
<path d="M193.037 130.037H141.099V106.835H193.037V130.037ZM142.179 128.957H191.957V107.915H142.179V128.957Z" fill="#E9DDCA"/>
<path d="M159.249 152.226H107.311V129.023H159.249V152.226ZM108.391 151.146H158.169V130.103H108.391V151.146Z" fill="#E9DDCA"/>
<path d="M488.553 176.949C485.19 165.767 479.275 155.5 470.807 146.113C462.323 136.727 450.751 128.978 436.092 122.85C421.433 116.721 402.808 113.657 380.216 113.657C362.194 113.657 343.828 116.087 325.116 120.948C306.387 125.826 290.142 132.764 276.363 141.781L294.298 191.023L284.685 198.81L298.627 202.907C312.389 195.704 324.926 190.474 336.239 187.216C347.535 183.976 359.538 182.356 372.266 182.356C384.976 182.356 394.599 185.42 401.135 191.548C407.671 197.695 410.93 205.073 410.93 213.738C410.93 224.198 407.567 233.479 400.876 241.598C394.15 249.716 386.735 257.923 378.612 266.217C372.972 271.976 367.488 277.928 362.194 284.057C356.9 290.203 352.209 296.772 348.156 303.816C344.086 310.843 340.827 318.415 338.361 326.534C335.877 334.652 334.653 343.757 334.653 353.848C334.653 357.105 334.722 360.98 334.912 365.488C334.943 366.32 334.987 367.131 335.037 367.931H321.857L336.239 377.657H406.171C405.808 375.491 405.636 372.973 405.636 370.084C405.636 367.196 405.636 365.03 405.636 363.586C405.636 357.458 406.878 351.417 409.344 345.465C411.81 339.513 414.914 333.842 418.622 328.418C422.33 323.012 426.469 317.869 431.074 313.009C435.661 308.131 440.076 303.534 444.319 299.202C449.958 293.444 455.787 287.315 461.788 280.817C467.79 274.319 473.102 267.486 477.689 260.265C482.276 253.045 486.07 245.208 489.071 236.72C492.072 228.249 493.589 218.969 493.589 208.86C493.589 198.769 491.899 188.132 488.553 176.949Z" fill="#E49B31"/>
<path d="M357.46 178.921C344.883 178.921 333.02 180.489 321.857 183.625C310.677 186.778 298.286 191.84 284.685 198.81L262.682 139.653C276.3 130.927 292.355 124.212 310.864 119.491C329.356 114.787 347.507 112.435 365.317 112.435C387.644 112.435 406.051 115.4 420.538 121.331C435.025 127.262 446.46 134.761 454.846 143.846C463.214 152.93 469.06 162.866 472.383 173.688C475.69 184.511 477.36 194.805 477.36 204.571C477.36 214.354 475.86 223.336 472.895 231.533C469.929 239.748 466.18 247.333 461.646 254.32C457.113 261.308 451.863 267.921 445.932 274.21C440.001 280.499 434.241 286.43 428.667 292.003C424.475 296.196 420.112 300.644 415.578 305.365C411.027 310.069 406.937 315.046 403.273 320.278C399.608 325.527 396.541 331.015 394.103 336.776C391.666 342.536 390.439 348.382 390.439 354.313C390.439 355.711 390.439 357.807 390.439 360.602C390.439 363.397 390.61 365.835 390.967 367.931H321.857C321.141 364.437 320.715 360.517 320.545 356.154C320.357 351.791 320.289 348.042 320.289 344.889C320.289 335.123 321.499 326.311 323.953 318.454C326.39 310.598 329.611 303.269 333.634 296.469C337.639 289.651 342.274 283.294 347.507 277.346C352.739 271.415 358.159 265.654 363.732 260.081C371.76 252.054 379.088 244.112 385.735 236.255C392.348 228.398 395.671 219.416 395.671 209.292C395.671 200.907 392.45 193.766 385.991 187.818C379.531 181.886 370.021 178.921 357.46 178.921Z" fill="#FBC343"/>
<path d="M410.956 445.537C410.956 458.145 406.875 467.874 398.712 474.737C390.549 481.614 381.324 485.039 371.022 485.039C360.706 485.039 351.481 481.614 343.318 474.737C335.169 467.874 331.087 458.145 331.087 445.537C331.087 432.943 335.169 423.215 343.318 416.338C355.883 405.734 374.473 403.371 389.185 410.813C402.239 417.417 410.956 430.829 410.956 445.537Z" fill="#E49B31"/>
<path d="M397.276 445.537C397.276 458.145 393.195 467.874 385.032 474.737C376.869 481.614 367.644 485.039 357.342 485.039C347.026 485.039 337.801 481.614 329.638 474.737C321.489 467.874 317.407 458.145 317.407 445.537C317.407 432.943 321.489 423.215 329.638 416.338C337.801 409.475 347.026 406.036 357.342 406.036C367.644 406.036 376.869 409.474 385.032 416.338C393.195 423.215 397.276 432.943 397.276 445.537Z" fill="#FBC343"/>
<path d="M190.248 266.788C191.014 262.7 188.321 258.765 184.233 257.999C180.145 257.233 176.209 259.926 175.443 264.014C174.677 268.102 177.37 272.037 181.458 272.804C185.547 273.57 189.482 270.877 190.248 266.788Z" fill="#D3DFFF"/>
<path d="M193.851 280.946C194.282 278.646 192.754 276.431 190.438 275.997C188.122 275.563 185.896 277.075 185.465 279.374C185.034 281.674 186.562 283.89 188.878 284.324C191.193 284.758 193.42 283.245 193.851 280.946Z" fill="#D3DFFF"/>
<path d="M185.227 248.458C196.807 236.878 196.807 218.103 185.227 206.523C173.647 194.943 154.872 194.943 143.292 206.523C131.712 218.103 131.712 236.878 143.292 248.458C154.872 260.038 173.647 260.038 185.227 248.458Z" fill="#D3DFFF"/>
<path d="M152.876 231.227C154.939 231.227 156.612 229.554 156.612 227.491C156.612 225.428 154.939 223.755 152.876 223.755C150.813 223.755 149.14 225.428 149.14 227.491C149.14 229.554 150.813 231.227 152.876 231.227Z" fill="white"/>
<path d="M164.262 231.227C166.325 231.227 167.998 229.554 167.998 227.491C167.998 225.428 166.325 223.755 164.262 223.755C162.199 223.755 160.526 225.428 160.526 227.491C160.526 229.554 162.199 231.227 164.262 231.227Z" fill="white"/>
<path d="M175.648 231.227C177.711 231.227 179.384 229.554 179.384 227.491C179.384 225.428 177.711 223.755 175.648 223.755C173.584 223.755 171.912 225.428 171.912 227.491C171.912 229.554 173.584 231.227 175.648 231.227Z" fill="white"/>
<path d="M143.02 470.195L145.79 480.876C146.513 483.661 149.206 485.543 152.186 485.341C161.27 484.723 180.145 482.498 190.978 474.513L187.898 459.12C173.004 458.278 159.074 459.107 147.012 463.167C143.993 464.184 142.246 467.211 143.02 470.195Z" fill="#102048"/>
<path d="M160.38 478.697C160.222 478.697 160.078 478.593 160.033 478.434L156.313 465.114C156.26 464.922 156.372 464.724 156.563 464.67C156.756 464.617 156.953 464.729 157.007 464.92L160.727 478.24C160.78 478.432 160.669 478.63 160.477 478.684C160.445 478.693 160.412 478.697 160.38 478.697Z" fill="white"/>
<path d="M168.42 476.897C168.262 476.897 168.118 476.793 168.073 476.634L164.353 463.314C164.3 463.122 164.411 462.924 164.603 462.87C164.796 462.816 164.993 462.929 165.047 463.12L168.767 476.44C168.82 476.632 168.708 476.83 168.517 476.884C168.484 476.893 168.452 476.897 168.42 476.897Z" fill="white"/>
<path d="M177.758 412.457L143.139 422.732L168.848 457.958L205.758 460.893L256.667 439.366L237.322 410.255L177.758 412.457Z" fill="#2C3B47"/>
<path d="M220.437 417.35C296.462 394.844 308.68 462.035 190.061 474.266C185.871 469.552 180.975 461.371 179.03 454.533L241.671 425.586L220.437 417.35Z" fill="#2C3B47"/>
<path d="M223.666 465.504C220.111 464.366 216.703 462.116 216.703 462.116L204.485 465.949L207.285 479.24L219.978 481.819C223.844 474.747 224.07 468.94 223.666 465.504Z" fill="#F9B384"/>
<path d="M179.302 455L178.759 454.066C191.827 446.471 225.301 428.225 253.82 422.844L254.02 423.906C225.665 429.256 192.322 447.433 179.302 455Z" fill="white"/>
<path d="M177.758 412.457C106.993 399.003 88.6657 467.009 207.285 479.24C211.475 474.526 214.759 468.955 216.703 462.117C198.482 449.925 178.11 438.337 155.782 427.298L177.758 412.457Z" fill="#2C3B47"/>
<path d="M216.413 462.572C213.047 460.43 209.54 458.165 205.826 455.767C187.185 443.731 166.056 430.089 148.105 422.311L148.535 421.32C166.567 429.134 187.735 442.801 206.412 454.86C210.124 457.257 213.63 459.52 216.993 461.661L216.413 462.572Z" fill="white"/>
<path d="M125.838 446.176L124.893 445.654C127.549 440.845 131.804 437.602 137.538 436.014L137.827 437.054C132.305 438.584 128.384 441.567 125.838 446.176Z" fill="white"/>
<path d="M273.534 442.082C270.988 437.474 267.067 434.49 261.546 432.96L261.834 431.92C267.569 433.508 271.823 436.752 274.479 441.56L273.534 442.082Z" fill="white"/>
<path d="M200.659 478.643L199.869 477.906C205.53 471.843 209.007 465.443 210.498 458.34L211.555 458.562C210.022 465.864 206.458 472.433 200.659 478.643Z" fill="white"/>
<path d="M258.958 461.545C249.892 455.944 232.316 465.623 227.904 466.112C226.617 466.255 225.129 465.973 223.666 465.505C224.07 468.94 223.844 474.747 219.978 481.819L222.134 482.257C222.134 482.257 237.038 487.721 252.849 484.541C267.443 481.605 266.086 465.949 258.958 461.545Z" fill="#102048"/>
<path d="M246.6 479.867C246.564 479.867 246.528 479.861 246.492 479.85C246.302 479.79 246.197 479.588 246.257 479.398C247.334 475.988 247.804 469.278 244.684 464.772C244.571 464.608 244.612 464.384 244.775 464.271C244.938 464.157 245.163 464.198 245.276 464.362C248.543 469.081 248.063 476.069 246.943 479.615C246.895 479.769 246.753 479.867 246.6 479.867Z" fill="white"/>
<path d="M239.49 481.217C239.454 481.217 239.418 481.212 239.382 481.2C239.192 481.14 239.087 480.938 239.147 480.749C240.224 477.338 240.694 470.628 237.574 466.122C237.461 465.958 237.502 465.734 237.665 465.621C237.828 465.508 238.053 465.548 238.166 465.712C241.433 470.431 240.953 477.419 239.833 480.965C239.785 481.119 239.643 481.217 239.49 481.217Z" fill="white"/>
<path d="M165.238 324.772C165.238 324.772 183.06 309.617 182.4 306.737C181.929 304.679 176.88 307.697 176.88 307.697C176.88 307.697 183.96 299.297 183.6 298.277C182.957 296.455 178.06 299.852 178.06 299.852C178.06 299.852 181.37 295.088 179.788 294.312C178.205 293.536 174.756 296.472 174.756 296.472C174.756 296.472 176.771 293.827 175.824 293.133C174.877 292.439 170.792 295.292 170.792 295.292C170.792 295.292 172.258 291.957 169.144 293.221C166.03 294.486 144.194 314.525 144.194 314.525L165.238 324.772Z" fill="#F9B384"/>
<path d="M172.53 306.797C172.443 306.797 172.356 306.766 172.287 306.703C169.228 303.908 167.879 303.23 164.504 302.191C164.314 302.133 164.208 301.932 164.266 301.741C164.324 301.551 164.526 301.444 164.716 301.503C168.213 302.579 169.61 303.281 172.773 306.171C172.92 306.306 172.93 306.533 172.796 306.68C172.725 306.758 172.628 306.797 172.53 306.797Z" fill="white"/>
<path d="M167.16 315.017C167.144 315.017 167.127 315.016 167.11 315.014C166.913 314.986 166.776 314.804 166.804 314.608C167.154 312.102 167.943 310.536 169.215 309.82C170.303 309.208 171.719 309.271 173.423 310.007C173.605 310.085 173.689 310.297 173.61 310.48C173.532 310.663 173.32 310.747 173.137 310.668C171.651 310.026 170.45 309.952 169.568 310.448C168.519 311.037 167.829 312.47 167.517 314.707C167.491 314.887 167.337 315.017 167.16 315.017Z" fill="white"/>
<path d="M166.32 299.867C166.224 299.867 166.129 299.829 166.058 299.754C165.921 299.609 165.928 299.381 166.073 299.245L170.545 295.03C170.69 294.893 170.917 294.901 171.054 295.045C171.19 295.19 171.183 295.418 171.039 295.554L166.567 299.769C166.497 299.835 166.409 299.867 166.32 299.867Z" fill="white"/>
<path d="M170.46 301.307C170.37 301.307 170.281 301.274 170.211 301.207C170.067 301.069 170.063 300.841 170.2 300.698L174.496 296.222C174.633 296.078 174.861 296.074 175.005 296.212C175.148 296.349 175.153 296.577 175.015 296.721L170.72 301.196C170.649 301.27 170.555 301.307 170.46 301.307Z" fill="white"/>
<path d="M174.69 303.827C174.602 303.827 174.514 303.795 174.445 303.73C174.299 303.595 174.291 303.367 174.427 303.221L177.797 299.606C177.933 299.461 178.16 299.453 178.306 299.588C178.451 299.724 178.459 299.952 178.324 300.097L174.953 303.712C174.882 303.789 174.786 303.827 174.69 303.827Z" fill="white"/>
<path d="M232.56 426.135L167.4 428.655L160.2 369.255C160.2 369.255 182.014 348.564 190.407 340.945L204.575 340.219C248.533 360.199 241.335 385.155 232.56 426.135Z" fill="#314C5D"/>
<path d="M204.575 340.219C204.575 340.219 254.866 344.519 270.72 378.975C286.234 412.69 222.48 424.695 222.48 424.695L204.575 340.219Z" fill="#314C5D"/>
<path d="M147.089 347.602L167.871 322.312L148.437 310.535C140.331 316.171 124.654 328.938 111.369 343.396C108.437 346.587 106.146 350.315 104.992 354.419C104.008 357.921 103.829 361.381 104.382 364.768C105.824 373.597 112.769 380.41 122.04 381.495C129.957 382.422 160.2 380.055 184.68 372.855L191.88 345.066C188.18 342.967 160.683 342.602 147.089 347.602Z" fill="#314C5D"/>
<g opacity="0.8">
<path d="M246.544 353.892C246.652 353.868 246.761 353.843 246.869 353.818C246.642 353.683 246.414 353.553 246.186 353.42C242.5 354.269 238.698 355.136 234.949 355.588C232.696 355.859 225.17 356.356 222.97 351.342C221.876 348.847 222.704 346.072 223.942 344.125C223.761 344.072 223.582 344.022 223.402 343.97C222.135 346.033 221.321 348.928 222.476 351.558C224.824 356.915 232.667 356.407 235.014 356.124C238.871 355.659 242.771 354.762 246.544 353.892Z" fill="white"/>
<path d="M270.014 392.753C267.611 391.824 265.129 390.865 262.52 391.111C257.943 391.543 254.026 396.069 253.789 401.2C253.627 404.698 254.963 408.365 257.511 411.589C257.664 411.493 257.817 411.397 257.97 411.3C255.479 408.166 254.171 404.609 254.328 401.225C254.554 396.353 258.251 392.057 262.57 391.648C265.052 391.418 267.367 392.309 269.819 393.256C270.694 393.594 271.584 393.935 272.488 394.225C272.534 394.051 272.58 393.876 272.622 393.7C271.741 393.417 270.87 393.084 270.014 392.753Z" fill="white"/>
<path d="M143.078 375.579C139.938 372.982 135.06 372.288 129.696 373.675C124.915 374.912 120.813 377.361 117.996 380.602C118.181 380.662 118.362 380.73 118.549 380.784C121.291 377.709 125.24 375.385 129.83 374.198C135.024 372.854 139.729 373.51 142.734 375.995C144.163 377.176 145.173 378.71 145.907 380.365C146.092 380.344 146.278 380.322 146.465 380.301C145.697 378.52 144.626 376.858 143.078 375.579Z" fill="white"/>
<path d="M114.694 339.864C120.577 338.403 126.318 336.349 131.613 333.299C133.614 332.147 135.873 330.677 137.462 328.52C139.153 326.224 139.714 323.491 138.965 321.21C138.671 320.315 138.15 319.529 137.5 318.899C137.362 319.012 137.223 319.126 137.085 319.24C137.692 319.818 138.179 320.547 138.452 321.379C139.147 323.494 138.614 326.044 137.028 328.2C135.498 330.277 133.296 331.707 131.344 332.831C126.35 335.708 120.947 337.698 115.398 339.135C115.163 339.377 114.928 339.621 114.694 339.864Z" fill="white"/>
</g>
<path d="M209.177 327.012L209.168 327.934L209.022 342.257L209.004 343.808C208.977 346.236 207.982 348.436 206.375 350.034C204.778 351.622 202.578 352.617 200.14 352.635C195.229 352.663 191.213 348.719 191.168 343.799L190.994 326.099L209.177 327.012Z" fill="#F9B384"/>
<path d="M209.168 327.935L209.022 342.257C201.062 339.016 197.785 330.399 197.785 330.399L209.168 327.935Z" fill="#102048"/>
<path d="M212.317 302.941C215.17 306.365 223.5 325.762 215.056 332.38C205.554 339.827 191.094 327.588 191.094 327.588L189.154 304.995L201.706 301.686L212.317 302.941Z" fill="#F9B384"/>
<path d="M182.76 301.697C182.76 301.697 154.92 316.217 177.62 358.072C180.535 363.448 186.993 365.795 192.518 363.171C198.444 360.358 200.688 353.118 197.47 347.401C193.757 340.805 190.173 332.311 191.703 325.99L182.76 301.697Z" fill="#102048"/>
<path d="M190.711 313.894C193.652 310.953 193.652 306.185 190.711 303.244C187.77 300.303 183.002 300.303 180.061 303.244C177.12 306.185 177.12 310.953 180.061 313.894C183.002 316.835 187.77 316.835 190.711 313.894Z" fill="#2C3B47"/>
<path d="M194.654 317.619C193.84 312.921 193.344 309.699 198.093 307.277C198.093 307.277 214.828 310.32 218.023 304.006C221.218 297.692 216.349 287.727 206.156 294.65C180.064 289.553 176.565 313.971 184.476 322.111L192.284 320.912C193.856 320.671 194.925 319.185 194.654 317.619Z" fill="#102048"/>
<path d="M207.611 318.745C208.225 318.745 208.723 318.247 208.723 317.632C208.723 317.018 208.225 316.52 207.611 316.52C206.996 316.52 206.498 317.018 206.498 317.632C206.498 318.247 206.996 318.745 207.611 318.745Z" fill="#102048"/>
<path d="M215.141 315.036C215.756 315.036 216.254 314.538 216.254 313.924C216.254 313.309 215.756 312.811 215.141 312.811C214.527 312.811 214.029 313.309 214.029 313.924C214.029 314.538 214.527 315.036 215.141 315.036Z" fill="#102048"/>
<path d="M214.371 321.056C214.293 321.056 214.215 321.028 214.155 320.97C214.028 320.85 214.023 320.651 214.143 320.524C214.589 320.055 215.078 319.394 214.873 318.916C214.659 318.419 213.758 318.204 213.345 318.204C212.457 318.204 212.031 316.625 211.955 316.308C211.914 316.139 212.018 315.969 212.187 315.928C212.355 315.886 212.526 315.991 212.567 316.16C212.729 316.827 213.096 317.574 213.345 317.574C213.77 317.574 215.069 317.775 215.452 318.667C215.725 319.304 215.439 320.075 214.6 320.958C214.538 321.024 214.455 321.056 214.371 321.056Z" fill="#102048"/>
<path d="M214.428 325.278C214.367 325.278 214.306 325.26 214.252 325.224C212.158 323.81 210.043 324.996 210.021 325.008C209.871 325.095 209.678 325.043 209.591 324.892C209.504 324.741 209.556 324.548 209.707 324.462C209.807 324.404 212.188 323.07 214.604 324.702C214.748 324.799 214.787 324.995 214.689 325.139C214.629 325.23 214.529 325.278 214.428 325.278Z" fill="#102048"/>
<path d="M207.123 312.814C207.756 314.005 206.653 314.244 205.361 314.931C204.069 315.617 202.746 315.869 202.444 315.3C202.142 314.732 202.945 313.715 204.237 313.028C205.529 312.342 206.633 311.892 207.123 312.814Z" fill="#102048"/>
<path d="M211.836 310.664C212.114 311.727 212.907 311.261 214.061 310.959C215.214 310.657 216.146 310.078 216.013 309.571C215.88 309.064 214.838 308.897 213.684 309.199C212.531 309.501 211.621 309.84 211.836 310.664Z" fill="#102048"/>
<path opacity="0.4" d="M204.712 325.234C206.044 324.006 206.128 321.93 204.899 320.598C203.671 319.266 201.595 319.183 200.263 320.411C198.931 321.639 198.848 323.715 200.076 325.047C201.304 326.379 203.38 326.463 204.712 325.234Z" fill="#EB5D60"/>
<path d="M194.015 325.902C195.514 323.959 194.94 321.004 192.732 319.3C190.525 317.597 187.52 317.791 186.021 319.733C184.522 321.676 185.096 324.632 187.304 326.335C189.511 328.039 192.516 327.845 194.015 325.902Z" fill="#F9B384"/>
<path d="M191.97 324.482C191.796 324.482 191.655 324.341 191.655 324.167C191.655 323.237 191.202 322.377 190.443 321.867C189.794 321.43 189.019 321.328 188.373 321.592C188.211 321.656 188.028 321.58 187.962 321.419C187.896 321.258 187.973 321.074 188.135 321.008C188.976 320.665 189.97 320.79 190.794 321.344C191.728 321.971 192.285 323.027 192.285 324.167C192.285 324.341 192.144 324.482 191.97 324.482Z" fill="#102048"/>
<path d="M146.82 347.347L135.453 359.644L135.982 360.133L147.349 347.836L146.82 347.347Z" fill="#102048"/>
<path d="M226.905 400.201L226.695 399.513C234.97 396.991 243.001 393.973 250.279 384.872L250.841 385.322C243.435 394.584 235.293 397.645 226.905 400.201Z" fill="#102048"/>
<path d="M231.936 372.319H161.544C159.012 372.319 156.96 374.54 156.96 377.278V427.536C156.96 430.275 159.012 432.495 161.544 432.495H231.937C234.468 432.495 236.52 430.275 236.52 427.536V377.278C236.52 374.54 234.468 372.319 231.936 372.319Z" fill="#D3DFFF"/>
<path d="M200.456 399.231C200.723 399.231 200.94 399.465 200.94 399.754V405.06C200.94 405.349 200.723 405.584 200.456 405.584H193.024C192.757 405.584 192.54 405.349 192.54 405.06V399.754C192.54 399.465 192.757 399.231 193.024 399.231H200.456ZM200.456 397.791H193.024C191.963 397.791 191.1 398.671 191.1 399.754V405.06C191.1 406.143 191.963 407.024 193.024 407.024H200.456C201.517 407.024 202.38 406.143 202.38 405.06V399.754C202.38 398.671 201.517 397.791 200.456 397.791Z" fill="#1F3C88"/>
<path d="M505.134 484.455H80.7152V485.895H505.134V484.455Z" fill="#102048"/>
</g>
<defs>
<clipPath id="clip0_91_3773">
<rect width="576" height="576" fill="white"/>
</clipPath>
</defs>
</svg>
