<svg width="263" height="350" viewBox="0 0 263 350" fill="none" xmlns="http://www.w3.org/2000/svg">
<path d="M32.6289 185.754L42.9211 206.128L73.6888 220.117C76.975 225.67 87.4172 226.095 88.1768 222.506C89.029 218.477 75.4953 211.993 75.4953 211.993L49.7574 194.584L47.5054 179.598L32.6289 185.754Z" fill="#ED9DA0"/>
<path d="M33.843 322.477L31.9451 337.659L42.9535 338.419L44.091 322.477L33.843 322.477Z" fill="#ED9DA0"/>
<path d="M35.3602 335.383C34.3761 334.343 33.4682 333.233 32.6437 332.062C31.0677 329.878 29.6676 341.077 29.6676 341.077C29.6676 341.077 28.149 345.632 28.5301 347.91C28.9112 350.188 37.6397 350.188 39.1587 349.809C40.6778 349.431 48.2683 349.809 48.2683 349.809H59.6561C69.5256 345.254 59.6561 342.217 59.6561 342.217C56.6192 341.838 46.3708 332.348 46.3708 332.348L44.0931 328.172C42.5749 327.793 41.0563 333.487 41.0563 333.487L35.3602 335.383Z" fill="#2C3B47"/>
<path d="M5.37315 322.668L3.47388 337.85L14.4823 338.609L15.6198 322.666L5.37315 322.668Z" fill="#ED9DA0"/>
<path d="M6.89267 335.575C5.90861 334.534 5.00072 333.424 4.17609 332.253C2.5984 330.07 1.19878 341.269 1.19878 341.269C1.19878 341.269 -0.3194 345.444 0.0612414 347.721C0.441883 349.999 9.17081 349.997 10.6899 349.621C12.2089 349.245 19.7995 350.001 19.7995 350.001H31.1872C41.0568 345.446 31.1872 342.409 31.1872 342.409C28.1504 342.029 17.9019 332.539 17.9019 332.539L15.6242 328.364C14.106 327.984 12.5874 333.678 12.5874 333.678L6.89267 335.575Z" fill="#2C3B47"/>
<path d="M17.9006 224.735C16.382 226.634 17.1415 233.085 17.1415 233.085C17.1415 233.085 14.4845 253.963 15.6233 255.86C16.7622 257.758 14.8642 259.277 13.724 261.934C12.5839 264.592 11.4459 271.044 11.4459 271.044C4.99293 276.358 5.37225 300.651 5.37225 300.651L3.09717 322.288C3.85626 324.565 14.4849 324.945 16.004 324.565C17.523 324.186 22.0776 290.023 22.0776 290.023L32.326 270.664C32.326 270.664 31.567 322.287 31.567 324.566C31.567 326.845 41.8154 325.704 44.0931 325.704C46.3709 325.704 46.3709 287.745 46.3709 287.745L48.6486 277.876L60.7954 232.706V227.39L58.8961 224.733C58.8961 224.733 19.4188 222.837 17.9006 224.735Z" fill="#314C5D"/>
<path d="M40.4854 132.307C38.1005 137.618 39.5123 145.038 44.2839 153.184L24.9246 144.074L27.9614 141.417L27.204 133.827L40.4854 132.307Z" fill="#ED9DA0"/>
<path d="M34.6013 138.57C41.1003 138.57 46.3688 133.302 46.3688 126.803C46.3688 120.304 41.1003 115.035 34.6013 115.035C28.1022 115.035 22.8337 120.304 22.8337 126.803C22.8337 133.302 28.1022 138.57 34.6013 138.57Z" fill="#ED9DA0"/>
<path d="M40.4863 144.453C43.0213 145.961 44.5377 148.73 45.4084 151.548C47.0196 156.764 47.9893 162.158 48.296 167.609L49.2148 183.929L60.6026 227.202C50.7339 235.553 45.0418 233.655 31.7543 226.822C18.4669 219.99 16.95 229.101 16.95 229.101C16.95 229.101 15.8124 228.722 16.95 227.583C18.0875 226.445 16.95 227.583 15.8124 226.446C14.6749 225.308 15.8124 226.446 16.1922 225.308C16.572 224.171 16.1922 224.928 15.8124 224.549C15.4327 224.17 17.3306 220.75 17.3306 220.75L14.2951 192.28L10.4966 152.045C15.0516 146.351 27.9566 141.416 27.9566 141.416L39.7259 149.767C43.5245 151.285 40.485 145.212 40.485 145.212L40.4863 144.453Z" fill="#E6E6E6"/>
<path d="M4.23549 176.148L2.71729 198.923L22.0784 226.633C22.0784 233.086 25.4945 234.605 25.4945 234.605C26.7884 232.54 27.9302 230.383 28.9107 228.152C30.8099 223.976 27.7731 220.56 27.7731 220.56L14.4879 192.471L20.1817 178.427L4.23549 176.148Z" fill="#ED9DA0"/>
<path d="M10.6861 152.236C4.2331 154.513 3.09424 179.187 3.09424 179.187C10.6861 175.011 19.7957 181.844 19.7957 181.844C19.7957 181.844 21.6949 175.391 23.9713 167.04C24.6591 164.691 24.7413 162.207 24.2104 159.817C23.6794 157.428 22.5524 155.212 20.9345 153.375C20.9345 153.375 17.1412 149.959 10.6861 152.236Z" fill="#E6E6E6"/>
<path d="M23.7841 130.407C25.2821 129.209 27.3258 131.387 27.3258 131.387L28.5241 120.601C28.5241 120.601 36.014 121.5 40.8079 120.301C45.6018 119.103 46.3504 124.645 46.3504 124.645C46.5974 122.408 46.6476 120.154 46.5005 117.908C46.2008 115.212 42.3056 112.517 35.4151 110.717C28.5246 108.917 24.9295 116.711 24.9295 116.711C20.1373 119.103 22.286 131.606 23.7841 130.407Z" fill="#090814"/>
<path d="M262.737 83.1741H260.812V30.4916C260.812 22.4048 257.599 14.6492 251.881 8.93093C246.163 3.21266 238.407 0.000116036 230.32 0H118.709C110.622 0 102.867 3.2125 97.1485 8.93078C91.4303 14.6491 88.2178 22.4047 88.2178 30.4916V319.507C88.2178 327.594 91.4303 335.35 97.1485 341.068C102.867 346.787 110.622 349.999 118.709 349.999H230.32C238.407 349.999 246.163 346.787 251.881 341.068C257.6 335.35 260.812 327.594 260.812 319.507V120.669H262.737L262.737 83.1741Z" fill="#090814"/>
<path d="M231.555 7.93359H216.989C217.659 9.57649 217.915 11.359 217.734 13.124C217.552 14.8891 216.94 16.5825 215.95 18.055C214.96 19.5275 213.623 20.734 212.057 21.568C210.491 22.402 208.744 22.8381 206.97 22.8377H143.024C141.25 22.8381 139.503 22.402 137.936 21.568C136.37 20.734 135.033 19.5275 134.044 18.055C133.054 16.5825 132.441 14.8891 132.26 13.124C132.079 11.359 132.335 9.57649 133.005 7.93359H119.401C113.362 7.93359 107.57 10.3326 103.3 14.603C99.0294 18.8733 96.6304 24.6651 96.6304 30.7043V319.298C96.6304 325.337 99.0293 331.129 103.299 335.399C107.57 339.669 113.361 342.068 119.4 342.068H231.552C237.591 342.068 243.383 339.669 247.653 335.399C251.924 331.128 254.323 325.337 254.323 319.298V30.7043C254.323 24.6655 251.924 18.8741 247.654 14.6038C243.385 10.3335 237.594 7.93417 231.555 7.93359Z" fill="white"/>
<path d="M214.321 81.293H110.294C109.327 81.293 108.544 82.0765 108.544 83.043V137.854C108.544 138.82 109.327 139.604 110.294 139.604H214.321C215.287 139.604 216.071 138.82 216.071 137.854V83.043C216.071 82.0765 215.287 81.293 214.321 81.293Z" fill="#FF6600"/>
<path d="M223.17 81.293H254.321V139.604H223.17C222.706 139.604 222.261 139.419 221.933 139.091C221.604 138.763 221.42 138.318 221.42 137.854V83.043C221.42 82.5789 221.604 82.1338 221.933 81.8056C222.261 81.4774 222.706 81.293 223.17 81.293Z" fill="#FF6600"/>
<path d="M121.972 32.9258C124.612 32.9258 127.192 33.7084 129.386 35.1747C131.58 36.641 133.291 38.7251 134.301 41.1635C135.311 43.6018 135.575 46.2849 135.06 48.8735C134.545 51.462 133.274 53.8397 131.408 55.706C129.542 57.5722 127.164 58.8431 124.576 59.358C121.987 59.8729 119.304 59.6087 116.866 58.5987C114.427 57.5887 112.343 55.8783 110.877 53.6838C109.411 51.4894 108.628 48.9094 108.628 46.2701C108.628 42.731 110.034 39.3368 112.536 36.8342C115.039 34.3317 118.433 32.9258 121.972 32.9258Z" fill="#FF6600"/>
<path d="M212.32 39.4883H240.759C241.223 39.4883 241.668 39.6727 241.996 40.0009C242.324 40.3291 242.509 40.7742 242.509 41.2384V50.4263C242.509 50.8904 242.324 51.3355 241.996 51.6637C241.668 51.9919 241.223 52.1763 240.759 52.1763H212.32C211.856 52.1763 211.411 51.9919 211.082 51.6637C210.754 51.3355 210.57 50.8904 210.57 50.4263V41.2384C210.57 40.7742 210.754 40.3291 211.082 40.0009C211.411 39.6727 211.856 39.4883 212.32 39.4883Z" fill="#E6E6E6"/>
<path d="M110.378 161.119H138.379C138.843 161.119 139.289 161.304 139.617 161.632C139.945 161.96 140.129 162.405 140.129 162.869V171.62C140.129 172.084 139.945 172.529 139.617 172.857C139.289 173.185 138.843 173.37 138.379 173.37H110.378C109.914 173.37 109.469 173.185 109.141 172.857C108.812 172.529 108.628 172.084 108.628 171.62V162.869C108.628 162.405 108.812 161.96 109.141 161.632C109.469 161.304 109.914 161.119 110.378 161.119Z" fill="#FF6600"/>
<path d="M148.442 161.119H176.443C176.908 161.119 177.353 161.304 177.681 161.632C178.009 161.96 178.194 162.405 178.194 162.869V171.62C178.194 172.084 178.009 172.529 177.681 172.857C177.353 173.185 176.908 173.37 176.443 173.37H148.442C147.978 173.37 147.533 173.185 147.205 172.857C146.877 172.529 146.692 172.084 146.692 171.62V162.869C146.692 162.405 146.877 161.96 147.205 161.632C147.533 161.304 147.978 161.119 148.442 161.119Z" fill="#E6E6E6"/>
<path d="M186.506 161.119H214.508C214.972 161.119 215.417 161.304 215.745 161.632C216.073 161.96 216.258 162.405 216.258 162.869V171.62C216.258 172.084 216.073 172.529 215.745 172.857C215.417 173.185 214.972 173.37 214.508 173.37H186.506C186.042 173.37 185.597 173.185 185.269 172.857C184.941 172.529 184.756 172.084 184.756 171.62V162.869C184.756 162.405 184.941 161.96 185.269 161.632C185.597 161.304 186.042 161.119 186.506 161.119Z" fill="#E6E6E6"/>
<path d="M214.321 81.293H110.294C109.327 81.293 108.544 82.0765 108.544 83.043V137.854C108.544 138.82 109.327 139.604 110.294 139.604H214.321C215.287 139.604 216.071 138.82 216.071 137.854V83.043C216.071 82.0765 215.287 81.293 214.321 81.293Z" fill="#FF6600"/>
<path d="M110.294 81.293H214.321C214.785 81.293 215.23 81.4774 215.558 81.8056C215.887 82.1338 216.071 82.5789 216.071 83.043V137.854C216.071 138.318 215.887 138.763 215.558 139.091C215.23 139.419 214.785 139.604 214.321 139.604H110.294C109.83 139.604 109.384 139.419 109.056 139.091C108.728 138.763 108.544 138.318 108.544 137.854V83.043C108.544 82.5789 108.728 82.1338 109.056 81.8056C109.384 81.4774 109.83 81.293 110.294 81.293Z" fill="#FF6600"/>
<path d="M110.294 186.418H240.534C240.998 186.418 241.443 186.602 241.771 186.931C242.099 187.259 242.284 187.704 242.284 188.168V283.407C242.284 283.871 242.099 284.316 241.771 284.644C241.443 284.972 240.998 285.157 240.534 285.157H110.294C109.83 285.157 109.384 284.972 109.056 284.644C108.728 284.316 108.544 283.871 108.544 283.407V188.168C108.544 187.704 108.728 187.259 109.056 186.931C109.384 186.602 109.83 186.418 110.294 186.418Z" fill="#F2F2F2"/>
<path d="M110.378 297.625H147.13C147.594 297.625 148.039 297.809 148.367 298.138C148.695 298.466 148.88 298.911 148.88 299.375V324.751C148.88 325.215 148.695 325.66 148.367 325.989C148.039 326.317 147.594 326.501 147.13 326.501H110.378C109.914 326.501 109.469 326.317 109.141 325.989C108.812 325.66 108.628 325.215 108.628 324.751V299.375C108.628 298.911 108.812 298.466 109.141 298.138C109.469 297.809 109.914 297.625 110.378 297.625Z" fill="#2C3B47"/>
<path d="M204.007 297.625H240.759C241.223 297.625 241.668 297.809 241.996 298.138C242.324 298.466 242.509 298.911 242.509 299.375V324.751C242.509 325.215 242.324 325.66 241.996 325.989C241.668 326.317 241.223 326.501 240.759 326.501H204.007C203.543 326.501 203.098 326.317 202.77 325.989C202.441 325.66 202.257 325.215 202.257 324.751V299.375C202.257 298.911 202.441 298.466 202.77 298.138C203.098 297.809 203.543 297.625 204.007 297.625Z" fill="#2C3B47"/>
<path d="M157.63 297.625H193.944C194.408 297.625 194.854 297.809 195.182 298.138C195.51 298.466 195.694 298.911 195.694 299.375V324.751C195.694 325.215 195.51 325.66 195.182 325.989C194.854 326.317 194.408 326.501 193.944 326.501H157.63C157.166 326.501 156.721 326.317 156.393 325.989C156.065 325.66 155.88 325.215 155.88 324.751V299.375C155.88 298.911 156.065 298.466 156.393 298.138C156.721 297.809 157.166 297.625 157.63 297.625Z" fill="#F2F2F2"/>
</svg>
