<svg width="46" height="50" viewBox="0 0 46 50" fill="none" xmlns="http://www.w3.org/2000/svg">
<path fill-rule="evenodd" clip-rule="evenodd" d="M5.03806 30.1408C5.035 30.109 5.03346 30.0772 5.03345 30.0453C5.03345 28.976 6.77972 28.1077 8.9306 28.1077C11.0815 28.1077 12.8278 28.976 12.8278 30.0453C12.8278 30.0773 12.8262 30.1091 12.8231 30.1408H12.8278V48.529H5.03345V30.1408H5.03806ZM33.1723 11.5615C33.1723 10.4922 34.9185 9.62402 37.0694 9.62402C39.2203 9.62402 40.9666 10.4922 40.9666 11.5615V48.529H33.1723V11.5615Z" fill="#9AF50A"/>
<path fill-rule="evenodd" clip-rule="evenodd" d="M41.7508 47.7449H44.8967C45.3295 47.7449 45.681 48.0964 45.681 48.5292C45.681 48.9621 45.3295 49.3135 44.8967 49.3135H1.10316C0.670318 49.3135 0.318848 48.9621 0.318848 48.5292C0.318848 48.0964 0.670318 47.7449 1.10316 47.7449H4.24904V30.141H4.25169C4.24993 30.1092 4.24904 30.0773 4.24904 30.0455C4.24904 29.3888 4.61953 28.7446 5.34551 28.2524C6.15551 27.7031 7.45698 27.3236 8.93051 27.3236C10.404 27.3236 11.7055 27.7031 12.5155 28.2524C13.2415 28.7446 13.612 29.3888 13.612 30.0455C13.612 30.0774 13.6111 30.1092 13.6093 30.141H13.612V47.7449H18.3185V21.5908C18.3185 20.9342 18.6889 20.2899 19.4149 19.7977C20.2249 19.2484 21.5264 18.869 22.9999 18.869C24.4735 18.869 25.7749 19.2484 26.5849 19.7977C27.3109 20.2899 27.6814 20.9342 27.6814 21.5908V47.7449H32.3879V11.5617C32.3879 10.9051 32.7584 10.2609 33.4843 9.76864C34.2943 9.21942 35.5958 8.83991 37.0693 8.83991C38.5429 8.83991 39.8443 9.21942 40.6543 9.76864C41.3803 10.2609 41.7508 10.9051 41.7508 11.5617V47.7449ZM5.81767 47.7449H12.0434V32.1119C11.2416 32.5097 10.1444 32.7673 8.93051 32.7673C7.71659 32.7673 6.61944 32.5097 5.81767 32.1119V47.7449ZM19.8871 47.7449H26.1128V23.6573C25.311 24.055 24.2138 24.3126 22.9999 24.3126C21.786 24.3126 20.6888 24.055 19.8871 23.6573V47.7449ZM33.9565 47.7449H40.1822V13.6281C39.3804 14.026 38.2833 14.2835 37.0693 14.2835C35.8554 14.2835 34.7583 14.026 33.9565 13.6281V47.7449ZM26.1128 21.5908C26.1128 21.3904 25.9262 21.2462 25.7046 21.096C25.0957 20.6831 24.1076 20.4377 22.9999 20.4377C21.8923 20.4377 20.9041 20.6831 20.2952 21.096C20.0737 21.2462 19.8871 21.3904 19.8871 21.5908C19.8871 21.7912 20.0737 21.9353 20.2952 22.0856C20.9041 22.4984 21.8923 22.7439 22.9999 22.7439C24.1076 22.7439 25.0957 22.4984 25.7046 22.0856C25.9262 21.9353 26.1128 21.7912 26.1128 21.5908ZM40.1822 11.5617C40.1822 11.3614 39.9956 11.2172 39.774 11.067C39.1651 10.6541 38.177 10.4085 37.0693 10.4085C35.9617 10.4085 34.9736 10.6541 34.3646 11.067C34.1432 11.2172 33.9565 11.3614 33.9565 11.5617C33.9565 11.7621 34.1432 11.9063 34.3646 12.0565C34.9736 12.4693 35.9617 12.7149 37.0693 12.7149C38.177 12.7149 39.1651 12.4693 39.774 12.0565C39.9956 11.9063 40.1822 11.7621 40.1822 11.5617ZM8.93051 28.8923C7.82287 28.8923 6.83473 29.1379 6.22581 29.5507C6.00424 29.7009 5.81767 29.8451 5.81767 30.0455C5.81767 30.2459 6.00424 30.39 6.22581 30.5402C6.83473 30.953 7.82287 31.1986 8.93051 31.1986C10.0382 31.1986 11.0263 30.953 11.6352 30.5402C11.8567 30.39 12.0434 30.2459 12.0434 30.0455C12.0434 29.8451 11.8567 29.7009 11.6352 29.5507C11.0263 29.1379 10.0382 28.8923 8.93051 28.8923ZM37.644 3.47344C28.0144 11.6959 17.4771 16.8899 7.51218 20.2472C7.10198 20.3854 6.65669 20.1645 6.51846 19.7543C6.38022 19.3441 6.6011 18.8988 7.0113 18.7607C16.7662 15.4741 27.0817 10.4006 36.5153 2.37442L35.0081 2.45481C34.8004 2.46577 34.5968 2.39382 34.4422 2.25479C34.2875 2.11576 34.1943 1.92102 34.1832 1.71334C34.1722 1.50565 34.2441 1.30208 34.3831 1.14738C34.5221 0.992684 34.7169 0.899511 34.9245 0.888342L38.6963 0.687165C38.8125 0.680918 38.9287 0.700626 39.0364 0.744859C39.144 0.789092 39.2405 0.85674 39.3188 0.942894C39.397 1.02905 39.4551 1.13155 39.4889 1.24295C39.5226 1.35435 39.5311 1.47187 39.5138 1.58697L38.9696 5.20785C38.9386 5.41351 38.8273 5.59846 38.66 5.72203C38.4927 5.84561 38.2832 5.8977 38.0775 5.86687C37.8718 5.83588 37.6869 5.72451 37.5633 5.55724C37.4398 5.38997 37.3877 5.18048 37.4185 4.97481L37.644 3.47344Z" fill="#6AAD00"/>
</svg>
