<svg width="50" height="50" viewBox="0 0 50 50" fill="none" xmlns="http://www.w3.org/2000/svg">
<path fill-rule="evenodd" clip-rule="evenodd" d="M4.492 24.4661C4.45635 24.4995 4.42766 24.5396 4.40758 24.5842C4.3875 24.6287 4.37643 24.6768 4.375 24.7256V32.9756C4.375 34.4156 5.56 35.6006 7 35.6006H10.2505C10.465 35.6006 10.6255 35.4401 10.6255 35.2256V24.7256C10.6236 24.6267 10.5835 24.5325 10.5135 24.4625C10.4436 24.3926 10.3494 24.3525 10.2505 24.3506H4.75C4.65212 24.3535 4.55936 24.395 4.492 24.4661ZM0.625 24.7256C0.630909 23.6334 1.0674 22.5876 1.83971 21.8153C2.61202 21.043 3.6578 20.6065 4.75 20.6006H10.2505C11.344 20.6022 12.3923 21.0373 13.1656 21.8105C13.9388 22.5838 14.3739 23.6321 14.3755 24.7256V35.2256C14.3767 35.7676 14.2708 36.3046 14.0639 36.8056C13.857 37.3066 13.5532 37.7618 13.17 38.1451C12.7867 38.5283 12.3315 38.8321 11.8305 39.039C11.3295 39.2459 10.7925 39.3518 10.2505 39.3506H7C3.49 39.3506 0.625 36.4856 0.625 32.9756V24.7256Z" fill="white"/>
<path fill-rule="evenodd" clip-rule="evenodd" d="M25 4.34961C22.9475 4.34783 20.9149 4.75079 19.0183 5.53541C17.1217 6.32004 15.3985 7.47094 13.9472 8.92225C12.4958 10.3736 11.3449 12.0968 10.5603 13.9934C9.77569 15.89 9.37274 17.9226 9.37451 19.9751V22.4996C9.37451 22.9969 9.17697 23.4738 8.82534 23.8254C8.47371 24.1771 7.99679 24.3746 7.49951 24.3746C7.00223 24.3746 6.52532 24.1771 6.17369 23.8254C5.82206 23.4738 5.62451 22.9969 5.62451 22.4996V19.9751C5.62451 9.26511 14.29 0.599609 25 0.599609C35.71 0.599609 44.3755 9.26511 44.3755 19.9751V22.4756C44.3755 22.9729 44.178 23.4498 43.8263 23.8014C43.4747 24.1531 42.9978 24.3506 42.5005 24.3506C42.0032 24.3506 41.5263 24.1531 41.1747 23.8014C40.8231 23.4498 40.6255 22.9729 40.6255 22.4756V19.9751C40.6255 11.3351 33.64 4.34961 25 4.34961ZM42.619 35.6366C42.8606 35.685 43.0902 35.7805 43.2948 35.9177C43.4994 36.0548 43.675 36.231 43.8115 36.436C43.948 36.6411 44.0428 36.871 44.0904 37.1127C44.138 37.3544 44.1376 37.6031 44.089 37.8446C42.766 44.4281 36.961 49.3751 29.9995 49.3751H27.5005C27.0032 49.3751 26.5263 49.1776 26.1747 48.8259C25.8231 48.4743 25.6255 47.9974 25.6255 47.5001C25.6255 47.0028 25.8231 46.5259 26.1747 46.1743C26.5263 45.8227 27.0032 45.6251 27.5005 45.6251H29.9995C32.4519 45.6252 34.8288 44.7767 36.7268 43.2238C38.6248 41.6708 39.927 39.509 40.4125 37.1051C40.5106 36.6179 40.7981 36.1895 41.2118 35.9142C41.6256 35.6388 42.1317 35.539 42.619 35.6366Z" fill="white"/>
<path fill-rule="evenodd" clip-rule="evenodd" d="M39.4915 24.4661C39.4559 24.4995 39.4272 24.5396 39.4071 24.5842C39.387 24.6287 39.3759 24.6768 39.3745 24.7256V35.2256C39.3745 35.4281 39.5485 35.6006 39.7495 35.6006H42.8755C44.3905 35.6006 45.625 34.3646 45.625 32.8496V24.7256C45.6231 24.6267 45.583 24.5325 45.5131 24.4625C45.4431 24.3926 45.3489 24.3525 45.25 24.3506H39.7495C39.6516 24.3535 39.5589 24.395 39.4915 24.4661ZM35.6245 24.7256C35.6304 23.6334 36.0669 22.5876 36.8392 21.8153C37.6115 21.043 38.6573 20.6065 39.7495 20.6006H45.25C46.3435 20.6022 47.3918 21.0373 48.1651 21.8105C48.9383 22.5838 49.3734 23.6321 49.375 24.7256V32.8496C49.3738 34.5731 48.6887 36.2258 47.4701 37.4446C46.2515 38.6635 44.5991 39.349 42.8755 39.3506H39.7495C38.656 39.349 37.6077 38.9139 36.8344 38.1406C36.0612 37.3674 35.6261 36.3191 35.6245 35.2256V24.7256Z" fill="white"/>
</svg>
